<svg width="24" height="24" viewBox="0 0 24 24" fill="none" xmlns="http://www.w3.org/2000/svg">
<path fill-rule="evenodd" clip-rule="evenodd" d="M16.6434 1.00442H15.5918C15.53 1.00187 15.4746 1.04402 15.4575 1.10654C15.4343 1.16822 15.4525 1.23864 15.5023 1.27936C16.2615 1.98672 16.7495 2.96157 16.8747 4.02096C16.8824 4.10154 16.947 4.16276 17.0238 4.16236H19.8507C19.8906 4.16487 19.9293 4.1474 19.9552 4.11522C19.9851 4.08432 20.0014 4.04155 19.9999 3.99739C19.8054 2.2237 18.3366 0.91392 16.6434 1.00442ZM9.71423 3.18827L4.02317 19.0722C3.98352 19.1851 3.99519 19.3109 4.05484 19.4135C4.11448 19.5162 4.21551 19.5844 4.32898 19.5985C4.98761 19.6407 5.59431 19.2222 5.82074 18.5695L6.26081 17.344C6.30292 17.2129 6.40744 17.1148 6.53593 17.0858C6.66442 17.0568 6.79792 17.1012 6.88735 17.2026C7.39177 17.7959 8.00602 18.2744 8.69238 18.6087C8.85647 18.6794 9.02056 18.7344 9.1772 18.7894C9.33945 18.8334 9.45101 18.9901 9.44571 19.1665V22.2144C9.44571 22.6483 9.77965 23 10.1916 23C10.6035 23 10.9375 22.6483 10.9375 22.2144V19.8028C10.9359 19.3951 11.2307 19.0539 11.6162 19.0172C11.8229 19.002 12.0263 19.0779 12.1777 19.2269C12.3291 19.3759 12.4148 19.5846 12.4143 19.8028V22.2144C12.4143 22.6483 12.7483 23 13.1602 23C13.5721 23 13.9061 22.6483 13.9061 22.2144V18.648C13.909 18.3837 14.0379 18.1387 14.2492 17.996C15.2487 17.3055 16.0282 16.3148 16.4868 15.1523C17.5265 12.4851 16.6676 9.41527 14.4207 7.76806C14.4112 7.74557 14.4112 7.71985 14.4207 7.69736C14.4213 7.66874 14.4352 7.64227 14.458 7.62666C15.7459 6.88849 16.4281 5.35378 16.1416 3.83929C15.8551 2.32479 14.6664 1.18271 13.2082 1.02085C11.75 0.858985 10.3614 1.71498 9.78136 3.13328L9.71423 3.18827ZM12.4367 4.14664C12.0248 4.14664 11.6908 3.79494 11.6908 3.36109C11.6908 2.92724 12.0248 2.57553 12.4367 2.57553C12.8486 2.57553 13.1826 2.92724 13.1826 3.36109C13.1826 3.79494 12.8486 4.14664 12.4367 4.14664Z" fill="#003939"/>
</svg>
