<svg width="24" height="24" viewBox="0 0 24 24" fill="none" xmlns="http://www.w3.org/2000/svg">
<path fill-rule="evenodd" clip-rule="evenodd" d="M21.0606 4.10996C20.8175 3.96586 20.5158 3.96322 20.2703 4.10305C20.0248 4.24289 19.8732 4.50369 19.8731 4.78624C19.8731 5.22055 19.521 5.57262 19.0867 5.57262H17.514C17.0797 5.57262 16.7276 5.22055 16.7276 4.78624V4.73906C16.7111 4.46844 16.5565 4.22538 16.3183 4.09589C16.0801 3.9664 15.792 3.96874 15.5559 4.10209C14.271 5.01959 13.5302 6.51893 13.5821 8.0969C13.5813 8.36946 13.4394 8.62215 13.2071 8.76473C12.9748 8.9073 12.6852 8.91943 12.4418 8.79678C10.0046 7.55147 7.09521 7.66295 4.76042 9.0911C2.42564 10.5193 1.00134 13.0586 1 15.7956V19.7275C1 20.1618 1.35207 20.5138 1.78638 20.5138H15.9412C16.3755 20.5138 16.7276 20.1618 16.7276 19.7275C16.7276 19.2932 16.3755 18.9411 15.9412 18.9411H3.35914C2.92483 18.9411 2.57276 18.589 2.57276 18.1547C2.57276 17.7204 2.92483 17.3683 3.35914 17.3683H15.9412C16.3755 17.3683 16.7276 17.0162 16.7276 16.5819V15.7956C16.7283 15.0203 16.6144 14.2491 16.3895 13.5072C16.3214 13.2443 16.3938 12.9649 16.581 12.7682C16.7681 12.5714 17.0436 12.4851 17.3095 12.54C19.4865 12.9981 21.6877 11.8735 22.5921 9.84097C23.4965 7.80846 22.8583 5.42035 21.0606 4.10996ZM16.3423 9.11133C15.908 9.11133 15.5559 8.75926 15.5559 8.32495C15.5559 7.89065 15.908 7.53857 16.3423 7.53857C16.7766 7.53857 17.1287 7.89065 17.1287 8.32495C17.1287 8.53488 17.0447 8.7361 16.8956 8.88381C16.7464 9.03151 16.5443 9.11343 16.3344 9.11133H16.3423ZM19.4878 8.32495C19.4878 8.75926 19.8399 9.11133 20.2742 9.11133H20.2663C20.4762 9.11343 20.6783 9.03151 20.8275 8.88381C20.9766 8.7361 21.0606 8.53488 21.0606 8.32495C21.0606 7.89065 20.7085 7.53857 20.2742 7.53857C19.8399 7.53857 19.4878 7.89065 19.4878 8.32495Z" fill="#003939"/>
</svg>
