<svg width="24" height="24" viewBox="0 0 24 24" fill="none" xmlns="http://www.w3.org/2000/svg">
<path fill-rule="evenodd" clip-rule="evenodd" d="M19.1233 5.15188H13.6075C13.1723 5.15188 12.8195 4.79909 12.8195 4.36391V2.78797C12.8195 2.35279 12.4668 2 12.0316 2C11.5964 2 11.2436 2.35279 11.2436 2.78797V9.87969C11.2436 10.3149 10.8908 10.6677 10.4556 10.6677H3.36391C2.92873 10.6677 2.57594 10.3149 2.57594 9.87969V6.72782C2.57594 6.29263 2.22315 5.93985 1.78797 5.93985C1.35279 5.93985 1 6.29263 1 6.72782V20.9113C1 21.3465 1.35279 21.6992 1.78797 21.6992C2.22315 21.6992 2.57594 21.3465 2.57594 20.9113V17.7594C2.57594 17.3242 2.92873 16.9714 3.36391 16.9714H10.4556C10.8908 16.9714 11.2436 17.3242 11.2436 17.7594V20.9113C11.2436 21.3465 11.5964 21.6992 12.0316 21.6992C12.4668 21.6992 12.8195 21.3465 12.8195 20.9113V17.7594C12.8195 17.3242 13.1723 16.9714 13.6075 16.9714H16.7594C17.1946 16.9714 17.5474 17.3242 17.5474 17.7594V20.9113C17.5474 21.3465 17.9001 21.6992 18.3353 21.6992C18.7705 21.6992 19.1233 21.3465 19.1233 20.9113V11.235C19.1298 10.9246 19.318 10.6469 19.604 10.5258C21.416 9.70095 22.69 8.01806 22.9922 6.05016C23.0244 5.82284 22.9558 5.59279 22.8044 5.42019C22.653 5.2476 22.4338 5.14962 22.2043 5.15188H19.1233ZM4.93985 20.9113C4.93985 21.3465 5.29263 21.6992 5.72782 21.6992C6.163 21.6992 6.51579 21.3465 6.51579 20.9113V18.5474C6.51579 18.1122 6.163 17.7594 5.72782 17.7594C5.29263 17.7594 4.93985 18.1122 4.93985 18.5474V20.9113ZM13.6075 7.51579C13.6075 7.95097 13.9603 8.30376 14.3955 8.30376C14.8307 8.30376 15.1835 7.95097 15.1835 7.51579C15.1835 7.0806 14.8307 6.72782 14.3955 6.72782C13.9603 6.72782 13.6075 7.0806 13.6075 7.51579Z" fill="#003939"/>
</svg>
