<svg width="24" height="24" viewBox="0 0 24 24" fill="none" xmlns="http://www.w3.org/2000/svg">
<path fill-rule="evenodd" clip-rule="evenodd" d="M7.26795 17.6401C6.83468 17.6401 6.48446 17.9903 6.48446 18.4236V20.7741C6.48446 21.2074 6.83468 21.5576 7.26795 21.5576C7.70123 21.5576 8.05145 21.2074 8.05145 20.7741V18.4236C8.05145 17.9903 7.70123 17.6401 7.26795 17.6401ZM20.5874 6.67121C20.1541 6.67121 19.8039 6.3202 19.8039 5.88771C19.8039 5.45523 20.1541 5.10422 20.5874 5.10422C21.0206 5.10422 21.3708 5.45523 21.3708 5.88771C21.3708 6.3202 21.0206 6.67121 20.5874 6.67121ZM22.9747 8.96371L21.779 4.35363C21.7007 4.05277 21.4523 3.82634 21.1444 3.77698L20.0546 3.60226C19.8219 3.56465 19.619 3.42363 19.5006 3.2207L19.0219 2.39176C18.8065 2.01725 18.327 1.88876 17.9525 2.105C17.5772 2.32125 17.4487 2.80075 17.6657 3.17526C17.6657 3.17526 17.8177 3.4393 17.929 3.63203C17.9579 3.68139 17.9627 3.74094 17.9438 3.79422C17.925 3.8475 17.8827 3.8898 17.8287 3.91018C15.9788 4.62472 14.6124 6.3108 14.3609 8.34475C14.3131 8.73258 13.9809 9.02169 13.5892 9.02169H6.48446H2.56699C1.70201 9.02169 1 9.7237 1 10.5887V13.7227C1 14.1559 1.35022 14.5062 1.78349 14.5062C2.21677 14.5062 2.56699 14.1559 2.56699 13.7227V11.047C2.56699 10.794 2.77226 10.5887 3.02533 10.5887H3.49465C3.55576 10.5887 3.61139 10.62 3.64351 10.6709C3.67563 10.7234 3.67877 10.7877 3.65291 10.8417C3.46252 11.2413 3.35048 11.684 3.35048 12.1557V16.8566V20.7741C3.35048 21.2074 3.7007 21.5576 4.13398 21.5576C4.56725 21.5576 4.91747 21.2074 4.91747 20.7741V17.6401C4.91747 17.2069 5.26769 16.8566 5.70096 16.8566H13.5359C13.9692 16.8566 14.3194 17.2069 14.3194 17.6401V20.7741C14.3194 21.2074 14.6696 21.5576 15.1029 21.5576C15.5362 21.5576 15.8864 21.2074 15.8864 20.7741V17.6401C15.8864 17.2069 16.2366 16.8566 16.6699 16.8566C17.1032 16.8566 17.4534 17.2069 17.4534 17.6401V20.7741C17.4534 21.2074 17.8036 21.5576 18.2369 21.5576C18.6701 21.5576 19.0204 21.2074 19.0204 20.7741V8.32752C19.0204 8.25465 19.0674 8.19119 19.1355 8.16847C19.2053 8.14653 19.2805 8.1716 19.3236 8.23036C19.8234 8.92689 20.7699 10.2424 20.7699 10.2424C21.0277 10.6012 21.533 10.6749 21.884 10.4053L22.6942 9.7809C22.9441 9.58972 23.0538 9.26771 22.9747 8.96371Z" fill="#003939"/>
</svg>
