<svg width="24" height="24" viewBox="0 0 24 24" fill="none" xmlns="http://www.w3.org/2000/svg">
<path fill-rule="evenodd" clip-rule="evenodd" d="M21.5239 7.42915C21.4549 7.42915 21.3957 7.47657 21.3801 7.544C21.2793 7.96933 21.1052 8.36724 20.8718 8.72218C20.7866 8.84888 20.7406 8.99782 20.7406 9.15047C20.7384 9.85589 20.7384 11.8751 20.7384 11.8751C20.7384 12.2848 20.4072 12.6161 19.9974 12.6161C19.5877 12.6161 19.2564 12.2848 19.2564 11.8751V10.2857C19.2557 10.2412 19.2342 10.1997 19.1972 10.1745C19.1608 10.1493 19.1142 10.1441 19.0719 10.1604C18.8719 10.2345 18.6629 10.2923 18.448 10.3323C18.388 10.3435 18.3428 10.3924 18.3376 10.4531C18.0397 13.712 15.945 16.4529 13.0521 17.6733C12.7743 17.7867 12.5927 18.0564 12.5927 18.3558C12.5875 18.9797 12.5875 20.0489 12.5875 20.7669C12.5875 21.1767 12.2556 21.5079 11.8466 21.5079C11.4375 21.5079 11.1056 21.1767 11.1056 20.7669V19.0701C11.1048 18.8648 11.0196 18.6677 10.8692 18.5284C10.718 18.3876 10.5165 18.3165 10.3112 18.3313C10.1001 18.3469 9.88591 18.355 9.67028 18.355H9.62656C9.42946 18.3543 9.24051 18.4321 9.10046 18.5706C8.96116 18.7099 8.88261 18.8989 8.88261 19.096V20.7669C8.88261 20.964 8.80407 21.1522 8.6655 21.2908C8.5262 21.4301 8.33799 21.5079 8.14162 21.5079C7.94526 21.5079 7.75631 21.4301 7.61775 21.2908C7.47844 21.1522 7.40064 20.964 7.40064 20.7669V18.5995C7.3999 18.2779 7.19168 17.9927 6.88491 17.8941C3.6831 16.8182 1.31639 13.9261 1.00295 10.4413C0.965162 10.0189 1.2949 9.65211 1.71949 9.65211H13.9621C14.2288 9.65211 14.4741 9.5091 14.606 9.27643C14.7372 9.04525 14.7342 8.75997 14.5978 8.531C14.2518 8.00119 14.0695 7.36617 14.0695 6.68816C14.0695 5.21434 14.9306 3.94058 16.1769 3.34409C16.2154 3.32631 16.2443 3.29296 16.2562 3.25221C16.268 3.21219 16.2621 3.16773 16.2399 3.13217C15.9531 2.59569 16.4837 1.87693 17.1157 2.1348C17.2936 2.20667 17.4603 2.31486 17.604 2.45935C17.607 2.46231 17.6092 2.46454 17.6114 2.46676C17.6485 2.50381 17.7004 2.51863 17.7507 2.50603C17.8011 2.49492 17.8411 2.45787 17.8575 2.40896C18.0879 1.89324 18.9104 1.82432 19.1534 2.43934C19.1757 2.4964 19.1942 2.55494 19.2098 2.61422C19.2164 2.63941 19.2364 2.65942 19.2609 2.66609C19.2861 2.67275 19.3127 2.66534 19.3313 2.64756H19.332L19.7084 2.27114C20.2479 1.7317 21.1808 2.31189 20.8925 3.0188C20.8207 3.19663 20.7125 3.36335 20.568 3.50711C20.4857 3.5901 20.3953 3.66123 20.299 3.72051C20.259 3.74496 20.2331 3.78646 20.2286 3.8324C20.2249 3.87908 20.2427 3.92502 20.2775 3.95614C20.8147 4.44964 21.206 5.09801 21.3801 5.83232C21.3957 5.89975 21.4549 5.94644 21.5239 5.94644C21.5246 5.94718 21.5253 5.94718 21.5261 5.94718C22.29 5.94718 22.9191 6.52515 22.9992 7.26762C23.0088 7.35357 22.934 7.42915 22.8473 7.42915H21.5239ZM19.6269 5.57668C19.6269 5.98571 19.2957 6.31767 18.8859 6.31767C18.4762 6.31767 18.145 5.98571 18.145 5.57668C18.145 5.16766 18.4762 4.8357 18.8859 4.8357C19.2957 4.8357 19.6269 5.16766 19.6269 5.57668Z" fill="#003939"/>
</svg>
