<svg width="24" height="24" viewBox="0 0 24 24" fill="none" xmlns="http://www.w3.org/2000/svg">
<path fill-rule="evenodd" clip-rule="evenodd" d="M17.9228 9.46103C17.4557 9.46103 17.0767 9.08281 17.0767 8.61489C17.0767 8.14698 17.4557 7.76875 17.9228 7.76875C18.3899 7.76875 18.7689 8.14698 18.7689 8.61489C18.7689 9.08281 18.3899 9.46103 17.9228 9.46103ZM12.2097 1.00386C11.6444 0.953936 11.1537 1.39477 11.1537 1.96169V2.28576C11.1537 2.51337 10.9743 2.6936 10.7467 2.70291C9.57733 2.74775 8.36734 2.98975 7.14636 3.4602C4.79155 4.36896 2.86235 6.2017 1.89183 8.53112C1.28007 10.0009 1.01523 11.4537 1.01523 12.8456H1C1 13.1375 1.01946 13.4244 1.044 13.7095C1.04823 13.7577 1.04654 13.8085 1.05161 13.8559C1.08969 14.2476 1.15484 14.6309 1.23607 15.0092C1.26061 15.1192 1.29276 15.2249 1.31984 15.3341C1.38753 15.6023 1.46284 15.8655 1.55084 16.1244C1.59399 16.2479 1.63968 16.3706 1.68707 16.4933C1.78099 16.7395 1.88676 16.9798 2.00014 17.2168C2.05175 17.3251 2.09998 17.4342 2.15583 17.54C2.31406 17.8421 2.48498 18.1365 2.67197 18.42C2.69059 18.4487 2.70582 18.4792 2.72528 18.5071C2.93343 18.8177 3.16189 19.1121 3.40219 19.3964C3.47411 19.4819 3.55196 19.5614 3.62642 19.6435C3.80411 19.8398 3.98772 20.0302 4.1798 20.2121C4.27372 20.3018 4.36848 20.3872 4.46664 20.4727C4.66125 20.6445 4.86348 20.8061 5.07163 20.9626C5.1664 21.0337 5.25778 21.1073 5.35508 21.1742C5.64531 21.3764 5.94484 21.5668 6.25622 21.7385C6.27315 21.7478 6.28922 21.7597 6.30615 21.7698C6.63614 21.9484 6.97798 22.1049 7.32828 22.2471C7.43405 22.2911 7.54405 22.3266 7.65236 22.3664C7.90366 22.4586 8.15835 22.5432 8.41981 22.616C8.54757 22.6524 8.67703 22.6854 8.80734 22.7158C9.06964 22.7776 9.33533 22.8275 9.6044 22.869C9.7254 22.8876 9.84471 22.9104 9.9674 22.924C10.3575 22.9697 10.7518 22.9993 11.1537 22.9993C15.5316 22.9993 19.2622 20.2282 20.688 16.3444C20.9486 15.6336 20.4418 14.8763 19.6853 14.8763C19.2842 14.8763 18.9466 15.1437 18.8146 15.5219C17.7087 18.6916 14.7007 20.9685 11.1537 20.9685C10.5902 20.9685 10.0419 20.9102 9.51217 20.8002C7.01437 20.2823 5.58947 17.507 6.76983 15.2461C6.88491 15.0261 7.01521 14.8061 7.16159 14.5878C7.89858 13.4853 9.16187 12.8456 10.4869 12.8456C10.855 12.8456 11.1537 13.1443 11.1537 13.5115V14.7613C11.1537 15.1048 11.4329 15.384 11.7773 15.384H12.2232C12.5667 15.384 12.846 15.1048 12.846 14.7613V13.5115C12.846 13.1443 13.1447 12.8456 13.5127 12.8456H13.8715C14.2396 12.8456 14.5382 13.1443 14.5382 13.5115V14.7613C14.5382 15.1048 14.8175 15.384 15.1619 15.384H15.6078C15.9513 15.384 16.2305 15.1048 16.2305 14.7613V13.5115C16.2305 13.1443 16.5292 12.8456 16.8973 12.8456H22.0376C22.6045 12.8456 23.0453 12.3548 22.9963 11.7905C22.492 6.06632 17.933 1.50731 12.2097 1.00386Z" fill="#003939"/>
</svg>
