<svg width="24" height="24" viewBox="0 0 24 24" fill="none" xmlns="http://www.w3.org/2000/svg">
<path fill-rule="evenodd" clip-rule="evenodd" d="M19.0714 9.07899C18.6369 9.07899 18.2857 8.72778 18.2857 8.29328C18.2857 7.85878 18.6369 7.50756 19.0714 7.50756C19.5059 7.50756 19.8571 7.85878 19.8571 8.29328C19.8571 8.72778 19.5059 9.07899 19.0714 9.07899ZM18.8404 6.52228C18.6927 6.50813 18.5513 6.45078 18.4334 6.35806C17.4953 5.6132 13.2281 2.22756 13.2281 2.22756C12.7731 1.86692 12.1116 1.94313 11.7501 2.39806C11.7494 2.39885 11.7494 2.39963 11.7478 2.39963C11.6362 2.54028 11.6606 2.74378 11.8012 2.85535C12.6569 3.5342 15.8319 6.05399 16.5666 6.64013C16.5988 6.66763 16.6137 6.7077 16.6082 6.74935C16.6027 6.79099 16.5768 6.82635 16.5399 6.84442C16.4542 6.88685 16.3709 6.9332 16.29 6.98113C16.1494 7.06835 15.9694 7.05813 15.8406 6.95599C14.8254 6.15063 10.6391 2.82942 10.6391 2.82942C10.1834 2.46878 9.52186 2.54499 9.16121 2.99992C8.79979 3.45563 8.87521 4.1172 9.33171 4.47863C9.33171 4.47863 13.716 7.9562 14.6227 8.67749C14.7194 8.75528 14.7594 8.88335 14.7233 9.00199C14.5465 9.60385 14.5269 10.2717 14.7154 10.9592C14.7469 11.0716 14.7241 11.1933 14.6526 11.2876C14.5819 11.3811 14.4711 11.4361 14.3532 11.4361H8.07143C5.356 11.4361 3.101 13.4036 2.65314 15.9909C2.63743 16.0828 2.55807 16.1504 2.46536 16.1504H1.78571C1.35121 16.1504 1 16.5024 1 16.9361C1 17.3698 1.35121 17.7218 1.78571 17.7218C1.78571 17.7218 2.22179 17.7218 2.46536 17.7226C2.55807 17.7226 2.63743 17.7894 2.65314 17.8813C3.06564 20.2668 5.015 22.125 7.44521 22.4008C7.51907 22.4236 7.59686 22.4361 7.67857 22.4361H10.0357C10.4702 22.4361 10.8214 22.0841 10.8214 21.6504C10.8214 21.2167 10.4702 20.8647 10.0357 20.8647H9.78036C9.64993 20.8647 9.52971 20.7924 9.46843 20.6785C9.40636 20.563 9.41343 20.4231 9.48571 20.3147C9.51243 20.2754 9.52814 20.2511 9.52814 20.2511C10.0781 19.4276 10.5119 18.7755 11.4524 18.3316C11.5702 18.2742 11.7101 18.2821 11.8209 18.3512C11.9324 18.4211 12 18.5437 12 18.6749V21.6504C12 22.0841 12.3512 22.4361 12.7857 22.4361C13.2202 22.4361 13.5714 22.0841 13.5714 21.6504V18.1893C13.5714 17.9811 13.7301 17.8083 13.9368 17.7902C14.1874 17.7698 14.4554 17.7533 14.7421 17.7407C14.8474 17.7376 14.9496 17.7753 15.025 17.8483C15.1004 17.9214 15.1429 18.022 15.1429 18.1265V21.6504C15.1429 22.0841 15.4941 22.4361 15.9286 22.4361C16.3631 22.4361 16.7143 22.0841 16.7143 21.6504V17.2371V17.2166C16.7143 17.2166 16.7143 14.8328 16.719 13.8216C16.719 13.7116 16.7654 13.6071 16.8486 13.534C16.9311 13.4609 17.0411 13.4271 17.1511 13.4413C20.4134 13.8365 23 12.1393 23 9.99042C23 8.2312 21.2628 6.7737 18.8404 6.52228Z" fill="#003939"/>
</svg>
