<?xml version="1.0" encoding="utf-8"?>
<!-- Generator: Adobe Illustrator 27.0.0, SVG Export Plug-In . SVG Version: 6.00 Build 0)  -->
<svg version="1.1" id="Layer_1" xmlns="http://www.w3.org/2000/svg" xmlns:xlink="http://www.w3.org/1999/xlink" x="0px" y="0px"
	 viewBox="0 0 2724.9 374.6" style="enable-background:new 0 0 2724.9 374.6;" xml:space="preserve">
<style type="text/css">
	.st0{fill:#00A69B;}
</style>
<g id="Layer_2_00000039110644197744444810000002726729234628055179_">
	<g id="Layer_1-2">
		<path class="st0" d="M271.2,79.3c8.6,0,15.5-6.9,15.5-15.5s-6.9-15.5-15.5-15.5c-8.6,0-15.5,6.9-15.5,15.5S262.7,79.3,271.2,79.3
			L271.2,79.3z"/>
		<path class="st0" d="M82.8,127.7c29.4,0,53.4-28.6,53.4-63.8S112.2,0,82.8,0S29.4,28.6,29.4,63.8S53.4,127.7,82.8,127.7z
			 M82.8,28.3c13.6,0,25.1,16.3,25.1,35.5S96.4,99.4,82.8,99.4S57.7,83.1,57.7,63.8S69.2,28.3,82.8,28.3z"/>
		<path class="st0" d="M271.2,127.7c29.4,0,53.4-28.6,53.4-63.8S300.7,0,271.2,0s-53.4,28.6-53.4,63.8S241.8,127.7,271.2,127.7z
			 M271.2,28.3c13.6,0,25.1,16.3,25.1,35.5s-11.5,35.5-25.1,35.5s-25.1-16.3-25.1-35.5S257.6,28.3,271.2,28.3z"/>
		<path class="st0" d="M349.2,224.7L186.3,82c-5.3-4.7-13.3-4.7-18.6,0L4.8,224.7c-5.9,5.1-6.5,14.1-1.3,20s14.1,6.5,20,1.3
			l29.1-25.5v115.7c0,21.2,17.2,38.4,38.4,38.4h172.1c21.2,0,38.4-17.2,38.4-38.4V220.5l29.1,25.5c5.9,5.1,14.8,4.6,20-1.3
			S355.1,229.9,349.2,224.7L349.2,224.7L349.2,224.7z M273.2,336.2c0,5.6-4.5,10.1-10.1,10.1h-72v-42.1l46-47.2l0.3-0.3
			c8.8-9.6,13.7-22.3,13.7-35.3c0-28.6-23-52-51.3-52c-7.9,0-15.8,1.9-22.9,5.5c-7.1-3.6-14.9-5.4-22.8-5.4
			c-28.3,0-51.3,23.3-51.3,52c0,13.1,4.9,25.7,13.7,35.3l0.3,0.3l46,47.2v42.1H91c-5.6,0-10.1-4.5-10.1-10.1V195.7l96.1-84.2
			l96.2,84.2L273.2,336.2z M177,278.2l-39.7-40.8c-4-4.4-6.2-10.1-6.1-16.1c0-13.1,10.3-23.7,23-23.7c5.1,0,10,1.7,14,4.9
			c5.2,4.1,12.4,4.1,17.6,0c4-3.2,8.9-4.9,14-4.9c12.7,0,23,10.6,23,23.7c0,5.9-2.1,11.7-6.1,16.1L177,278.2z"/>
		<path class="st0" d="M82.8,79.3c8.6,0,15.5-6.9,15.5-15.5s-6.9-15.5-15.5-15.5s-15.5,6.9-15.5,15.5c0,0,0,0,0,0
			C67.3,72.4,74.3,79.3,82.8,79.3z"/>
		<path class="st0" d="M2116.5,143.6c13.9,0,23.2-7.7,23.2-19.3s-9.3-19.1-23.2-19.1s-23.2,7.5-23.2,19.1S2102.6,143.6,2116.5,143.6
			z"/>
		<path class="st0" d="M884.8,200.5L868,196c-13.2-3.6-18.9-7.1-18.9-13.4c0-5.7,4.1-9.6,13.2-9.6c10.5,0,21.4,6.6,35.5,20.2
			c2.2,2.3,5.8,2.7,8.4,0.9l2.3-1.4c2.7-1.4,3.4-4.1,1.8-7.3l-12.1-25.2c-1.4-2.7-3-4.1-5.9-4.1s-5.5,1.6-10.7,1.6
			c-7.1,0-13.9-2-22.1-2c-26.4,0-41.4,12.7-41.4,33.4c0,20.5,13.4,29.6,32.7,35.2l17.3,5.2c12.5,3.6,18,8,18,14.8s-5,10.7-14.1,10.7
			c-13.9,0-28.2-8.6-41.4-24.6c-2.5-3.2-5.5-3.6-8.4-2.1l-4.1,2.3c-3.2,1.8-4.3,5-2.5,8.4l14.3,29.2c1.4,2.7,3.6,4.8,6.6,4.8
			c4.5,0,6.4-2.7,12-2.7s12.8,3.4,25,3.4c28,0,45.5-13.2,45.3-37.1C919,216,906.2,206.2,884.8,200.5z"/>
		<path class="st0" d="M802.8,253.1l-3.2-1.1c-4.5-1.6-6.1-3.9-6.1-8.6v-81c0-6.6-4.3-8.4-10.5-6.6l-34.6,10.2
			c-3.4,1.1-4.8,3.2-4.8,6.4v5.8c0,3.4,1.3,4.8,5,5.9c7.5,2.1,9.1,5.2,9.1,11.6V236c0,3.2-0.7,5.2-3.9,7.1c-6.1,3.5-13,5.5-20,5.7
			c-7,0-9.8-4.1-9.8-12.5v-73.9c0-6.6-4.3-8.4-10.5-6.6l-34.6,10.2c-3.6,1.1-5,3.2-5,6.4v5.7c0,3.4,1.4,4.8,5,5.9
			c7.7,2.1,9.3,5.2,9.3,11.6V239c0,22.3,9.5,35,32.3,35c12.5,0,23.2-3.2,30.9-9.3l4.1-3.2c1.8-1.4,3.2-0.4,3.6,1.8l0.4,2
			c1.2,4.3,3.2,6.1,7.5,6.1h34.5c3,0.2,5.7-2,5.9-5c0-0.3,0-0.6,0-0.9v-6.1C807.8,256,806,254,802.8,253.1z"/>
		<path class="st0" d="M999.6,244.2c-5.5,0-7,5-15.7,5c-5.9,0-8.4-2.7-8.4-8.6v-58.5c-0.1-1.5,1.1-2.7,2.5-2.7c0.1,0,0.1,0,0.2,0
			h19.1c3.6,0,5.9-2.3,5.9-5.9v-10c0-3.6-2.3-5.7-5.9-5.7h-18.9c-1.4,0.1-2.7-1.1-2.7-2.5c0-0.1,0-0.1,0-0.2v-15c0-5.2-2.7-8-7.3-8
			c-4.1,0-6.8,1.6-10.2,4.8c-8.9,8.2-18.4,16.8-29.1,24.1c-3.6,2.3-5,4.3-5,7.7v4.8c0,3.9,2.3,5.9,5.9,5.9h7
			c1.5-0.1,2.7,1.1,2.7,2.5c0,0.1,0,0.1,0,0.2v63c0,19.1,11.6,28.9,31.6,28.9c22.3,0,33.7-11.4,33.7-23.7
			C1005.1,246.4,1003,244.2,999.6,244.2z"/>
		<path class="st0" d="M549.1,112.7c-1.1-4.3-3.4-5.5-6.6-5.5h-2c-2.5,0-4.1,0.9-6.4,2.5c-2.3,1.6-5.1,2.5-8,2.5h-82.8
			c-2.9,0-5.7-0.9-8-2.5c-2.5-1.6-3.9-2.5-6.4-2.5h-2c-3.2,0-5.5,1.2-6.6,5.5l-13.7,48.4c-1.1,3.6-0.2,6.1,3,7.5l6.4,2.5
			c3.6,1.1,6.1,0.9,8-2.5c13.4-26.4,24.1-37.3,32.8-37.3h0.9c5.2,0,7.7,3.6,7.7,9.8v100.5c0,5-1.4,7.5-6.4,8.9l-8.2,2
			c-3.4,0.9-4.8,2.7-4.8,6.6v6.6c0,3.4,2,5.7,5.9,5.7h65.5c3.6,0,5.7-2.3,5.7-5.7v-6.6c0-3.9-1.1-5.7-4.5-6.6l-8.2-2
			c-5-1.4-6.4-3.9-6.4-8.9V141.1c0-6.4,2.5-9.8,8-9.8h0.7c8.6,0,19.1,10.9,32.8,37.3c1.8,3.4,4.3,3.9,8,2.5l6.4-2.5
			c3.2-1.4,3.9-3.9,3-7.5L549.1,112.7z"/>
		<path class="st0" d="M654.2,155.7c-12,0-22.7,5.5-30.7,13.2c-2.5,2.3-4.8,1.4-4.8-1.1v-5.2c0-6.8-4.1-8.6-10.5-6.8l-33,9.8
			c-3.4,0.9-5,3.2-5,6.4v5.7c0,3.4,1.4,4.8,5,5.9c7.7,2.3,9.3,5.5,9.3,11.8v48c0,5-1.6,7.1-6.1,8.6l-3.4,1.1
			c-3.2,1.1-4.8,2.9-4.8,6.4v6.4c0,3.4,2.3,5.7,5.9,5.7H631c3,0.2,5.5-2.1,5.7-5c0-0.2,0-0.4,0-0.6v-6.4c0-3.6-1.6-5.7-4.8-6.4
			l-5.7-1.4c-4.6-1.1-5.9-3.6-5.9-8.4v-45.9c0-8.4,3.6-12.5,10.2-12.5c5.2,0,9.1,3.2,15,11.2c2.7,3.4,4.5,4.8,7.5,4.8
			c3.9,0,6.4-2.3,6.8-6.4l3.4-29.6C664,159.1,660.8,155.7,654.2,155.7z"/>
		<path class="st0" d="M2317.9,244.2c-5.4,0-7.1,5-15.7,5c-5.9,0-8.4-2.7-8.4-8.6v-58.5c-0.1-1.5,1.1-2.7,2.5-2.7c0.1,0,0.1,0,0.2,0
			h19.1c3.6,0,5.9-2.3,5.9-5.9v-10c0-3.6-2.3-5.7-5.9-5.7h-18.9c-1.5,0.1-2.7-1.1-2.7-2.5c0-0.1,0-0.1,0-0.2v-15c0-5.2-2.7-8-7.3-8
			c-4.1,0-6.8,1.6-10.2,4.8c-8.9,8.2-18.4,16.8-29.1,24.1c-3.6,2.3-5,4.3-5,7.7v4.8c0,3.9,2.3,5.9,5.9,5.9h7
			c1.5-0.1,2.7,1.1,2.7,2.5c0,0.1,0,0.1,0,0.2v63c0,19.1,11.6,28.9,31.6,28.9c22.3,0,33.7-11.4,33.7-23.7
			C2323.4,246.4,2321.3,244.2,2317.9,244.2z"/>
		<path class="st0" d="M2442.8,234.6c-3.6-2.5-8-0.7-10.9,2.1c-6.9,5.8-15.6,9-24.6,8.9c-14.8,0-26.6-6.8-33-17.5
			c-0.9-1.6-0.7-3.2,1.1-3.9l61.9-22.5c4.1-1.6,5.5-4.1,4.3-8.4c-6.4-24.1-24.1-38.2-50.5-38.2c-33.9,0-57.1,24.8-57.1,59.6
			s24.8,59.4,60.5,59.4c28.2,0,43.9-13,49.8-28.4C2446.7,239.8,2446,236.9,2442.8,234.6z M2366.6,203.7v-1.4
			c0-17.5,9.6-27.3,22.1-27.3c7.5,0,14.1,4.1,17.1,12.5c0.9,2.1,0,3.4-1.8,4.1l-34.1,13.6C2367.7,206.2,2366.6,205.2,2366.6,203.7z"
			/>
		<path class="st0" d="M2229.6,244.2c-5.4,0-7,5-15.7,5c-5.9,0-8.4-2.7-8.4-8.6v-58.5c-0.1-1.5,1.1-2.7,2.5-2.7c0.1,0,0.1,0,0.2,0
			h19.1c3.6,0,5.9-2.3,5.9-5.9v-10c0-3.6-2.3-5.7-5.9-5.7h-18.9c-1.4,0.1-2.7-1.1-2.7-2.5c0-0.1,0-0.1,0-0.2v-15c0-5.2-2.7-8-7.3-8
			c-4.1,0-6.8,1.6-10.2,4.8c-8.9,8.2-18.4,16.8-29.1,24.1c-3.6,2.3-5,4.3-5,7.7v4.8c0,3.9,2.3,5.9,5.9,5.9h7.1
			c1.5,0,2.7,1.1,2.7,2.6c0,0.1,0,0.1,0,0.2v63c0,19.1,11.6,28.9,31.6,28.9c22.3,0,33.6-11.4,33.6-23.7
			C2235.1,246.4,2233.1,244.2,2229.6,244.2z"/>
		<path class="st0" d="M2541.5,155.7c-12.1,0-22.8,5.5-30.7,13.2c-2.5,2.3-4.8,1.4-4.8-1.1v-5.2c0-6.8-4.1-8.6-10.4-6.8l-33,9.8
			c-3.4,0.9-5,3.2-5,6.4v5.7c0,3.4,1.4,4.8,5,5.9c7.7,2.3,9.3,5.5,9.3,11.8v48c0,5-1.6,7-6.1,8.6l-3.4,1.1c-3.2,1.1-4.8,2.9-4.8,6.4
			v6.4c0,3.4,2.3,5.7,5.9,5.7h54.8c3,0.2,5.5-2.1,5.7-5.1c0-0.2,0-0.4,0-0.6v-6.4c0-3.6-1.6-5.7-4.8-6.4l-5.7-1.4
			c-4.6-1.1-5.9-3.6-5.9-8.4v-46c0-8.4,3.6-12.5,10.2-12.5c5.2,0,9.1,3.2,15,11.2c2.7,3.4,4.6,4.8,7.5,4.8c3.9,0,6.4-2.3,6.8-6.4
			l3.4-29.6C2551.3,159.1,2548.1,155.7,2541.5,155.7z"/>
		<path class="st0" d="M2145.6,253l-3.4-1.1c-4.3-1.6-5.9-3.9-5.9-8.6v-80.7c0-6.8-4.3-8.6-10.7-6.8l-34.3,10.2
			c-3.4,0.9-5,3.2-5,6.4v5.7c0,3.4,1.4,4.8,5,5.9c7.7,2.3,9.3,5.5,9.3,11.8v47.5c0,5-1.6,7-6.1,8.6l-3.4,1.1
			c-3.2,1.1-4.8,2.9-4.8,6.4v6.4c0,3.4,2.3,5.7,5.9,5.7h52.5c3,0.2,5.5-2.1,5.7-5c0-0.2,0-0.4,0-0.7v-6.4
			C2150.4,256,2148.8,254.2,2145.6,253z"/>
		<polygon class="st0" points="2717.7,123.5 2708.6,149.5 2699.6,123.5 2691.9,123.5 2691.9,155 2696.1,155 2696.1,126.8 
			2706.1,155 2710.3,155 2720.6,126.6 2720.6,155 2724.9,155 2724.9,123.5 		"/>
		<path class="st0" d="M2629.5,200.5l-16.8-4.5c-13.2-3.6-18.9-7.1-18.9-13.4c0-5.7,4.1-9.6,13.2-9.6c10.5,0,21.4,6.6,35.5,20.2
			c2.2,2.3,5.8,2.7,8.4,0.9l2.3-1.4c2.7-1.4,3.4-4.1,1.8-7.3l-12-25.3c-1.4-2.7-3-4.1-5.9-4.1s-5.5,1.6-10.7,1.6
			c-7.1,0-13.9-2.1-22.1-2.1c-26.4,0-41.4,12.7-41.4,33.4c0,20.5,13.4,29.6,32.7,35.3l17.3,5.2c12.5,3.6,18,8,18,14.8
			s-5,10.7-14.1,10.7c-13.9,0-28.2-8.6-41.4-24.6c-2.5-3.2-5.5-3.6-8.4-2l-4.1,2.3c-3.2,1.8-4.3,5-2.5,8.4l14.3,29.3
			c1.4,2.7,3.6,4.8,6.6,4.8c4.6,0,6.4-2.7,12.1-2.7s12.8,3.4,25,3.4c28,0,45.5-13.2,45.3-37.1C2663.7,216,2650.9,206.2,2629.5,200.5
			z"/>
		<polygon class="st0" points="2657.9,127.2 2668.4,127.2 2668.4,155 2672.8,155 2672.8,127.2 2683.3,127.2 2683.3,123.5 
			2657.9,123.5 		"/>
		<path class="st0" d="M1119.6,234.6c-3.7-2.5-8-0.7-10.9,2.1c-6.9,5.8-15.6,9-24.6,8.9c-14.8,0-26.6-6.8-33-17.5
			c-0.9-1.6-0.7-3.2,1.1-3.9l61.9-22.5c4.1-1.6,5.5-4.1,4.3-8.4c-6.3-24.1-24.1-38.2-50.5-38.2c-33.9,0-57.1,24.8-57.1,59.6
			s24.8,59.4,60.5,59.4c28.2,0,43.9-13,49.8-28.4C1123.5,239.8,1122.8,236.9,1119.6,234.6z M1043.4,203.7v-1.4
			c0-17.5,9.6-27.3,22.1-27.3c7.5,0,14.1,4.1,17,12.5c0.9,2,0,3.4-1.8,4.1l-34.1,13.6C1044.6,206.2,1043.4,205.3,1043.4,203.7
			L1043.4,203.7z"/>
		<path class="st0" d="M1447.8,112.2h-59.1c-3.7,0-5.7,2.3-5.7,5.7v6.6c0,3.9,1.4,5.2,4.5,6.6l5,1.8c4.8,1.6,6.4,4.1,6.4,9.1v32.1
			c0.1,1.5-1.1,2.7-2.5,2.7c-0.1,0-0.1,0-0.2,0h-55.7c-1.5,0.1-2.7-1.1-2.7-2.5c0-0.1,0-0.1,0-0.2V142c0-5,1.6-7.5,6.1-9.1l5.2-1.8
			c3.2-1.4,4.6-2.7,4.6-6.6v-6.6c0-3.4-2.1-5.7-5.7-5.7h-59.1c-3.6,0-5.9,2.3-5.9,5.7v6.6c0,3.9,1.4,5.2,4.8,6.6l5,1.8
			c4.8,1.6,6.4,4.1,6.4,9.1v99.6c0,5-1.6,7.5-6.4,9.1l-5,1.8c-3.4,1.4-4.8,2.7-4.8,6.6v6.6c0,3.4,2.3,5.7,5.9,5.7h59.2
			c3.6,0,5.7-2.3,5.7-5.7v-6.6c0-3.9-1.4-5.2-4.6-6.6l-5.2-1.8c-4.6-1.6-6.1-4.1-6.1-9.1v-41.4c-0.1-1.5,1.1-2.7,2.5-2.7
			c0.1,0,0.1,0,0.2,0h55.7c1.5-0.1,2.7,1.1,2.7,2.5c0,0.1,0,0.1,0,0.2v41.4c0,5-1.6,7.5-6.4,9.1l-5,1.8c-3.2,1.4-4.5,2.7-4.5,6.6
			v6.6c0,3.4,2,5.7,5.7,5.7h59.1c3.9,0,5.9-2.3,5.9-5.7v-6.6c0-3.9-1.3-5.2-4.8-6.6l-5-1.8c-4.8-1.6-6.4-4.1-6.4-9.1V142
			c0-5,1.6-7.5,6.4-9.1l5-1.8c3.4-1.4,4.8-2.7,4.8-6.6v-6.6C1453.7,114.5,1451.7,112.2,1447.8,112.2z"/>
		<path class="st0" d="M1520,155c-35.5,0-60,25-60,59.6c0,34.4,24.6,59.4,60,59.4s60-24.8,60-59.4S1555.5,155,1520,155z M1526.1,251
			c-16.6,0-31.2-22.8-31.2-48.4c0-15.7,7.5-24.6,18.9-24.6c16.6,0,31.2,22.7,31.2,48.4C1545,242.1,1537.7,251,1526.1,251L1526.1,251
			z"/>
		<path class="st0" d="M1256.1,253.1l-3.4-1.1c-4.6-1.6-5.9-4.1-5.9-8.6V107.9c0-6.8-4.6-8.4-10.7-6.6l-35,10c-3.4,1.1-5,3.2-5,6.6
			v5.5c0,3.4,1.1,5,5,5.9c8.9,2.3,10,5.7,10,11.8V155c0,1.6-1.1,2.5-3,2c-5.5-1.1-11.2-1.6-16.8-1.6c-31.6,0-56.4,23.4-56.4,61.6
			c0,38.9,21.2,56.9,46.2,56.9c11.8,0,20.5-4.1,28-10.5c1.6-1.4,3.2-1.4,3.9,0.9l0.5,1.6c1.2,3.4,3.4,5.5,7.1,5.5h34.8
			c3.4,0,5.7-2.3,5.7-5.9v-6.1C1260.9,256,1259.3,254,1256.1,253.1z M1211.1,243.1c0,3.6-1.3,5.5-3.9,6.8c-2.9,1.5-6.1,2.3-9.3,2.3
			c-14.8,0-25.7-16.1-25.7-40c0-22.1,10.7-36.6,26.4-36.6c2.5-0.1,5,0.3,7.3,1.1c3,0.7,5.2,3,5.2,7.5L1211.1,243.1z"/>
		<path class="st0" d="M1954,234.6c-3.6-2.5-8-0.7-10.9,2.1c-6.9,5.8-15.6,9-24.6,8.9c-14.8,0-26.6-6.8-33-17.5
			c-0.9-1.6-0.7-3.2,1.1-3.9l61.9-22.5c4.1-1.6,5.5-4.1,4.3-8.4c-6.4-24.1-24.1-38.2-50.5-38.2c-33.9,0-57.1,24.8-57.1,59.6
			s24.8,59.4,60.6,59.4c28.2,0,43.9-13,49.8-28.4C1957.9,239.8,1957.2,236.9,1954,234.6z M1877.8,203.7v-1.4
			c0-17.5,9.6-27.3,22.1-27.3c7.5,0,14.1,4.1,17.1,12.5c0.9,2.1,0,3.4-1.8,4.1l-34.1,13.6C1879,206.2,1877.8,205.2,1877.8,203.7
			L1877.8,203.7z"/>
		<path class="st0" d="M1715.3,253l-3.2-1.1c-4.6-1.6-6.1-3.9-6.1-8.6v-81c0-6.6-4.3-8.4-10.5-6.6l-34.6,10.2
			c-3.4,1.1-4.8,3.2-4.8,6.4v5.8c0,3.4,1.4,4.8,5,5.9c7.5,2,9.1,5.2,9.1,11.6V236c0,3.2-0.7,5.2-3.9,7c-6.1,3.5-13,5.5-20,5.7
			c-7,0-9.8-4.1-9.8-12.5v-73.9c0-6.6-4.3-8.4-10.5-6.6l-34.6,10.2c-3.6,1.1-5,3.2-5,6.4v5.7c0,3.4,1.4,4.8,5,5.9
			c7.7,2,9.3,5.2,9.3,11.6V239c0,22.3,9.6,35,32.3,35c12.5,0,23.2-3.2,30.9-9.3l4.1-3.2c1.8-1.4,3.2-0.5,3.6,1.8l0.4,2
			c1.1,4.3,3.2,6.1,7.5,6.1h34.6c3,0.2,5.7-2,5.9-5c0-0.3,0-0.6,0-0.9v-6.1C1720.3,256,1718.5,253.9,1715.3,253z"/>
		<path class="st0" d="M2037.8,200.5l-16.8-4.5c-13.2-3.6-18.9-7.1-18.9-13.4c0-5.7,4.1-9.6,13.2-9.6c10.5,0,21.4,6.6,35.5,20.2
			c2.2,2.3,5.8,2.7,8.4,0.9l2.3-1.4c2.7-1.4,3.4-4.1,1.8-7.3l-12.1-25.2c-1.4-2.7-3-4.1-5.9-4.1s-5.5,1.6-10.7,1.6
			c-7,0-13.9-2.1-22-2.1c-26.4,0-41.4,12.7-41.4,33.4c0,20.5,13.4,29.6,32.8,35.3l17.3,5.2c12.5,3.6,18,8,18,14.8s-5,10.7-14.1,10.7
			c-13.9,0-28.2-8.6-41.4-24.6c-2.5-3.2-5.5-3.6-8.4-2l-4.1,2.3c-3.2,1.8-4.3,5-2.5,8.4l14.3,29.3c1.4,2.7,3.7,4.8,6.6,4.8
			c4.6,0,6.4-2.7,12-2.7s12.8,3.4,25,3.4c28,0,45.5-13.2,45.3-37.1C2071.9,216,2059.1,206.2,2037.8,200.5z"/>
		<path class="st0" d="M1797.3,200.5l-16.8-4.5c-13.2-3.6-18.9-7.1-18.9-13.4c0-5.7,4.1-9.6,13.2-9.6c10.5,0,21.4,6.6,35.5,20.2
			c2.2,2.3,5.8,2.7,8.4,0.9l2.3-1.4c2.7-1.4,3.4-4.1,1.8-7.3l-12.1-25.2c-1.4-2.7-3-4.1-5.9-4.1s-5.5,1.6-10.7,1.6
			c-7.1,0-13.9-2.1-22.1-2.1c-26.4,0-41.4,12.7-41.4,33.4c0,20.5,13.4,29.6,32.8,35.3l17.3,5.2c12.5,3.6,18,8,18,14.8
			s-5,10.7-14.1,10.7c-13.9,0-28.2-8.6-41.4-24.6c-2.5-3.2-5.5-3.6-8.4-2l-4.1,2.3c-3.2,1.8-4.3,5-2.5,8.4l14.3,29.3
			c1.4,2.7,3.7,4.8,6.6,4.8c4.6,0,6.4-2.7,12.1-2.7s12.8,3.4,25,3.4c28,0,45.5-13.2,45.3-37.1C1831.4,216,1818.7,206.2,1797.3,200.5
			z"/>
	</g>
</g>
</svg>
