<svg width="506" height="535" viewBox="0 0 506 535" fill="none" xmlns="http://www.w3.org/2000/svg">
<path d="M118.786 182.756C160.77 182.756 194.917 141.92 194.917 91.7324C194.917 41.5451 160.762 0.699951 118.786 0.699951C76.8105 0.699951 42.6553 41.5366 42.6553 91.7324C42.6553 141.928 76.802 182.756 118.786 182.756ZM118.786 41.0351C138.193 41.0351 154.574 64.2501 154.574 91.7239C154.574 119.198 138.184 142.413 118.786 142.413C99.388 142.413 82.9904 119.198 82.9904 91.7239C82.9904 64.2501 99.3795 41.0351 118.786 41.0351Z" fill="#00A69B"/>
<path d="M387.546 182.756C429.522 182.756 463.677 141.92 463.677 91.7324C463.677 41.5451 429.522 0.699951 387.546 0.699951C345.571 0.699951 311.424 41.5366 311.424 91.7324C311.424 141.928 345.571 182.756 387.546 182.756ZM387.546 41.0351C406.953 41.0351 423.342 64.2501 423.342 91.7239C423.342 119.198 406.953 142.413 387.546 142.413C368.14 142.413 351.759 119.198 351.759 91.7239C351.759 64.2501 368.148 41.0351 387.546 41.0351Z" fill="#00A69B"/>
<path d="M387.548 113.818C399.755 113.818 409.649 103.931 409.649 91.7332C409.649 79.5349 399.755 69.6317 387.548 69.6317C375.341 69.6317 365.446 79.5264 365.446 91.7332C365.446 103.94 375.341 113.818 387.548 113.818Z" fill="#00A69B"/>
<path d="M118.786 113.818C130.984 113.818 140.887 103.931 140.887 91.7332C140.887 79.5349 130.984 69.6317 118.786 69.6317C106.587 69.6317 96.6841 79.5264 96.6841 91.7332C96.6841 103.94 106.587 113.818 118.786 113.818Z" fill="#00A69B"/>
<path d="M498.76 321.17L266.457 117.684C258.849 111.02 247.484 111.02 239.876 117.684L7.57252 321.17C-0.809022 328.515 -1.65058 341.249 5.6939 349.639C13.0299 358.02 25.7722 358.853 34.1452 351.517L75.679 315.135V480.19C75.679 510.376 100.237 534.934 130.423 534.934H375.901C406.087 534.934 430.645 510.367 430.645 480.19V315.143L472.17 351.526C475.995 354.875 480.739 356.524 485.448 356.524C491.058 356.524 496.635 354.195 500.63 349.647C507.975 341.257 507.125 328.515 498.743 321.179L498.76 321.17ZM390.318 480.19C390.318 488.138 383.858 494.599 375.91 494.599H273.334V434.559L338.916 367.201C339.06 367.065 339.196 366.92 339.332 366.759C351.913 353.039 358.832 335.145 358.832 316.368C358.832 275.514 326.029 242.268 285.711 242.268C274.396 242.268 263.218 244.963 253.162 250.021C243.097 244.963 231.911 242.268 220.613 242.268C180.287 242.268 147.492 275.505 147.492 316.368C147.492 335.12 154.42 353.005 167 366.75C167.145 366.903 167.281 367.048 167.425 367.192L232.99 434.542V494.59H130.423C122.483 494.59 116.014 488.13 116.014 480.182V279.79L253.153 159.66L390.301 279.79V480.173L390.318 480.19ZM253.171 397.446L196.574 339.311C190.929 333.046 187.827 324.919 187.827 316.376C187.827 297.76 202.533 282.62 220.613 282.62C227.924 282.62 234.843 285.043 240.624 289.633C247.968 295.473 258.364 295.465 265.717 289.633C271.481 285.052 278.4 282.629 285.711 282.629C303.783 282.629 318.489 297.768 318.489 316.385C318.489 324.953 315.395 333.08 309.767 339.319L253.153 397.454L253.171 397.446Z" fill="#00A69B"/>
</svg>
