<svg width="757" height="713" viewBox="0 0 757 713" fill="none" xmlns="http://www.w3.org/2000/svg">
<rect width="757" height="713" fill="#00A69B"/>
<path d="M608.266 528.431H611.391V536.599H612.652V528.431H615.776V527.335H608.266V528.431Z" fill="white"/>
<path d="M625.862 527.335L623.176 535.01L620.545 527.335H618.297V536.599H619.558V528.322L622.463 536.599H623.724L626.739 528.267V536.599H628V527.335H625.862Z" fill="white"/>
<path d="M437.288 227.588C458.667 227.588 475.99 206.812 475.99 181.321C475.99 155.831 458.612 135 437.288 135C415.964 135 398.586 155.776 398.586 181.267C398.586 206.757 415.909 227.588 437.288 227.588ZM437.288 155.502C447.155 155.502 455.488 167.288 455.488 181.267C455.488 195.245 447.155 207.031 437.288 207.031C427.421 207.031 419.088 195.245 419.088 181.267C419.088 167.288 427.421 155.502 437.288 155.502Z" fill="white"/>
<path d="M300.626 227.588C322.005 227.588 339.327 206.812 339.327 181.321C339.327 155.831 321.95 135 300.626 135C279.301 135 261.924 155.776 261.924 181.267C261.924 206.757 279.246 227.588 300.626 227.588ZM300.626 155.502C310.493 155.502 318.825 167.288 318.825 181.267C318.825 195.245 310.493 207.031 300.626 207.031C290.758 207.031 282.426 195.245 282.426 181.267C282.426 167.288 290.758 155.502 300.626 155.502Z" fill="white"/>
<path d="M300.626 192.505C306.82 192.505 311.864 187.462 311.864 181.267C311.864 175.073 306.82 170.029 300.626 170.029C294.431 170.029 289.388 175.073 289.388 181.267C289.388 187.516 294.431 192.505 300.626 192.505Z" fill="white"/>
<path d="M437.288 192.505C443.482 192.505 448.525 187.462 448.525 181.267C448.525 175.073 443.482 170.029 437.288 170.029C431.093 170.029 426.05 175.073 426.05 181.267C426.05 187.516 431.093 192.505 437.288 192.505Z" fill="white"/>
<path d="M493.86 297.975L375.727 194.478C371.835 191.079 366.079 191.079 362.187 194.478L244.053 297.975C239.777 301.702 239.339 308.171 243.066 312.447C246.794 316.723 253.263 317.161 257.538 313.433L278.643 294.905V378.832C278.643 394.181 291.087 406.679 306.491 406.679H431.312C446.662 406.679 459.16 394.181 459.16 378.832V294.905L480.265 313.433C484.431 317.271 490.955 316.942 494.737 312.776C498.574 308.609 498.246 302.086 494.079 298.304C494.079 298.139 493.97 298.084 493.86 297.975ZM438.713 378.832C438.713 382.888 435.424 386.177 431.367 386.177H379.18V355.644L412.51 321.382L412.729 321.163C419.143 314.146 422.651 305.046 422.651 295.563C422.651 274.787 405.986 257.903 385.484 257.903C379.728 257.903 374.082 259.273 368.929 261.849C363.776 259.273 358.13 257.903 352.374 257.903C331.872 257.903 315.207 274.787 315.207 295.563C315.207 305.046 318.716 314.201 325.129 321.163L325.349 321.382L358.678 355.644V386.177H306.546C302.489 386.177 299.2 382.888 299.2 378.832V276.924L368.929 215.857L438.658 276.979V378.832H438.713ZM368.929 336.786L340.15 307.184C337.244 304.005 335.709 299.839 335.709 295.508C335.709 286.024 343.165 278.35 352.374 278.35C356.102 278.35 359.665 279.611 362.57 281.913C366.298 284.873 371.615 284.873 375.343 281.913C378.248 279.611 381.811 278.35 385.484 278.35C394.694 278.35 402.149 286.024 402.149 295.508C402.149 299.784 400.614 303.95 397.709 307.184L368.929 336.786Z" fill="white"/>
<path d="M490.242 505.243C493.86 505.298 497.314 503.982 500 501.57C500.548 501.077 501.096 501.077 501.37 501.899L501.535 502.447C501.918 503.653 502.741 504.366 504.002 504.366H516.116C517.158 504.421 518.035 503.598 518.09 502.557C518.09 502.502 518.09 502.392 518.09 502.338V500.2C518.199 499.158 517.487 498.171 516.445 497.952L515.239 497.568C513.65 497.02 513.156 496.143 513.156 494.553V447.19C513.156 444.833 511.566 444.23 509.429 444.888L497.204 448.396C495.998 448.78 495.45 449.493 495.45 450.699V452.617C495.45 453.823 495.834 454.372 497.204 454.7C500.274 455.523 500.712 456.674 500.712 458.812V463.691C500.712 464.239 500.329 464.568 499.671 464.403C497.752 464.02 495.779 463.855 493.805 463.855C482.787 463.855 474.126 472.078 474.126 485.453C474.126 498.939 481.471 505.243 490.242 505.243ZM496.327 470.762C497.204 470.707 498.081 470.872 498.849 471.146C499.89 471.365 500.658 472.187 500.658 473.777V494.389C500.767 495.376 500.219 496.362 499.287 496.801C498.3 497.349 497.149 497.623 496.053 497.623C490.9 497.623 487.063 491.977 487.063 483.59C487.118 475.86 490.845 470.762 496.327 470.762Z" fill="white"/>
<path d="M402.643 472.077H405.109C405.603 472.077 406.041 472.461 406.041 472.955V473.009V495.046C406.041 501.734 410.098 505.188 417.06 505.188C424.844 505.188 428.791 501.186 428.791 496.91C428.791 495.54 428.078 494.772 426.872 494.772C424.954 494.772 424.406 496.526 421.391 496.526C419.307 496.526 418.43 495.54 418.43 493.511V473.064C418.43 472.571 418.814 472.132 419.307 472.132H419.362H426.05C427.092 472.187 428.024 471.42 428.133 470.378C428.133 470.268 428.133 470.159 428.133 470.049V466.541C428.133 465.28 427.311 464.567 426.05 464.567H419.472C418.979 464.567 418.54 464.184 418.54 463.69V463.635V458.373C418.54 456.564 417.608 455.577 416.018 455.577C414.593 455.577 413.661 456.125 412.455 457.222C409.276 460.292 405.877 463.087 402.314 465.664C401.053 466.486 400.56 467.199 400.56 468.35V469.994C400.45 471.036 401.163 471.968 402.204 472.132C402.369 472.132 402.478 472.132 402.643 472.077Z" fill="white"/>
<path d="M451.979 505.243C461.846 505.243 467.328 500.693 469.356 495.266C470.178 493.293 469.904 492.251 468.808 491.429C467.547 490.552 466.012 491.21 464.971 492.142C462.559 494.17 459.544 495.266 456.364 495.266C451.211 495.266 447.1 492.854 444.852 489.127C444.523 488.578 444.633 488.03 445.236 487.756L466.834 479.862C468.26 479.314 468.753 478.437 468.369 476.902C466.122 468.46 459.927 463.526 450.718 463.526C438.877 463.526 430.819 472.188 430.819 484.412C430.819 496.637 439.48 505.243 451.979 505.243ZM442.221 480.136C442.221 473.997 445.565 470.598 449.95 470.598C452.582 470.598 454.884 472.023 455.926 474.983C456.2 475.422 456.035 476.025 455.597 476.299C455.487 476.354 455.432 476.409 455.322 476.409L443.427 481.178C442.714 481.507 442.331 481.178 442.331 480.63L442.221 480.136Z" fill="white"/>
<path d="M220.975 468.35L223.167 469.227C224.428 469.611 225.305 469.556 225.963 468.35C230.623 459.141 234.35 455.304 237.365 455.304H237.694C239.503 455.304 240.38 456.564 240.38 458.702V493.896C240.38 495.65 239.887 496.527 238.133 497.02L235.282 497.733C234.076 498.062 233.638 498.665 233.638 500.035V502.338C233.583 503.379 234.35 504.256 235.337 504.311C235.447 504.311 235.556 504.311 235.666 504.311H258.525C259.512 504.421 260.444 503.653 260.499 502.612C260.499 502.502 260.499 502.393 260.499 502.283V499.981C260.499 498.61 260.115 498.007 258.909 497.678L256.058 496.966C254.304 496.472 253.811 495.595 253.811 493.841V458.648C253.811 456.4 254.688 455.249 256.607 455.249H256.826C259.841 455.249 263.514 459.086 268.283 468.296C268.941 469.502 269.818 469.666 271.079 469.173L273.271 468.296C274.368 467.802 274.642 466.925 274.313 465.664L269.544 448.671C269.16 447.136 268.338 446.752 267.241 446.752H266.529C265.706 446.807 264.939 447.081 264.281 447.629C263.459 448.177 262.527 448.506 261.485 448.506H232.596C231.609 448.506 230.623 448.177 229.8 447.629C228.923 447.081 228.43 446.752 227.553 446.752H226.84C225.744 446.752 224.922 447.136 224.538 448.671L219.769 465.664C219.549 466.98 219.878 467.857 220.975 468.35Z" fill="white"/>
<path d="M367.723 503.324C368.107 504.256 368.984 504.914 370.026 505.023C371.615 505.023 372.273 504.036 374.247 504.036C376.22 504.036 378.687 505.242 382.963 505.242C392.72 505.242 398.86 500.638 398.75 492.251C398.75 484.905 394.31 481.506 386.855 479.533L380.989 477.943C376.385 476.682 374.411 475.476 374.411 473.229C374.411 471.255 375.836 469.885 379.016 469.885C382.689 469.885 386.471 472.187 391.405 476.956C392.172 477.778 393.433 477.888 394.365 477.285L395.187 476.792C396.119 476.298 396.393 475.366 395.845 474.215L391.624 465.39C391.131 464.403 390.583 463.964 389.541 463.964C388.499 463.964 387.622 464.512 385.813 464.512C383.347 464.512 380.989 463.8 378.139 463.8C368.929 463.8 363.667 468.24 363.667 475.476C363.667 482.712 368.326 485.837 375.124 487.81L381.154 489.619C385.539 490.88 387.403 492.415 387.403 494.772C387.403 497.129 385.649 498.5 382.469 498.5C377.645 498.5 372.602 495.485 367.997 489.893C367.12 488.797 366.079 488.632 365.037 489.181L363.612 490.003C362.57 490.496 362.132 491.702 362.625 492.744C362.68 492.799 362.68 492.854 362.735 492.963L367.723 503.324Z" fill="white"/>
<path d="M315.043 473.667C317.729 474.379 318.277 475.476 318.277 477.723V492.963C318.277 500.747 321.621 505.242 329.569 505.242C333.955 505.242 337.683 504.146 340.369 501.953L341.794 500.857C342.452 500.363 342.89 500.692 343.055 501.514L343.219 502.227C343.603 503.762 344.316 504.365 345.85 504.365H357.91C358.952 504.42 359.884 503.652 359.994 502.611C359.994 502.501 359.994 502.391 359.994 502.337V500.199C360.048 499.157 359.336 498.17 358.294 497.951L357.198 497.567C355.608 497.019 355.06 496.197 355.06 494.552V466.102C355.06 463.799 353.525 463.142 351.387 463.799L339.327 467.363C338.286 467.582 337.628 468.569 337.683 469.61V471.584C337.683 472.79 338.176 473.228 339.437 473.667C342.068 474.379 342.616 475.476 342.616 477.723V491.921C342.616 493.018 342.397 493.73 341.246 494.388C339.108 495.649 336.696 496.307 334.284 496.361C331.817 496.361 330.885 494.936 330.885 491.976V466.102C330.885 463.799 329.35 463.142 327.212 463.799L315.152 467.363C313.891 467.746 313.398 468.459 313.398 469.61V471.584C313.288 472.79 313.782 473.283 315.043 473.667Z" fill="white"/>
<path d="M300.242 502.337V500.09C300.242 498.829 299.694 498.116 298.598 497.842L296.624 497.349C295.035 496.965 294.541 496.088 294.541 494.388V478.327C294.541 475.366 295.802 473.941 298.104 473.941C299.913 473.941 301.284 475.038 303.367 477.833C304.299 479.039 304.957 479.478 305.998 479.478C307.369 479.478 308.191 478.656 308.355 477.23L309.561 466.87C309.781 464.896 308.684 463.69 306.382 463.69C302.325 463.745 298.488 465.444 295.692 468.295C294.815 469.117 294.048 468.788 294.048 467.911V466.102C294.048 463.69 292.623 463.087 290.375 463.69L278.863 467.089C277.822 467.308 277.054 468.24 277.109 469.336V471.31C277.109 472.516 277.602 472.954 278.863 473.393C281.494 474.215 282.043 475.312 282.043 477.559V494.334C282.043 496.088 281.494 496.8 279.905 497.349L278.699 497.732C277.602 498.116 277.054 498.774 277.054 499.98V502.227C276.999 503.269 277.822 504.146 278.863 504.201C278.973 504.201 279.028 504.201 279.137 504.201H298.269C299.31 504.256 300.187 503.488 300.242 502.447C300.242 502.502 300.242 502.447 300.242 502.337Z" fill="white"/>
<path d="M418.923 518.07C414.099 518.07 410.81 520.702 410.81 524.758C410.81 528.815 414.044 531.501 418.923 531.501C423.802 531.501 427.036 528.815 427.036 524.758C427.036 520.702 423.747 518.07 418.923 518.07Z" fill="white"/>
<path d="M532.836 563.404C531.575 562.527 530.041 563.185 528.999 564.117C526.587 566.145 523.572 567.242 520.392 567.242C515.24 567.242 511.128 564.885 508.881 561.102C508.552 560.554 508.661 560.006 509.264 559.732L530.918 551.838C532.343 551.29 532.836 550.413 532.453 548.878C530.26 540.436 524.065 535.502 514.801 535.502C502.96 535.502 494.902 544.163 494.902 556.388C494.902 568.612 503.563 577.164 516.007 577.164C525.874 577.164 531.301 572.614 533.384 567.187C534.152 565.213 533.933 564.172 532.836 563.404ZM506.195 552.55V552.057C506.195 545.917 509.538 542.519 513.869 542.519C516.5 542.519 518.803 543.944 519.844 546.904C520.118 547.343 519.954 547.946 519.515 548.22C519.406 548.275 519.351 548.329 519.241 548.329L507.346 553.099C506.633 553.428 506.195 553.099 506.195 552.55Z" fill="white"/>
<path d="M489.201 566.693C487.283 566.693 486.734 568.447 483.719 568.447C481.636 568.447 480.759 567.461 480.759 565.432V544.985C480.759 544.492 481.143 544.053 481.636 543.998H481.691H488.379C489.421 544.108 490.352 543.286 490.462 542.244C490.462 542.135 490.462 542.025 490.462 541.915V538.462C490.462 537.201 489.695 536.488 488.379 536.488H481.801C481.307 536.488 480.869 536.105 480.869 535.611V535.556V530.239C480.869 528.43 479.937 527.443 478.347 527.443C476.922 527.443 475.99 527.992 474.784 529.088C471.605 532.158 468.206 534.953 464.643 537.53C463.382 538.352 462.888 539.065 462.888 540.216V541.861C462.779 542.902 463.546 543.834 464.588 543.944C464.697 543.944 464.862 543.944 464.972 543.944H467.438C467.932 543.944 468.37 544.327 468.37 544.821V544.876V566.967C468.37 573.655 472.427 577.109 479.389 577.109C487.173 577.109 491.12 573.107 491.12 568.831C491.12 567.516 490.407 566.693 489.201 566.693Z" fill="white"/>
<path d="M429.065 569.818L427.859 569.435C426.324 568.886 425.776 568.064 425.776 566.42V538.133C425.776 535.721 424.241 535.118 422.048 535.721L410.043 539.285C409.001 539.504 408.234 540.436 408.289 541.532V543.506C408.289 544.712 408.782 545.15 410.043 545.589C412.729 546.411 413.277 547.507 413.277 549.7V566.42C413.277 568.174 412.729 568.886 411.139 569.435L409.933 569.818C408.837 570.202 408.289 570.86 408.289 572.066V574.313C408.234 575.355 409.056 576.232 410.098 576.287C410.207 576.287 410.262 576.287 410.372 576.287H428.736C429.778 576.342 430.655 575.574 430.709 574.533C430.709 574.478 430.709 574.368 430.709 574.313V572.066C430.764 570.86 430.161 570.257 429.065 569.818Z" fill="white"/>
<path d="M458.447 566.693C456.528 566.693 455.98 568.447 452.965 568.447C450.882 568.447 450.005 567.461 450.005 565.432V544.985C450.005 544.492 450.389 544.053 450.882 544.053H450.937H457.625C458.666 544.163 459.598 543.341 459.708 542.299C459.708 542.189 459.708 542.08 459.708 541.97V538.462C459.708 537.201 458.94 536.488 457.625 536.488H451.047C450.553 536.488 450.115 536.105 450.115 535.611V535.556V530.239C450.115 528.43 449.183 527.443 447.593 527.443C446.168 527.443 445.236 527.992 444.03 529.088C440.85 532.158 437.452 534.953 433.889 537.53C432.628 538.352 432.134 539.065 432.134 540.216V541.861C432.025 542.902 432.792 543.834 433.779 543.944C433.889 543.944 434.053 543.944 434.163 543.944H436.629C437.123 543.944 437.561 544.327 437.561 544.821V544.876V566.967C437.561 573.655 441.618 577.109 448.58 577.109C456.364 577.109 460.311 573.107 460.311 568.831C460.311 567.516 459.598 566.693 458.447 566.693Z" fill="white"/>
<path d="M567.262 535.721C563.206 535.776 559.369 537.476 556.573 540.326C555.696 541.148 554.928 540.82 554.928 539.942V538.133C554.928 535.721 553.503 535.118 551.255 535.721L539.744 539.175C538.702 539.394 537.935 540.326 537.989 541.423V543.451C537.989 544.657 538.483 545.095 539.744 545.534C542.43 546.356 542.978 547.453 542.978 549.645V566.42C542.978 568.174 542.43 568.886 540.84 569.435L539.634 569.818C538.538 570.202 537.989 570.86 537.989 572.066V574.313C537.935 575.355 538.757 576.232 539.798 576.287C539.908 576.287 539.963 576.287 540.073 576.287H559.204C560.246 576.342 561.123 575.574 561.178 574.533C561.178 574.478 561.178 574.368 561.178 574.313V572.066C561.178 570.805 560.629 570.092 559.533 569.818L557.56 569.325C555.97 568.941 555.476 568.064 555.476 566.365V550.248C555.476 547.288 556.737 545.863 559.04 545.863C560.849 545.863 562.219 546.959 564.302 549.755C565.234 550.961 565.892 551.399 566.934 551.399C568.304 551.399 569.181 550.577 569.291 549.152L570.497 538.791C570.661 536.927 569.565 535.721 567.262 535.721Z" fill="white"/>
<path d="M597.96 551.454L592.095 549.865C587.49 548.604 585.517 547.398 585.517 545.15C585.517 543.177 586.942 541.806 590.121 541.806C593.794 541.806 597.577 544.109 602.51 548.878C603.278 549.7 604.539 549.81 605.416 549.207L606.238 548.714C607.17 548.22 607.444 547.288 606.896 546.192L602.675 537.366C602.181 536.434 601.633 535.941 600.592 535.941C599.55 535.941 598.673 536.489 596.864 536.489C594.397 536.489 592.04 535.776 589.189 535.776C579.98 535.776 574.717 540.217 574.717 547.507C574.717 554.798 579.377 557.868 586.12 559.842L592.15 561.651C596.535 562.911 598.399 564.446 598.399 566.858C598.399 569.27 596.645 570.586 593.465 570.586C588.641 570.586 583.598 567.571 578.993 561.98C578.116 560.883 577.075 560.719 576.033 561.267L574.608 562.034C573.566 562.528 573.128 563.734 573.621 564.775C573.676 564.83 573.676 564.94 573.731 564.995L578.719 575.246C579.103 576.177 579.98 576.835 581.022 576.89C582.611 576.89 583.269 575.958 585.243 575.958C587.216 575.958 589.683 577.164 593.959 577.164C603.716 577.164 609.856 572.559 609.746 564.172C609.911 556.827 605.471 553.428 597.96 551.454Z" fill="white"/>
<path d="M210.724 535.502C198.335 535.502 189.783 544.273 189.783 556.388C189.783 568.503 198.335 577.164 210.724 577.164C223.112 577.164 231.664 568.503 231.664 556.388C231.664 544.273 223.112 535.502 210.724 535.502ZM212.861 569.106C207.051 569.106 202.007 561.157 202.007 552.167C202.007 546.685 204.639 543.56 208.586 543.56C214.396 543.56 219.44 551.509 219.44 560.499C219.494 565.981 216.918 569.106 212.861 569.106Z" fill="white"/>
<path d="M391.46 551.454L385.594 549.865C380.989 548.604 379.016 547.398 379.016 545.15C379.016 543.177 380.441 541.806 383.621 541.806C387.293 541.806 391.076 544.109 396.01 548.878C396.777 549.7 398.038 549.81 398.97 549.207L399.792 548.714C400.724 548.22 400.998 547.288 400.45 546.192L396.229 537.366C395.735 536.434 395.187 535.941 394.146 535.941C393.104 535.941 392.227 536.489 390.418 536.489C387.951 536.489 385.594 535.776 382.744 535.776C373.534 535.776 368.271 540.217 368.271 547.507C368.271 554.798 372.931 557.868 379.729 559.842L385.759 561.651C390.144 562.911 392.008 564.446 392.008 566.858C392.008 569.27 390.254 570.586 387.074 570.586C382.25 570.586 377.207 567.571 372.602 561.98C371.725 560.883 370.683 560.719 369.642 561.267L368.217 562.034C367.175 562.528 366.737 563.734 367.23 564.775C367.285 564.83 367.285 564.885 367.34 564.995L372.328 575.246C372.712 576.177 373.589 576.835 374.63 576.89C376.22 576.89 376.823 575.958 378.851 575.958C380.88 575.958 383.292 577.164 387.568 577.164C397.325 577.164 403.465 572.559 403.355 564.172C403.355 556.827 398.915 553.428 391.46 551.454Z" fill="white"/>
<path d="M185.562 520.538H164.896C163.909 520.428 162.977 521.196 162.922 522.237C162.922 522.347 162.922 522.456 162.922 522.566V524.868C162.922 526.239 163.415 526.677 164.512 527.171L166.266 527.829C167.911 528.377 168.459 529.254 168.459 531.008V542.246C168.459 542.739 168.075 543.178 167.582 543.178H167.527H148.066C147.573 543.178 147.134 542.794 147.134 542.301V542.246V531.008C147.134 529.254 147.683 528.377 149.272 527.829L151.081 527.171C152.178 526.677 152.671 526.239 152.671 524.868V522.566C152.781 521.579 152.013 520.647 151.027 520.593C150.917 520.593 150.807 520.593 150.698 520.593H130.086C129.044 520.483 128.112 521.25 128.003 522.292C128.003 522.402 128.003 522.456 128.003 522.566V524.868C128.003 526.239 128.496 526.677 129.647 527.171L131.402 527.829C133.101 528.377 133.649 529.254 133.649 531.008V565.873C133.649 567.627 133.101 568.504 131.456 569.052L129.647 569.655C128.441 570.148 128.003 570.587 128.003 571.957V574.26C127.948 575.301 128.715 576.178 129.812 576.288C129.921 576.288 129.976 576.288 130.086 576.288H150.752C151.739 576.343 152.671 575.63 152.726 574.589C152.726 574.479 152.726 574.369 152.726 574.26V571.957C152.726 570.587 152.233 570.148 151.136 569.655L149.327 568.997C147.737 568.449 147.189 567.572 147.189 565.818V551.346C147.189 550.852 147.573 550.414 148.066 550.414H148.121H167.582C168.075 550.414 168.514 550.798 168.514 551.291V551.346V565.873C168.514 567.627 167.965 568.504 166.321 569.052L164.567 569.71C163.47 570.203 162.977 570.642 162.977 572.012V574.315C162.922 575.301 163.635 576.233 164.676 576.288C164.786 576.288 164.841 576.288 164.95 576.288H185.562C186.604 576.398 187.481 575.685 187.59 574.643C187.59 574.534 187.59 574.424 187.59 574.315V572.012C187.59 570.642 187.097 570.203 185.946 569.71L184.192 569.052C182.547 568.504 181.999 567.627 181.999 565.873V531.008C181.999 529.254 182.547 528.377 184.192 527.829L185.946 527.171C187.152 526.677 187.59 526.239 187.59 524.868V522.566C187.645 521.525 186.878 520.647 185.891 520.593C185.781 520.538 185.672 520.538 185.562 520.538Z" fill="white"/>
<path d="M362.242 563.404C360.981 562.527 359.446 563.185 358.404 564.117C355.992 566.145 352.977 567.242 349.853 567.242C344.7 567.242 340.588 564.885 338.341 561.102C338.012 560.554 338.121 560.006 338.724 559.732L360.323 551.838C361.748 551.29 362.242 550.413 361.858 548.878C359.61 540.436 353.416 535.502 344.261 535.502C332.42 535.502 324.307 544.163 324.307 556.388C324.307 568.612 332.969 577.164 345.412 577.164C355.28 577.164 360.761 572.614 362.79 567.187C363.612 565.213 363.338 564.172 362.242 563.404ZM335.655 552.55V552.057C335.655 545.917 338.999 542.519 343.329 542.519C345.96 542.519 348.263 543.944 349.304 546.904C349.578 547.343 349.414 547.946 348.975 548.22C348.866 548.275 348.811 548.329 348.701 548.329L336.806 553.099C336.038 553.428 335.655 553.099 335.655 552.55Z" fill="white"/>
<path d="M307.532 551.454L301.667 549.865C297.062 548.604 295.089 547.398 295.089 545.15C295.089 543.177 296.514 541.806 299.693 541.806C303.366 541.806 307.149 544.109 312.082 548.878C312.85 549.7 314.111 549.81 315.042 549.207L315.865 548.714C316.797 548.22 317.071 547.288 316.523 546.192L312.192 537.366C311.699 536.434 311.15 535.941 310.109 535.941C309.067 535.941 308.19 536.489 306.381 536.489C303.914 536.489 301.557 535.776 298.707 535.776C289.497 535.776 284.235 540.217 284.235 547.507C284.235 554.798 288.894 557.868 295.692 559.842L301.722 561.651C306.107 562.911 307.971 564.446 307.971 566.858C307.971 569.27 306.217 570.586 303.037 570.586C298.213 570.586 293.17 567.571 288.565 561.98C287.688 560.883 286.647 560.719 285.605 561.267L284.235 562.034C283.193 562.528 282.755 563.734 283.248 564.775C283.303 564.83 283.303 564.885 283.358 564.995L288.346 575.246C288.73 576.177 289.607 576.835 290.648 576.89C292.238 576.89 292.841 575.958 294.869 575.958C296.898 575.958 299.31 577.164 303.585 577.164C313.343 577.164 319.483 572.559 319.373 564.172C319.428 556.827 314.988 553.428 307.532 551.454Z" fill="white"/>
<path d="M278.918 569.818L277.822 569.435C276.232 568.886 275.684 568.064 275.684 566.42V538.078C275.684 535.776 274.149 535.118 272.011 535.776L259.951 539.339C258.909 539.559 258.252 540.545 258.306 541.587V543.56C258.306 544.766 258.8 545.205 260.061 545.643C262.692 546.356 263.24 547.452 263.24 549.7V563.843C263.24 564.939 263.021 565.652 261.87 566.31C259.732 567.571 257.32 568.229 254.853 568.283C252.386 568.283 251.454 566.858 251.454 563.898V538.024C251.454 535.721 249.919 535.063 247.781 535.721L235.721 539.284C234.46 539.668 233.967 540.381 233.967 541.532V543.505C233.967 544.711 234.46 545.15 235.721 545.589C238.407 546.301 238.956 547.398 238.956 549.645V564.83C238.956 572.614 242.299 577.109 250.248 577.109C254.634 577.109 258.361 576.013 261.047 573.82L262.473 572.724C263.13 572.23 263.569 572.559 263.733 573.381L263.898 574.094C264.282 575.629 264.994 576.232 266.529 576.232H278.589C279.631 576.287 280.563 575.519 280.672 574.478C280.672 574.368 280.672 574.259 280.672 574.149V572.011C280.727 570.969 279.96 569.983 278.918 569.818Z" fill="white"/>
</svg>
