<svg width="1455" height="298" viewBox="0 0 1455 298" fill="none" xmlns="http://www.w3.org/2000/svg">
<path d="M52.2817 55.9488C52.2802 53.5679 52.9848 51.2401 54.3064 49.2598C55.628 47.2794 57.5072 45.7355 59.7063 44.8234C61.9055 43.9112 64.3258 43.6717 66.6611 44.1352C68.9963 44.5988 71.1417 45.7445 72.8257 47.4274C74.5098 49.1104 75.6569 51.255 76.1219 53.59C76.587 55.9249 76.3491 58.3454 75.4383 60.5451C74.5276 62.7449 72.9849 64.6251 71.0054 65.948C69.0259 67.2709 66.6986 67.977 64.3178 67.977C61.127 67.977 58.0667 66.71 55.8098 64.4545C53.5528 62.199 52.2838 59.1396 52.2817 55.9488ZM272.268 196.393C271.319 197.479 270.165 198.368 268.871 199.008C267.578 199.648 266.171 200.026 264.731 200.121C263.292 200.217 261.847 200.027 260.481 199.563C259.115 199.1 257.853 198.371 256.769 197.419L234.154 177.61V267.488C234.146 275.393 231.002 282.972 225.412 288.562C219.822 294.152 212.243 297.296 204.338 297.304H70.6571C62.7588 297.285 55.1899 294.137 49.6086 288.548C44.0273 282.959 40.8887 275.386 40.8804 267.488V177.602L18.2267 197.419C16.0352 199.338 13.1711 200.308 10.2643 200.116C7.35761 199.923 4.64642 198.584 2.72718 196.393C0.807938 194.201 -0.16213 191.337 0.0303778 188.43C0.222886 185.523 1.5622 182.812 3.75369 180.893L130.257 70.077C132.259 68.3182 134.833 67.3483 137.498 67.3483C140.163 67.3483 142.736 68.3182 144.738 70.077L271.242 180.893C272.328 181.842 273.217 182.997 273.857 184.29C274.497 185.583 274.875 186.99 274.971 188.43C275.066 189.87 274.876 191.314 274.413 192.68C273.949 194.047 273.22 195.308 272.268 196.393ZM168.324 190.774C171.401 187.343 173.093 182.892 173.073 178.284C173.073 168.144 165.072 159.901 155.223 159.901C151.265 159.89 147.423 161.237 144.339 163.717C142.396 165.265 139.986 166.108 137.502 166.108C135.018 166.108 132.607 165.265 130.665 163.717C127.577 161.238 123.733 159.891 119.773 159.901C109.923 159.901 101.915 168.144 101.915 178.284C101.899 182.894 103.597 187.345 106.679 190.774L137.498 222.431L168.324 190.774ZM212.206 158.365L137.513 92.9423L62.8133 158.365V267.488C62.8133 269.566 63.6388 271.559 65.1084 273.029C66.5779 274.499 68.571 275.324 70.6492 275.324H126.504V242.64L90.7954 205.96C90.7171 205.882 90.6387 205.804 90.5682 205.717C83.713 198.231 79.9206 188.442 79.9427 178.291C79.9427 156.037 97.8008 137.936 119.765 137.936C125.921 137.949 131.99 139.395 137.49 142.16C142.991 139.389 149.063 137.94 155.223 137.928C177.163 137.928 195.045 156.03 195.045 178.284C195.064 188.434 191.272 198.221 184.419 205.709C184.348 205.792 184.272 205.87 184.192 205.945L148.484 242.625V275.324H204.338C206.417 275.324 208.41 274.499 209.879 273.029C211.349 271.559 212.174 269.566 212.174 267.488L212.206 158.365ZM22.8577 55.9488C22.8577 28.6091 41.4525 6.37855 64.3178 6.37855C87.1831 6.37855 105.793 28.6091 105.793 55.9488C105.793 83.2884 87.1909 105.519 64.3334 105.519C41.476 105.519 22.8577 83.2806 22.8577 55.9488ZM44.7984 55.9488C44.7984 70.9076 53.7236 83.5548 64.2943 83.5548C74.865 83.5548 83.7823 70.9076 83.7823 55.9488C83.7823 40.9899 74.8806 28.3427 64.3178 28.3427C53.7549 28.3427 44.8219 40.9821 44.8219 55.9488H44.7984ZM169.194 55.9488C169.194 28.6091 187.797 6.37855 210.654 6.37855C233.512 6.37855 252.114 28.6091 252.114 55.9488C252.114 83.2884 233.519 105.519 210.678 105.519C187.836 105.519 169.218 83.2806 169.218 55.9488H169.194ZM191.135 55.9488C191.135 70.9076 200.06 83.5548 210.623 83.5548C221.186 83.5548 230.119 70.9076 230.119 55.9488C230.119 40.9899 221.186 28.3427 210.623 28.3427C200.06 28.3427 191.205 40.9821 191.205 55.9488H191.135ZM210.623 67.977C213.004 67.977 215.331 67.2709 217.311 65.948C219.29 64.6251 220.833 62.7449 221.743 60.5451C222.654 58.3454 222.892 55.9249 222.427 53.59C221.962 51.255 220.815 49.1104 219.131 47.4274C217.447 45.7445 215.301 44.5988 212.966 44.1352C210.631 43.6717 208.211 43.9112 206.011 44.8234C203.812 45.7355 201.933 47.2794 200.611 49.2598C199.29 51.2401 198.585 53.5679 198.587 55.9488C198.588 57.5333 198.902 59.1021 199.51 60.5651C200.119 62.028 201.011 63.3564 202.134 64.4739C203.258 65.5915 204.591 66.4762 206.057 67.0773C207.523 67.6785 209.093 67.9842 210.678 67.977H210.623ZM1413.21 203.656V181.873H1421.49V178.965H1401.55V181.873H1409.83V203.656H1413.21ZM1428.24 203.656H1431.56V181.567L1439.35 203.656H1442.61L1450.71 181.426V203.656H1454.06V178.965H1448.42L1441.27 199.339L1434.29 178.965H1428.24V203.656ZM414.953 133.917C417.805 133.917 419.412 132.13 419.412 129.458V124.294C419.412 121.261 418.526 119.843 415.846 119.122L409.429 117.516C405.511 116.442 404.437 114.483 404.437 110.565V31.7514C404.437 26.7677 406.396 24.0878 410.706 24.0878H411.231C418.009 24.0878 426.206 32.6447 436.894 53.3159C438.328 55.9958 440.287 56.3484 443.163 55.2749L448.146 53.3159C450.646 52.2502 451.187 50.2912 450.497 47.4389L439.73 9.47375C438.837 6.08861 437.051 5.19532 434.559 5.19532H432.992C431.033 5.19532 429.787 5.90839 428.008 7.1543C426.171 8.44001 423.981 9.12445 421.739 9.11329H356.857C354.615 9.12548 352.425 8.44095 350.589 7.1543C348.637 5.90839 347.564 5.19532 345.597 5.19532H344.03C341.53 5.19532 339.751 6.08861 338.858 9.47375L328.154 47.4389C327.261 50.2912 327.966 52.2502 330.505 53.3159L335.497 55.2749C338.349 56.1682 340.316 55.9958 341.765 53.3159C352.281 32.6447 360.65 24.0878 367.428 24.0878H368.141C372.247 24.0878 374.206 26.9401 374.206 31.7514V110.503C374.206 114.421 373.125 116.38 369.207 117.453L362.727 119.122C360.054 119.843 358.989 121.261 358.989 124.294V129.458C358.989 132.13 360.556 133.917 363.62 133.917H414.953ZM503.899 133.917C504.494 133.953 505.09 133.863 505.648 133.652C506.205 133.441 506.712 133.114 507.133 132.692C507.555 132.27 507.882 131.764 508.093 131.207C508.304 130.649 508.394 130.053 508.358 129.458V124.466C508.358 121.622 507.112 120.016 504.612 119.483L500.153 118.409C496.588 117.516 495.522 115.557 495.522 111.811V75.7816C495.522 69.1837 498.375 65.971 503.546 65.971C507.652 65.971 510.669 68.4706 515.3 74.708C517.44 77.3801 518.866 78.4536 521.185 78.4536C524.218 78.4536 526.177 76.667 526.529 73.4621L529.201 50.2912C529.734 45.8326 527.25 43.1605 522.071 43.1605C512.667 43.1605 504.252 47.4389 498.006 53.4961C496.047 55.2749 494.269 54.5697 494.269 52.6107V48.5125C494.269 43.1605 491.064 41.7344 486.072 43.1605L460.214 50.8241C457.542 51.5371 456.296 53.3159 456.296 55.8156V60.2742C456.296 62.9463 457.369 64.012 460.214 64.9053C466.263 66.684 467.517 69.1837 467.517 74.183V111.796C467.517 115.714 466.263 117.328 462.705 118.574L460.033 119.467C457.542 120.352 456.288 121.818 456.288 124.451V129.442C456.288 132.114 458.074 133.901 460.927 133.901L503.899 133.917ZM574.195 135.875C583.998 135.875 592.383 133.384 598.44 128.565L601.645 126.073C603.079 124.999 604.144 125.72 604.505 127.499L604.85 129.066C605.751 132.459 607.349 133.885 610.742 133.885H637.855C638.476 133.935 639.102 133.849 639.687 133.633C640.272 133.418 640.804 133.078 641.245 132.637C641.686 132.195 642.026 131.664 642.242 131.079C642.457 130.493 642.543 129.868 642.494 129.246V124.435C642.494 121.763 641.06 120.164 638.576 119.451L636.076 118.558C632.51 117.312 631.265 115.526 631.265 111.78V48.3087C631.265 43.137 627.872 41.7108 623.06 43.137L595.948 51.1845C593.268 52.07 592.21 53.6764 592.21 56.1682V60.6268C592.21 63.2989 593.268 64.3724 596.128 65.2657C602.013 66.8329 603.259 69.3639 603.259 74.3554V106.075C603.259 108.575 602.726 110.174 600.226 111.6C595.457 114.372 590.069 115.905 584.555 116.058C579.03 116.058 576.891 112.853 576.891 106.256V48.3322C576.891 43.1605 573.506 41.7344 568.695 43.1605L541.582 51.1845C538.73 52.07 537.664 53.6764 537.664 56.1682V60.6268C537.664 63.2989 538.73 64.3724 541.582 65.2657C547.639 66.8329 548.893 69.3639 548.893 74.3554V108.395C548.893 125.861 556.361 135.844 574.195 135.844V135.875ZM694.085 135.875C716.026 135.875 729.739 125.54 729.559 106.82C729.559 90.4191 719.576 82.7556 702.823 78.3048L689.635 74.7394C679.299 71.8871 674.848 69.2542 674.848 64.2235C674.848 59.7649 678.053 56.7324 685.176 56.7324C693.38 56.7324 701.929 61.9041 712.986 72.6002C713.824 73.4761 714.945 74.0279 716.151 74.1584C717.356 74.2888 718.569 73.9895 719.576 73.3132L721.362 72.2476C723.502 71.174 724.034 69.0348 722.789 66.543L713.338 46.7259C712.273 44.5945 710.988 43.5131 708.707 43.5131C706.427 43.5131 704.46 44.759 700.331 44.759C694.799 44.759 689.454 43.1918 683.037 43.1918C662.365 43.1918 650.596 53.167 650.596 69.3953C650.596 85.4355 661.112 92.5662 676.259 97.017L689.807 101.1C699.618 103.952 703.912 107.368 703.912 112.689C703.912 118.01 699.994 121.066 692.855 121.066C681.987 121.066 670.758 114.295 660.422 101.82C658.455 99.3208 656.144 98.9603 653.824 100.214L650.612 102.001C648.12 103.419 647.227 105.919 648.653 108.591L659.889 131.581C660.955 133.721 662.734 135.327 665.053 135.327C668.619 135.327 670.045 133.188 674.456 133.188C678.868 133.188 684.463 135.844 694.085 135.844V135.875ZM770.666 135.875C788.133 135.875 797.042 126.958 797.042 117.343C797.042 114.311 795.475 112.532 792.764 112.532C788.485 112.532 787.278 116.45 780.469 116.45C775.83 116.45 773.871 114.319 773.871 109.68V63.8317C773.861 63.5485 773.91 63.2663 774.014 63.0027C774.118 62.7391 774.275 62.4998 774.476 62.2998C774.677 62.0997 774.917 61.9433 775.181 61.8401C775.445 61.737 775.727 61.6894 776.01 61.7004H790.985C791.607 61.7488 792.232 61.6617 792.818 61.4452C793.403 61.2287 793.934 60.8879 794.375 60.4462C794.816 60.0045 795.156 59.4725 795.372 58.8869C795.587 58.3012 795.673 57.6758 795.624 57.0536V49.2177C795.624 46.3732 793.829 44.759 790.985 44.759H776.191C775.907 44.7712 775.624 44.7244 775.36 44.6217C775.095 44.519 774.855 44.3625 774.654 44.1623C774.453 43.962 774.295 43.7222 774.192 43.4581C774.088 43.194 774.04 42.9112 774.051 42.6277V30.8737C774.051 26.7834 771.912 24.6441 768.347 24.6441C765.142 24.6441 763.003 25.8901 760.323 28.3819C753.38 34.7917 745.881 41.5698 737.512 47.2744C734.668 49.0531 733.594 50.6674 733.594 53.3316V57.0693C733.594 60.1097 735.381 61.716 738.233 61.716H743.718C744.001 61.705 744.283 61.7526 744.547 61.8558C744.81 61.959 745.05 62.1156 745.25 62.3158C745.45 62.516 745.607 62.7553 745.71 63.0189C745.813 63.2825 745.861 63.5646 745.85 63.8474V113.214C745.881 128.181 754.986 135.844 770.666 135.844V135.875ZM886.811 105.018C883.951 103.051 880.542 104.485 878.254 106.585C872.881 111.148 866.042 113.619 858.993 113.543C847.411 113.543 838.142 108.199 833.134 99.8223C832.421 98.5764 832.594 97.3226 834.028 96.7819L882.524 79.1589C885.737 77.913 886.811 75.954 885.917 72.561C880.926 53.6685 867.025 42.6198 846.346 42.6198C819.79 42.6198 801.61 62.0452 801.61 89.3143C801.61 116.583 821.036 135.836 849.018 135.836C871.115 135.836 883.418 125.65 888.049 113.559C889.828 109.108 889.302 106.788 886.811 105.018ZM844.395 58.3152C850.272 58.3152 855.435 61.528 857.755 68.118C858.468 69.6852 857.755 70.7979 856.329 71.3308L829.585 82.019C828.018 82.7321 827.093 82.019 827.093 80.7731V79.7074C827.093 65.971 834.576 58.3074 844.395 58.3074V58.3152ZM934.931 135.891C944.193 135.891 950.971 132.678 956.872 127.695C958.118 126.621 959.372 126.621 959.897 128.4L960.257 129.654C961.158 132.326 962.929 133.932 965.789 133.932H993.058C995.723 133.932 997.509 132.146 997.509 129.293V124.482C997.509 121.81 996.263 120.211 993.764 119.498L991.099 118.605C987.526 117.359 986.46 115.392 986.46 111.827V5.72816C986.46 0.384041 982.895 -0.869711 978.076 0.564269L950.65 8.40022C947.978 9.29352 946.732 10.8999 946.732 13.5719V17.8425C946.732 20.5224 947.618 21.7605 950.65 22.4814C957.593 24.268 958.486 26.9401 958.486 31.7514V42.6277C958.486 43.8736 957.593 44.5945 956.135 44.1949C951.794 43.3417 947.379 42.9217 942.955 42.9411C918.178 42.9411 898.745 61.3007 898.745 91.2419C898.745 121.763 915.326 135.844 934.931 135.844V135.891ZM948.158 118.738C936.569 118.738 928.012 106.075 928.012 87.3945C928.012 70.1083 936.381 58.6992 948.683 58.6992C950.624 58.6332 952.559 58.9336 954.388 59.5847C956.739 60.1253 958.486 61.9354 958.486 65.4695V111.6C958.486 114.452 957.428 115.886 955.461 116.952C953.215 118.15 950.704 118.764 948.158 118.738ZM375.115 294.898C377.975 294.898 379.574 293.112 379.574 290.44V285.244C379.574 282.212 378.508 281.146 376.016 280.073L371.918 278.647C368.345 277.401 367.107 275.434 367.107 271.516V239.075C367.097 238.791 367.146 238.509 367.25 238.245C367.354 237.981 367.511 237.741 367.711 237.54C367.912 237.34 368.152 237.183 368.416 237.079C368.68 236.975 368.962 236.926 369.246 236.936H412.916C413.199 236.926 413.481 236.974 413.745 237.079C414.008 237.183 414.248 237.34 414.448 237.541C414.648 237.742 414.804 237.981 414.907 238.245C415.011 238.509 415.058 238.792 415.047 239.075V271.516C415.047 275.434 413.801 277.401 410.056 278.647L406.138 280.073C403.638 281.146 402.572 282.212 402.572 285.244V290.408C402.572 293.08 404.14 294.867 407.031 294.867H453.365C456.397 294.867 458.004 293.08 458.004 290.408V285.244C458.004 282.212 456.938 281.146 454.266 280.073L450.348 278.647C446.603 277.401 445.357 275.434 445.357 271.516V193.478C445.357 189.56 446.603 187.601 450.348 186.355L454.266 184.921C456.938 183.855 458.004 182.789 458.004 179.757V174.585C458.004 171.913 456.397 170.126 453.365 170.126H407.031C404.179 170.126 402.572 171.913 402.572 174.585V179.757C402.572 182.789 403.638 183.855 406.138 184.921L410.056 186.355C413.801 187.601 415.047 189.56 415.047 193.478V218.639C415.059 218.922 415.013 219.205 414.91 219.47C414.807 219.734 414.651 219.975 414.45 220.176C414.25 220.377 414.01 220.534 413.746 220.638C413.482 220.741 413.199 220.789 412.916 220.778H369.246C368.962 220.789 368.679 220.741 368.415 220.638C368.15 220.534 367.91 220.377 367.709 220.176C367.508 219.975 367.351 219.735 367.247 219.47C367.144 219.206 367.096 218.923 367.107 218.639V193.478C367.107 189.56 368.345 187.601 371.918 186.355L376.016 184.921C378.508 183.855 379.574 182.789 379.574 179.757V174.585C379.574 171.913 378.007 170.126 375.115 170.126H328.781C325.929 170.126 324.15 171.913 324.15 174.585V179.757C324.15 182.789 325.216 183.855 327.888 184.921L331.806 186.355C335.551 187.601 336.79 189.56 336.79 193.478V271.547C336.79 275.465 335.551 277.432 331.806 278.678L327.888 280.104C325.216 281.178 324.15 282.243 324.15 285.276V290.44C324.15 293.112 325.929 294.898 328.781 294.898H375.115ZM509.894 296.857C537.695 296.857 556.909 277.432 556.909 250.335C556.909 223.239 537.656 203.641 509.894 203.641C482.131 203.641 462.839 223.231 462.839 250.335C462.862 277.252 482.107 296.857 509.917 296.857H509.894ZM514.705 278.835C501.689 278.835 490.288 261.008 490.288 240.869C490.288 228.567 496.165 221.616 505.074 221.616C518.09 221.616 529.491 239.443 529.491 259.582C529.515 271.923 523.81 278.858 514.728 278.858L514.705 278.835ZM598.55 296.857C608.352 296.857 616.729 294.365 622.778 289.546L625.999 287.055C627.425 285.989 628.491 286.694 628.843 288.473L629.212 290.079C630.089 293.464 631.696 294.898 635.081 294.898H662.177C665.03 294.898 666.809 293.112 666.809 290.259V285.448C666.809 282.776 665.39 281.178 662.891 280.464L660.399 279.571C656.833 278.325 655.587 276.539 655.587 272.793V209.322C655.587 204.15 652.194 202.724 647.391 204.15L620.294 212.174C617.622 213.06 616.549 214.674 616.549 217.158V221.616C616.549 224.289 617.622 225.362 620.467 226.248C626.344 227.862 627.597 230.354 627.597 235.345V267.073C627.597 269.565 627.057 271.171 624.565 272.558C619.793 275.325 614.406 276.857 608.893 277.017C603.408 277.017 601.237 273.812 601.237 267.214V209.345C601.237 204.174 597.852 202.748 593.041 204.174L565.944 212.198C563.1 213.083 562.026 214.697 562.026 217.181V221.64C562.026 224.312 563.107 225.386 565.944 226.271C572.009 227.885 573.255 230.377 573.255 235.369V269.416C573.302 286.874 580.785 296.857 598.612 296.857H598.55ZM718.44 296.857C740.38 296.857 754.085 286.514 753.905 267.802C753.905 251.409 743.914 243.737 727.177 239.287L713.973 235.729C703.638 232.869 699.187 230.197 699.187 225.205C699.187 220.747 702.399 217.722 709.522 217.722C717.719 217.722 726.276 222.886 737.332 233.59C738.171 234.463 739.291 235.012 740.495 235.141C741.699 235.27 742.909 234.97 743.914 234.295L745.709 233.229C747.848 232.156 748.381 230.017 747.135 227.525L737.677 207.739C736.619 205.6 735.326 204.534 733.054 204.534C730.781 204.534 728.775 205.78 724.677 205.78C719.145 205.78 713.801 204.213 707.391 204.213C686.712 204.213 674.95 214.188 674.95 230.416C674.95 246.456 685.458 253.587 700.613 258.046L714.153 262.136C723.956 264.988 728.258 268.405 728.258 273.726C728.258 279.046 724.34 282.102 717.202 282.102C706.333 282.102 695.104 275.324 684.768 262.849C682.802 260.357 680.49 260.005 678.171 261.282L674.966 263.061C672.466 264.495 671.573 266.979 672.999 269.659L684.228 292.649C685.301 294.789 687.08 296.395 689.4 296.395C692.965 296.395 694.391 294.256 698.803 294.256C703.214 294.256 708.88 296.857 718.502 296.857H718.44ZM849.982 266.023C847.129 264.064 843.713 265.49 841.425 267.59C836.052 272.146 829.216 274.614 822.172 274.54C810.583 274.54 801.328 269.196 796.313 260.812C795.592 259.566 795.773 258.32 797.199 257.787L845.68 240.133C848.892 238.887 849.958 236.928 849.073 233.551C844.073 214.658 830.172 203.602 809.493 203.602C782.937 203.602 764.758 223.027 764.758 250.296C764.758 277.565 784.183 296.818 812.165 296.818C834.271 296.818 846.573 286.631 851.212 274.54C853.077 270.121 852.56 267.802 850.044 266.023H849.982ZM807.558 219.321C813.443 219.321 818.607 222.533 820.926 229.123C821.639 230.738 820.926 231.803 819.5 232.336L792.764 243.024C791.196 243.737 790.264 243.024 790.264 241.786V240.713C790.327 226.984 797.818 219.321 807.621 219.321H807.558ZM906.847 296.857C928.788 296.857 942.493 286.514 942.313 267.802C942.313 251.409 932.33 243.737 915.569 239.287L902.381 235.729C892.045 232.869 887.594 230.197 887.594 225.205C887.594 220.747 890.799 217.722 897.93 217.722C906.126 217.722 914.683 222.886 925.74 233.59C926.58 234.463 927.701 235.013 928.906 235.142C930.112 235.27 931.324 234.971 932.33 234.295L934.116 233.229C936.255 232.156 936.788 230.017 935.535 227.525L926.084 207.739C925.027 205.6 923.734 204.534 921.453 204.534C919.173 204.534 917.175 205.78 913.077 205.78C907.592 205.78 902.208 204.213 895.791 204.213C875.119 204.213 863.35 214.188 863.35 230.416C863.35 246.456 873.866 253.587 889.02 258.046L902.569 262.136C912.372 264.988 916.673 268.405 916.673 273.726C916.673 279.046 912.755 282.102 905.625 282.102C894.748 282.102 883.527 275.324 873.184 262.849C871.217 260.357 868.913 260.005 866.594 261.282L863.381 263.061C860.889 264.495 859.996 266.979 861.422 269.659L872.651 292.649C873.717 294.789 875.503 296.395 877.823 296.395C881.388 296.395 882.806 294.256 887.226 294.256C891.645 294.256 897.279 296.857 906.91 296.857H906.847ZM999.351 294.898C999.945 294.934 1000.54 294.843 1001.1 294.631C1001.65 294.419 1002.16 294.092 1002.58 293.671C1003 293.25 1003.33 292.744 1003.54 292.187C1003.75 291.63 1003.84 291.034 1003.81 290.44V285.448C1003.81 282.776 1002.56 281.358 1000.07 280.464L997.392 279.571C994.006 278.325 992.753 276.539 992.753 272.793V209.526C992.753 204.174 989.368 202.748 984.376 204.174L957.561 212.198C956.412 212.406 955.379 213.028 954.657 213.947C953.936 214.865 953.575 216.015 953.643 217.181V221.64C953.643 224.312 954.709 225.386 957.561 226.271C963.627 228.058 964.872 230.557 964.872 235.549V272.793C964.872 276.711 963.626 278.325 960.061 279.571L957.389 280.464C954.889 281.358 953.643 282.815 953.643 285.448V290.44C953.643 293.112 955.422 294.898 958.282 294.898H999.351ZM977.308 194.723C988.177 194.723 995.487 188.666 995.487 179.577C995.487 170.487 988.177 164.61 977.308 164.61C966.44 164.61 959.121 170.487 959.121 179.577C959.121 188.666 966.44 194.723 977.308 194.723ZM1043.91 296.857C1061.38 296.857 1070.28 287.94 1070.28 278.325C1070.28 275.285 1068.71 273.506 1066.01 273.506C1061.73 273.506 1060.49 277.424 1053.72 277.424C1049.08 277.424 1047.12 275.277 1047.12 270.646V224.845C1047.11 224.562 1047.16 224.279 1047.26 224.016C1047.37 223.752 1047.52 223.513 1047.72 223.313C1047.92 223.113 1048.16 222.956 1048.43 222.853C1048.69 222.75 1048.97 222.703 1049.26 222.714H1064.22C1067.08 222.714 1068.86 220.927 1068.86 218.075V210.239C1068.86 207.394 1067.08 205.788 1064.22 205.788H1049.44C1049.15 205.799 1048.87 205.751 1048.61 205.647C1048.34 205.544 1048.1 205.387 1047.9 205.186C1047.7 204.985 1047.54 204.745 1047.43 204.481C1047.33 204.216 1047.28 203.933 1047.29 203.649V191.895C1047.29 187.796 1045.16 185.626 1041.59 185.626C1038.38 185.626 1036.25 186.864 1033.57 189.364C1026.61 195.781 1019.14 202.552 1010.75 208.256C1007.91 210.051 1006.83 211.649 1006.83 214.321V218.059C1006.83 221.091 1008.62 222.698 1011.47 222.698H1016.96C1017.24 222.687 1017.52 222.734 1017.79 222.838C1018.05 222.941 1018.29 223.097 1018.49 223.297C1018.69 223.497 1018.85 223.737 1018.95 224C1019.06 224.264 1019.11 224.546 1019.1 224.829V274.196C1019.13 289.162 1028.22 296.857 1043.91 296.857H1043.91ZM1113.07 296.857C1130.54 296.857 1139.45 287.94 1139.45 278.325C1139.45 275.285 1137.88 273.506 1135.17 273.506C1130.89 273.506 1129.64 277.424 1122.87 277.424C1118.23 277.424 1116.27 275.277 1116.27 270.646V224.845C1116.26 224.562 1116.31 224.279 1116.41 224.016C1116.52 223.752 1116.68 223.513 1116.88 223.313C1117.08 223.113 1117.32 222.956 1117.58 222.853C1117.84 222.75 1118.13 222.703 1118.41 222.714H1133.38C1136.24 222.714 1138.02 220.927 1138.02 218.075V210.239C1138.02 207.394 1136.24 205.788 1133.38 205.788H1118.59C1118.31 205.799 1118.02 205.751 1117.76 205.647C1117.49 205.544 1117.25 205.387 1117.05 205.186C1116.85 204.985 1116.7 204.745 1116.59 204.48C1116.49 204.216 1116.44 203.933 1116.45 203.649V191.895C1116.45 187.796 1114.31 185.626 1110.75 185.626C1107.54 185.626 1105.4 186.864 1102.73 189.364C1095.78 195.781 1088.29 202.552 1079.91 208.256C1077.06 210.051 1075.99 211.649 1075.99 214.321V218.059C1075.99 221.091 1077.77 222.698 1080.63 222.698H1086.12C1086.4 222.686 1086.68 222.732 1086.95 222.835C1087.21 222.938 1087.45 223.094 1087.65 223.295C1087.86 223.495 1088.01 223.735 1088.12 223.999C1088.22 224.263 1088.27 224.546 1088.26 224.829V274.196C1088.28 289.162 1097.37 296.857 1113.06 296.857H1113.07ZM1233.03 266.023C1230.17 264.064 1226.76 265.49 1224.47 267.59C1219.1 272.147 1212.26 274.615 1205.22 274.54C1193.64 274.54 1184.36 269.196 1179.36 260.812C1178.65 259.566 1178.83 258.32 1180.25 257.787L1228.73 240.133C1231.94 238.887 1233.01 236.928 1232.12 233.551C1227.13 214.658 1213.23 203.602 1192.55 203.602C1165.99 203.602 1147.81 223.027 1147.81 250.296C1147.81 277.565 1167.24 296.818 1195.23 296.818C1217.32 296.818 1229.62 286.631 1234.25 274.54C1236.05 270.121 1235.52 267.802 1233.02 266.023H1233.03ZM1190.6 219.321C1196.49 219.321 1201.65 222.533 1203.97 229.123C1204.68 230.738 1203.97 231.803 1202.55 232.336L1175.81 243.024C1174.24 243.737 1173.31 243.024 1173.31 241.786V240.713C1173.3 226.984 1180.79 219.321 1190.59 219.321H1190.6ZM1292.2 294.898C1292.8 294.934 1293.39 294.843 1293.95 294.631C1294.51 294.419 1295.01 294.092 1295.44 293.671C1295.86 293.25 1296.18 292.744 1296.4 292.187C1296.61 291.63 1296.7 291.034 1296.66 290.44V285.448C1296.66 282.596 1295.41 280.997 1292.92 280.464L1288.46 279.391C1284.89 278.505 1283.83 276.539 1283.83 272.793V236.787C1283.83 230.197 1286.68 226.984 1291.84 226.984C1295.95 226.984 1298.97 229.484 1303.6 235.729C1305.74 238.393 1307.16 239.467 1309.47 239.467C1312.5 239.467 1314.47 237.688 1314.82 234.483L1317.49 211.304C1318.03 206.846 1315.53 204.174 1310.37 204.174C1300.92 204.174 1292.54 208.452 1286.3 214.509C1284.34 216.288 1282.56 215.583 1282.56 213.624V209.526C1282.56 204.174 1279.35 202.748 1274.36 204.174L1248.5 211.845C1247.35 212.052 1246.32 212.674 1245.6 213.592C1244.87 214.511 1244.51 215.662 1244.58 216.829V221.287C1244.58 223.959 1245.65 225.025 1248.5 225.926C1254.56 227.705 1255.81 230.197 1255.81 235.188V272.801C1255.81 276.719 1254.56 278.333 1250.99 279.579L1248.32 280.472C1245.82 281.366 1244.58 282.823 1244.58 285.456V290.447C1244.58 293.12 1246.36 294.906 1249.22 294.906L1292.2 294.898ZM1370.63 296.857C1392.57 296.857 1406.28 286.514 1406.1 267.802C1406.1 251.409 1396.12 243.737 1379.36 239.287L1366.18 235.729C1355.83 232.869 1351.38 230.197 1351.38 225.205C1351.38 220.747 1354.59 217.722 1361.72 217.722C1369.92 217.722 1378.48 222.886 1389.52 233.59C1390.36 234.462 1391.48 235.011 1392.69 235.14C1393.9 235.269 1395.11 234.97 1396.12 234.295L1397.9 233.229C1400.03 232.156 1400.57 230.017 1399.33 227.525L1389.88 207.739C1388.81 205.6 1387.53 204.534 1385.25 204.534C1382.97 204.534 1380.97 205.78 1376.87 205.78C1371.39 205.78 1366 204.213 1359.58 204.213C1338.9 204.213 1327.14 214.188 1327.14 230.416C1327.14 246.456 1337.66 253.587 1352.8 258.046L1366.35 262.136C1376.15 264.988 1380.45 268.405 1380.45 273.726C1380.45 279.046 1376.53 282.102 1369.41 282.102C1358.54 282.102 1347.31 275.324 1336.96 262.849C1335 260.357 1332.69 260.005 1330.37 261.282L1327.16 263.061C1324.66 264.495 1323.78 266.979 1325.2 269.659L1336.44 292.649C1337.5 294.789 1339.28 296.395 1341.59 296.395C1345.17 296.395 1346.59 294.256 1351.04 294.256C1355.5 294.256 1361 296.857 1370.62 296.857H1370.63Z" fill="#00A69B"/>
</svg>
