<svg width="500" height="444" viewBox="0 0 500 444" fill="none" xmlns="http://www.w3.org/2000/svg">
<path d="M480.266 394.281H483.391V402.449H484.652V394.281H487.776V393.184H480.266V394.281Z" fill="#00A69B"/>
<path d="M497.862 393.184L495.176 400.859L492.545 393.184H490.297V402.449H491.558V394.171L494.464 402.449H495.724L498.739 394.116V402.449H500V393.184H497.862Z" fill="#00A69B"/>
<path d="M309.288 93.4375C330.668 93.4375 347.99 72.6613 347.99 47.1708C347.99 21.6803 330.613 0.849365 309.288 0.849365C287.964 0.849365 270.587 21.6255 270.587 47.116C270.587 72.6065 287.909 93.4375 309.288 93.4375ZM309.288 21.3514C319.156 21.3514 327.488 33.1373 327.488 47.116C327.488 61.0947 319.156 72.8806 309.288 72.8806C299.421 72.8806 291.089 61.0947 291.089 47.116C291.089 33.1373 299.421 21.3514 309.288 21.3514Z" fill="#00A69B"/>
<path d="M172.626 93.4375C194.005 93.4375 211.328 72.6613 211.328 47.1708C211.328 21.6803 193.95 0.849365 172.626 0.849365C151.301 0.849365 133.924 21.6255 133.924 47.116C133.924 72.6065 151.247 93.4375 172.626 93.4375ZM172.626 21.3514C182.493 21.3514 190.825 33.1373 190.825 47.116C190.825 61.0947 182.493 72.8806 172.626 72.8806C162.758 72.8806 154.426 61.0947 154.426 47.116C154.426 33.1373 162.758 21.3514 172.626 21.3514Z" fill="#00A69B"/>
<path d="M172.626 58.3537C178.821 58.3537 183.864 53.3104 183.864 47.1159C183.864 40.9215 178.821 35.8782 172.626 35.8782C166.432 35.8782 161.388 40.9215 161.388 47.1159C161.388 53.3652 166.432 58.3537 172.626 58.3537Z" fill="#00A69B"/>
<path d="M309.288 58.3537C315.482 58.3537 320.526 53.3104 320.526 47.1159C320.526 40.9215 315.482 35.8782 309.288 35.8782C303.093 35.8782 298.05 40.9215 298.05 47.1159C298.05 53.3652 303.093 58.3537 309.288 58.3537Z" fill="#00A69B"/>
<path d="M365.86 163.824L247.727 60.3269C243.835 56.9281 238.079 56.9281 234.187 60.3269L116.053 163.824C111.778 167.551 111.339 174.02 115.067 178.296C118.794 182.572 125.263 183.01 129.539 179.283L150.644 160.754V244.681C150.644 260.03 163.087 272.529 178.491 272.529H303.313C318.662 272.529 331.16 260.03 331.16 244.681V160.754L352.265 179.283C356.432 183.12 362.955 182.791 366.737 178.625C370.575 174.459 370.246 167.935 366.08 164.153C366.08 163.988 365.97 163.933 365.86 163.824ZM310.713 244.681C310.713 248.737 307.424 252.027 303.367 252.027H251.18V221.493L284.51 187.231L284.729 187.012C291.143 179.995 294.651 170.895 294.651 161.412C294.651 140.636 277.987 123.752 257.485 123.752C251.729 123.752 246.082 125.122 240.929 127.699C235.777 125.122 230.13 123.752 224.374 123.752C203.872 123.752 187.207 140.636 187.207 161.412C187.207 170.895 190.716 180.05 197.13 187.012L197.349 187.231L230.678 221.493V252.027H178.546C174.49 252.027 171.201 248.737 171.201 244.681V142.774L240.929 81.706L310.658 142.828V244.681H310.713ZM240.929 202.635L212.15 173.033C209.244 169.854 207.71 165.688 207.71 161.357C207.71 151.873 215.165 144.199 224.374 144.199C228.102 144.199 231.665 145.46 234.57 147.762C238.298 150.722 243.616 150.722 247.343 147.762C250.249 145.46 253.812 144.199 257.485 144.199C266.694 144.199 274.149 151.873 274.149 161.357C274.149 165.633 272.614 169.799 269.709 173.033L240.929 202.635Z" fill="#00A69B"/>
<path d="M362.242 371.092C365.86 371.147 369.314 369.831 372 367.419C372.548 366.926 373.096 366.926 373.37 367.748L373.535 368.296C373.919 369.502 374.741 370.215 376.002 370.215H388.117C389.158 370.27 390.035 369.447 390.09 368.406C390.09 368.351 390.09 368.241 390.09 368.187V366.049C390.2 365.007 389.487 364.02 388.445 363.801L387.239 363.417C385.65 362.869 385.156 361.992 385.156 360.402V313.039C385.156 310.682 383.567 310.079 381.429 310.737L369.204 314.245C367.998 314.629 367.45 315.342 367.45 316.548V318.466C367.45 319.672 367.834 320.221 369.204 320.55C372.274 321.372 372.713 322.523 372.713 324.661V329.54C372.713 330.088 372.329 330.417 371.671 330.252C369.752 329.869 367.779 329.704 365.805 329.704C354.787 329.704 346.126 337.927 346.126 351.303C346.126 364.788 353.471 371.092 362.242 371.092ZM368.327 336.611C369.204 336.556 370.081 336.721 370.849 336.995C371.89 337.214 372.658 338.037 372.658 339.626V360.238C372.767 361.225 372.219 362.211 371.287 362.65C370.301 363.198 369.149 363.472 368.053 363.472C362.9 363.472 359.063 357.826 359.063 349.439C359.118 341.709 362.845 336.611 368.327 336.611Z" fill="#00A69B"/>
<path d="M274.643 337.927H277.11C277.603 337.927 278.042 338.311 278.042 338.804V338.859V360.896C278.042 367.584 282.098 371.037 289.06 371.037C296.844 371.037 300.791 367.035 300.791 362.76C300.791 361.389 300.078 360.622 298.872 360.622C296.954 360.622 296.406 362.376 293.391 362.376C291.308 362.376 290.43 361.389 290.43 359.361V338.914C290.43 338.42 290.814 337.982 291.308 337.982H291.362H298.05C299.092 338.036 300.024 337.269 300.133 336.227C300.133 336.118 300.133 336.008 300.133 335.899V332.39C300.133 331.129 299.311 330.417 298.05 330.417H291.472C290.979 330.417 290.54 330.033 290.54 329.54V329.485V324.222C290.54 322.413 289.608 321.427 288.018 321.427C286.593 321.427 285.661 321.975 284.455 323.071C281.276 326.141 277.877 328.937 274.314 331.513C273.053 332.335 272.56 333.048 272.56 334.199V335.844C272.45 336.885 273.163 337.817 274.204 337.982C274.369 337.982 274.478 337.982 274.643 337.927Z" fill="#00A69B"/>
<path d="M323.979 371.092C333.846 371.092 339.328 366.542 341.356 361.115C342.178 359.142 341.904 358.1 340.808 357.278C339.547 356.401 338.012 357.059 336.971 357.991C334.559 360.019 331.544 361.115 328.364 361.115C323.211 361.115 319.1 358.703 316.852 354.976C316.523 354.427 316.633 353.879 317.236 353.605L338.834 345.711C340.26 345.163 340.753 344.286 340.369 342.751C338.122 334.309 331.927 329.375 322.718 329.375C310.877 329.375 302.819 338.037 302.819 350.261C302.819 362.486 311.48 371.092 323.979 371.092ZM314.221 345.985C314.221 339.846 317.565 336.447 321.95 336.447C324.582 336.447 326.884 337.872 327.926 340.833C328.2 341.271 328.035 341.874 327.597 342.148C327.487 342.203 327.432 342.258 327.323 342.258L315.427 347.027C314.714 347.356 314.331 347.027 314.331 346.479L314.221 345.985Z" fill="#00A69B"/>
<path d="M92.9747 334.199L95.1675 335.076C96.4283 335.46 97.3054 335.405 97.9632 334.199C102.623 324.99 106.35 321.152 109.365 321.152H109.694C111.503 321.152 112.38 322.413 112.38 324.551V359.745C112.38 361.499 111.887 362.376 110.133 362.869L107.282 363.582C106.076 363.911 105.638 364.514 105.638 365.884V368.187C105.583 369.228 106.35 370.105 107.337 370.16C107.447 370.16 107.556 370.16 107.666 370.16H130.525C131.512 370.27 132.444 369.502 132.499 368.461C132.499 368.351 132.499 368.241 132.499 368.132V365.829C132.499 364.459 132.115 363.856 130.909 363.527L128.058 362.814C126.304 362.321 125.811 361.444 125.811 359.69V324.496C125.811 322.249 126.688 321.098 128.607 321.098H128.826C131.841 321.098 135.514 324.935 140.283 334.144C140.941 335.35 141.818 335.515 143.079 335.021L145.271 334.144C146.368 333.651 146.642 332.774 146.313 331.513L141.544 314.519C141.16 312.985 140.338 312.601 139.241 312.601H138.529C137.706 312.656 136.939 312.93 136.281 313.478C135.459 314.026 134.527 314.355 133.485 314.355H104.596C103.609 314.355 102.623 314.026 101.8 313.478C100.923 312.93 100.43 312.601 99.5529 312.601H98.8403C97.7439 312.601 96.9216 312.985 96.5379 314.519L91.7687 331.513C91.5494 332.829 91.8784 333.706 92.9747 334.199Z" fill="#00A69B"/>
<path d="M239.723 369.173C240.107 370.105 240.984 370.763 242.026 370.873C243.616 370.873 244.273 369.886 246.247 369.886C248.22 369.886 250.687 371.092 254.963 371.092C264.721 371.092 270.86 366.487 270.751 358.1C270.751 350.754 266.31 347.355 258.855 345.382L252.989 343.792C248.385 342.531 246.411 341.325 246.411 339.078C246.411 337.104 247.837 335.734 251.016 335.734C254.689 335.734 258.471 338.036 263.405 342.806C264.172 343.628 265.433 343.737 266.365 343.134L267.187 342.641C268.119 342.148 268.393 341.216 267.845 340.065L263.624 331.239C263.131 330.252 262.583 329.814 261.541 329.814C260.5 329.814 259.622 330.362 257.813 330.362C255.347 330.362 252.989 329.649 250.139 329.649C240.929 329.649 235.667 334.089 235.667 341.325C235.667 348.561 240.326 351.686 247.124 353.66L253.154 355.469C257.539 356.729 259.403 358.264 259.403 360.622C259.403 362.979 257.649 364.349 254.47 364.349C249.646 364.349 244.602 361.334 239.998 355.743C239.12 354.646 238.079 354.482 237.037 355.03L235.612 355.852C234.57 356.346 234.132 357.552 234.625 358.593C234.68 358.648 234.68 358.703 234.735 358.813L239.723 369.173Z" fill="#00A69B"/>
<path d="M187.043 339.517C189.729 340.229 190.277 341.326 190.277 343.573V358.813C190.277 366.597 193.621 371.092 201.57 371.092C205.955 371.092 209.683 369.996 212.369 367.803L213.794 366.706C214.452 366.213 214.89 366.542 215.055 367.364L215.219 368.077C215.603 369.612 216.316 370.215 217.851 370.215H229.911C230.952 370.27 231.884 369.502 231.994 368.461C231.994 368.351 231.994 368.241 231.994 368.187V366.049C232.049 365.007 231.336 364.02 230.294 363.801L229.198 363.417C227.608 362.869 227.06 362.047 227.06 360.402V331.952C227.06 329.649 225.525 328.991 223.387 329.649L211.327 333.212C210.286 333.432 209.628 334.418 209.683 335.46V337.433C209.683 338.639 210.176 339.078 211.437 339.517C214.068 340.229 214.616 341.326 214.616 343.573V357.771C214.616 358.867 214.397 359.58 213.246 360.238C211.108 361.499 208.696 362.157 206.284 362.211C203.817 362.211 202.885 360.786 202.885 357.826V331.952C202.885 329.649 201.35 328.991 199.212 329.649L187.152 333.212C185.891 333.596 185.398 334.309 185.398 335.46V337.433C185.288 338.639 185.782 339.133 187.043 339.517Z" fill="#00A69B"/>
<path d="M172.242 368.186V365.939C172.242 364.678 171.694 363.965 170.598 363.691L168.624 363.198C167.035 362.814 166.541 361.937 166.541 360.238V344.176C166.541 341.216 167.802 339.791 170.104 339.791C171.913 339.791 173.284 340.887 175.367 343.683C176.299 344.889 176.957 345.327 177.998 345.327C179.369 345.327 180.191 344.505 180.355 343.08L181.561 332.719C181.781 330.746 180.684 329.54 178.382 329.54C174.325 329.594 170.488 331.294 167.692 334.144C166.815 334.967 166.048 334.638 166.048 333.761V331.952C166.048 329.54 164.623 328.937 162.375 329.54L150.863 332.938C149.822 333.158 149.054 334.089 149.109 335.186V337.159C149.109 338.365 149.602 338.804 150.863 339.242C153.494 340.065 154.043 341.161 154.043 343.409V360.183C154.043 361.937 153.494 362.65 151.905 363.198L150.699 363.582C149.602 363.965 149.054 364.623 149.054 365.829V368.077C148.999 369.118 149.822 369.995 150.863 370.05C150.973 370.05 151.028 370.05 151.137 370.05H170.269C171.31 370.105 172.187 369.338 172.242 368.296C172.242 368.351 172.242 368.296 172.242 368.186Z" fill="#00A69B"/>
<path d="M290.923 383.92C286.099 383.92 282.81 386.551 282.81 390.608C282.81 394.664 286.045 397.35 290.923 397.35C295.802 397.35 299.037 394.664 299.037 390.608C299.037 386.551 295.747 383.92 290.923 383.92Z" fill="#00A69B"/>
<path d="M404.836 429.254C403.576 428.377 402.041 429.035 400.999 429.967C398.587 431.995 395.572 433.091 392.393 433.091C387.24 433.091 383.128 430.734 380.881 426.952C380.552 426.404 380.661 425.855 381.265 425.581L402.918 417.687C404.343 417.139 404.836 416.262 404.453 414.727C402.26 406.285 396.065 401.352 386.801 401.352C374.96 401.352 366.902 410.013 366.902 422.237C366.902 434.462 375.563 443.013 388.007 443.013C397.874 443.013 403.301 438.464 405.385 433.037C406.152 431.063 405.933 430.022 404.836 429.254ZM378.195 418.4V417.907C378.195 411.767 381.539 408.368 385.869 408.368C388.501 408.368 390.803 409.794 391.844 412.754C392.119 413.192 391.954 413.795 391.516 414.069C391.406 414.124 391.351 414.179 391.241 414.179L379.346 418.948C378.633 419.277 378.195 418.948 378.195 418.4Z" fill="#00A69B"/>
<path d="M361.201 432.543C359.283 432.543 358.735 434.297 355.72 434.297C353.636 434.297 352.759 433.31 352.759 431.282V410.835C352.759 410.341 353.143 409.903 353.636 409.848H353.691H360.379C361.421 409.958 362.353 409.135 362.462 408.094C362.462 407.984 362.462 407.875 362.462 407.765V404.311C362.462 403.051 361.695 402.338 360.379 402.338H353.801C353.308 402.338 352.869 401.954 352.869 401.461V401.406V396.089C352.869 394.28 351.937 393.293 350.347 393.293C348.922 393.293 347.99 393.841 346.784 394.938C343.605 398.007 340.206 400.803 336.643 403.38C335.382 404.202 334.889 404.914 334.889 406.066V407.71C334.779 408.752 335.546 409.684 336.588 409.793C336.698 409.793 336.862 409.793 336.972 409.793H339.439C339.932 409.793 340.37 410.177 340.37 410.67V410.725V432.817C340.37 439.505 344.427 442.958 351.389 442.958C359.173 442.958 363.12 438.957 363.12 434.681C363.12 433.365 362.407 432.543 361.201 432.543Z" fill="#00A69B"/>
<path d="M301.065 435.668L299.859 435.284C298.324 434.736 297.776 433.914 297.776 432.269V403.983C297.776 401.571 296.241 400.968 294.048 401.571L282.043 405.134C281.002 405.353 280.234 406.285 280.289 407.381V409.355C280.289 410.561 280.782 411 282.043 411.438C284.729 412.26 285.277 413.357 285.277 415.549V432.269C285.277 434.023 284.729 434.736 283.139 435.284L281.933 435.668C280.837 436.051 280.289 436.709 280.289 437.915V440.163C280.234 441.204 281.056 442.081 282.098 442.136C282.208 442.136 282.262 442.136 282.372 442.136H300.736C301.778 442.191 302.655 441.424 302.71 440.382C302.71 440.327 302.71 440.218 302.71 440.163V437.915C302.764 436.709 302.161 436.106 301.065 435.668Z" fill="#00A69B"/>
<path d="M330.447 432.543C328.529 432.543 327.98 434.297 324.965 434.297C322.882 434.297 322.005 433.31 322.005 431.282V410.835C322.005 410.341 322.389 409.903 322.882 409.903H322.937H329.625C330.667 410.013 331.598 409.19 331.708 408.149C331.708 408.039 331.708 407.929 331.708 407.82V404.311C331.708 403.051 330.941 402.338 329.625 402.338H323.047C322.553 402.338 322.115 401.954 322.115 401.461V401.406V396.089C322.115 394.28 321.183 393.293 319.593 393.293C318.168 393.293 317.236 393.841 316.03 394.938C312.851 398.007 309.452 400.803 305.889 403.38C304.628 404.202 304.134 404.914 304.134 406.066V407.71C304.025 408.752 304.792 409.684 305.779 409.793C305.889 409.793 306.053 409.793 306.163 409.793H308.63C309.123 409.793 309.561 410.177 309.561 410.67V410.725V432.817C309.561 439.505 313.618 442.958 320.58 442.958C328.364 442.958 332.311 438.957 332.311 434.681C332.311 433.365 331.598 432.543 330.447 432.543Z" fill="#00A69B"/>
<path d="M439.263 401.571C435.206 401.626 431.369 403.325 428.573 406.176C427.696 406.998 426.928 406.669 426.928 405.792V403.983C426.928 401.571 425.503 400.968 423.256 401.571L411.744 405.024C410.702 405.244 409.935 406.176 409.99 407.272V409.3C409.99 410.506 410.483 410.945 411.744 411.383C414.43 412.206 414.978 413.302 414.978 415.495V432.269C414.978 434.023 414.43 434.736 412.84 435.284L411.634 435.668C410.538 436.051 409.99 436.709 409.99 437.915V440.163C409.935 441.204 410.757 442.081 411.799 442.136C411.908 442.136 411.963 442.136 412.073 442.136H431.204C432.246 442.191 433.123 441.424 433.178 440.382C433.178 440.327 433.178 440.218 433.178 440.163V437.915C433.178 436.654 432.63 435.942 431.533 435.668L429.56 435.174C427.97 434.791 427.477 433.914 427.477 432.214V416.098C427.477 413.137 428.737 411.712 431.04 411.712C432.849 411.712 434.219 412.808 436.302 415.604C437.234 416.81 437.892 417.249 438.934 417.249C440.304 417.249 441.181 416.427 441.291 415.001L442.497 404.641C442.661 402.777 441.565 401.571 439.263 401.571Z" fill="#00A69B"/>
<path d="M469.96 417.304L464.095 415.714C459.49 414.453 457.517 413.247 457.517 411C457.517 409.026 458.942 407.656 462.121 407.656C465.794 407.656 469.577 409.958 474.51 414.728C475.278 415.55 476.539 415.659 477.416 415.056L478.238 414.563C479.17 414.07 479.444 413.138 478.896 412.041L474.675 403.216C474.182 402.284 473.633 401.79 472.592 401.79C471.55 401.79 470.673 402.339 468.864 402.339C466.397 402.339 464.04 401.626 461.19 401.626C451.98 401.626 446.718 406.066 446.718 413.357C446.718 420.648 451.377 423.718 458.12 425.691L464.15 427.5C468.535 428.761 470.399 430.296 470.399 432.708C470.399 435.12 468.645 436.436 465.465 436.436C460.641 436.436 455.598 433.421 450.993 427.829C450.116 426.733 449.075 426.568 448.033 427.116L446.608 427.884C445.566 428.377 445.128 429.583 445.621 430.625C445.676 430.68 445.676 430.789 445.731 430.844L450.719 441.095C451.103 442.027 451.98 442.685 453.022 442.74C454.611 442.74 455.269 441.808 457.243 441.808C459.216 441.808 461.683 443.014 465.959 443.014C475.716 443.014 481.856 438.409 481.746 430.022C481.911 422.676 477.471 419.277 469.96 417.304Z" fill="#00A69B"/>
<path d="M82.7236 401.352C70.3346 401.352 61.783 410.123 61.783 422.237C61.783 434.352 70.3346 443.013 82.7236 443.013C95.1125 443.013 103.664 434.352 103.664 422.237C103.664 410.123 95.1125 401.352 82.7236 401.352ZM84.8615 434.955C79.0507 434.955 74.0074 427.007 74.0074 418.016C74.0074 412.535 76.6387 409.41 80.5856 409.41C86.3964 409.41 91.4397 417.359 91.4397 426.349C91.4945 431.831 88.918 434.955 84.8615 434.955Z" fill="#00A69B"/>
<path d="M263.46 417.304L257.594 415.714C252.989 414.453 251.016 413.247 251.016 411C251.016 409.026 252.441 407.656 255.621 407.656C259.294 407.656 263.076 409.958 268.01 414.728C268.777 415.55 270.038 415.659 270.97 415.056L271.792 414.563C272.724 414.07 272.998 413.138 272.45 412.041L268.229 403.216C267.736 402.284 267.187 401.79 266.146 401.79C265.104 401.79 264.227 402.339 262.418 402.339C259.951 402.339 257.594 401.626 254.744 401.626C245.534 401.626 240.272 406.066 240.272 413.357C240.272 420.648 244.931 423.718 251.729 425.691L257.759 427.5C262.144 428.761 264.008 430.296 264.008 432.708C264.008 435.12 262.254 436.436 259.074 436.436C254.25 436.436 249.207 433.421 244.602 427.829C243.725 426.733 242.684 426.568 241.642 427.116L240.217 427.884C239.175 428.377 238.737 429.583 239.23 430.625C239.285 430.68 239.285 430.735 239.34 430.844L244.328 441.095C244.712 442.027 245.589 442.685 246.631 442.74C248.22 442.74 248.823 441.808 250.852 441.808C252.88 441.808 255.292 443.014 259.568 443.014C269.325 443.014 275.465 438.409 275.355 430.022C275.355 422.676 270.915 419.277 263.46 417.304Z" fill="#00A69B"/>
<path d="M57.562 386.387H36.8955C35.9087 386.277 34.9768 387.045 34.922 388.086C34.922 388.196 34.922 388.306 34.922 388.415V390.718C34.922 392.088 35.4154 392.527 36.5117 393.02L38.2659 393.678C39.9105 394.226 40.4587 395.103 40.4587 396.857V408.095C40.4587 408.588 40.0749 409.027 39.5816 409.027H39.5268H20.0663C19.5729 409.027 19.1343 408.643 19.1343 408.15V408.095V396.857C19.1343 395.103 19.6825 394.226 21.2723 393.678L23.0813 393.02C24.1776 392.527 24.671 392.088 24.671 390.718V388.415C24.7806 387.428 24.0132 386.497 23.0264 386.442C22.9168 386.442 22.8072 386.442 22.6975 386.442H2.08585C1.04431 386.332 0.112396 387.1 0.00275947 388.141C0.00275947 388.251 0.00275947 388.306 0.00275947 388.415V390.718C0.00275947 392.088 0.496124 392.527 1.64731 393.02L3.40149 393.678C5.10086 394.226 5.64904 395.103 5.64904 396.857V431.722C5.64904 433.476 5.10086 434.353 3.45631 434.901L1.64731 435.504C0.441306 435.997 0.00275947 436.436 0.00275947 437.806V440.109C-0.0520588 441.15 0.715397 442.027 1.81176 442.137C1.9214 442.137 1.97622 442.137 2.08585 442.137H22.7524C23.7391 442.192 24.671 441.479 24.7258 440.438C24.7258 440.328 24.7258 440.218 24.7258 440.109V437.806C24.7258 436.436 24.2324 435.997 23.1361 435.504L21.3271 434.846C19.7373 434.298 19.1892 433.421 19.1892 431.667V417.195C19.1892 416.701 19.5729 416.263 20.0663 416.263H20.1211H39.5816C40.0749 416.263 40.5135 416.647 40.5135 417.14V417.195V431.722C40.5135 433.476 39.9653 434.353 38.3208 434.901L36.5666 435.559C35.4702 436.052 34.9768 436.491 34.9768 437.861V440.164C34.922 441.15 35.6347 442.082 36.6762 442.137C36.7858 442.137 36.8407 442.137 36.9503 442.137H57.562C58.6035 442.247 59.4806 441.534 59.5902 440.493C59.5902 440.383 59.5902 440.273 59.5902 440.164V437.861C59.5902 436.491 59.0969 436.052 57.9457 435.559L56.1915 434.901C54.547 434.353 53.9988 433.476 53.9988 431.722V396.857C53.9988 395.103 54.547 394.226 56.1915 393.678L57.9457 393.02C59.1517 392.527 59.5902 392.088 59.5902 390.718V388.415C59.6451 387.374 58.8776 386.497 57.8909 386.442C57.7812 386.387 57.6716 386.387 57.562 386.387Z" fill="#00A69B"/>
<path d="M234.242 429.254C232.981 428.377 231.446 429.035 230.404 429.967C227.992 431.995 224.977 433.091 221.853 433.091C216.7 433.091 212.588 430.734 210.341 426.952C210.012 426.404 210.122 425.855 210.725 425.581L232.323 417.687C233.748 417.139 234.242 416.262 233.858 414.727C231.61 406.285 225.416 401.352 216.261 401.352C204.42 401.352 196.307 410.013 196.307 422.237C196.307 434.462 204.969 443.013 217.412 443.013C227.28 443.013 232.762 438.464 234.79 433.037C235.612 431.063 235.338 430.022 234.242 429.254ZM207.655 418.4V417.907C207.655 411.767 210.999 408.368 215.329 408.368C217.961 408.368 220.263 409.794 221.305 412.754C221.579 413.192 221.414 413.795 220.976 414.069C220.866 414.124 220.811 414.179 220.702 414.179L208.806 418.948C208.038 419.277 207.655 418.948 207.655 418.4Z" fill="#00A69B"/>
<path d="M179.532 417.304L173.667 415.714C169.062 414.453 167.089 413.247 167.089 411C167.089 409.026 168.514 407.656 171.693 407.656C175.366 407.656 179.149 409.958 184.082 414.728C184.85 415.55 186.111 415.659 187.042 415.056L187.865 414.563C188.797 414.07 189.071 413.138 188.523 412.041L184.192 403.216C183.699 402.284 183.15 401.79 182.109 401.79C181.067 401.79 180.19 402.339 178.381 402.339C175.914 402.339 173.557 401.626 170.707 401.626C161.497 401.626 156.235 406.066 156.235 413.357C156.235 420.648 160.894 423.718 167.692 425.691L173.722 427.5C178.107 428.761 179.971 430.296 179.971 432.708C179.971 435.12 178.217 436.436 175.037 436.436C170.213 436.436 165.17 433.421 160.565 427.829C159.688 426.733 158.647 426.568 157.605 427.116L156.235 427.884C155.193 428.377 154.755 429.583 155.248 430.625C155.303 430.68 155.303 430.735 155.358 430.844L160.346 441.095C160.73 442.027 161.607 442.685 162.648 442.74C164.238 442.74 164.841 441.808 166.869 441.808C168.898 441.808 171.31 443.014 175.585 443.014C185.343 443.014 191.483 438.409 191.373 430.022C191.428 422.676 186.988 419.277 179.532 417.304Z" fill="#00A69B"/>
<path d="M150.918 435.668L149.822 435.284C148.232 434.736 147.684 433.914 147.684 432.269V403.928C147.684 401.626 146.149 400.968 144.011 401.626L131.951 405.189C130.909 405.408 130.252 406.395 130.306 407.436V409.41C130.306 410.616 130.8 411.054 132.061 411.493C134.692 412.206 135.24 413.302 135.24 415.55V429.693C135.24 430.789 135.021 431.502 133.87 432.159C131.732 433.42 129.32 434.078 126.853 434.133C124.386 434.133 123.454 432.708 123.454 429.747V403.873C123.454 401.571 121.919 400.913 119.781 401.571L107.721 405.134C106.46 405.518 105.967 406.23 105.967 407.382V409.355C105.967 410.561 106.46 411 107.721 411.438C110.407 412.151 110.956 413.247 110.956 415.495V430.679C110.956 438.464 114.299 442.959 122.248 442.959C126.634 442.959 130.361 441.862 133.047 439.67L134.473 438.573C135.13 438.08 135.569 438.409 135.733 439.231L135.898 439.944C136.282 441.479 136.994 442.082 138.529 442.082H150.589C151.631 442.136 152.563 441.369 152.672 440.327C152.672 440.218 152.672 440.108 152.672 439.998V437.861C152.727 436.819 151.96 435.832 150.918 435.668Z" fill="#00A69B"/>
</svg>
