<svg width="1254" height="722" viewBox="0 0 1254 722" fill="none" xmlns="http://www.w3.org/2000/svg">
<g clip-path="url(#clip0_9_21868)">
<rect width="1254" height="722" fill="white"/>
<path d="M0 0H1254V722H0V0Z" fill="white"/>
<path d="M230.877 242.721C230.877 234.496 237.533 227.778 245.82 227.778C254.045 227.778 260.763 234.433 260.763 242.721C260.763 251.008 254.108 257.663 245.82 257.663C237.595 257.663 230.877 251.008 230.877 242.721ZM504.114 417.198C499.154 422.848 490.553 423.414 484.839 418.454L456.775 393.842V505.472C456.775 525.94 440.2 542.515 419.732 542.515H253.731C233.263 542.515 216.688 525.94 216.688 505.472V393.842L188.561 418.454C182.91 423.414 174.246 422.848 169.349 417.135C164.452 411.422 164.954 402.82 170.667 397.923L327.753 260.3C332.902 255.78 340.561 255.78 345.71 260.3L502.858 397.923C508.509 402.883 509.074 411.485 504.114 417.198ZM375.03 410.166C378.86 405.897 380.932 400.372 380.932 394.658C380.932 382.039 371.012 371.805 358.769 371.805C353.872 371.805 349.1 373.437 345.27 376.514C340.31 380.469 333.278 380.469 328.319 376.514C324.489 373.437 319.717 371.742 314.757 371.742C302.514 371.742 292.594 381.976 292.594 394.596C292.594 400.309 294.666 405.834 298.433 410.103L336.732 449.406L375.03 410.166ZM429.527 369.921L336.732 288.679L243.937 369.921V505.472C243.937 510.872 248.331 515.204 253.668 515.204H323.045V474.583L278.719 429.001C278.593 428.876 278.531 428.813 278.405 428.687C269.866 419.395 265.158 407.215 265.22 394.596C265.22 366.971 287.383 344.494 314.694 344.494C322.354 344.494 329.888 346.315 336.732 349.768C343.575 346.315 351.109 344.557 358.769 344.494C386.017 344.494 408.243 366.971 408.243 394.596C408.306 407.215 403.597 419.395 395.058 428.687C394.995 428.813 394.87 428.876 394.744 429.001L350.419 474.583V515.204H419.795C425.194 515.204 429.527 510.809 429.527 505.472V369.921ZM194.337 242.721C194.337 208.754 217.442 181.129 245.82 181.129C274.199 181.129 297.303 208.754 297.303 242.721C297.303 276.687 274.199 304.312 245.82 304.312C217.442 304.312 194.337 276.687 194.337 242.721ZM221.648 242.721C221.648 261.305 232.761 277.001 245.883 277.001C259.005 277.001 270.118 261.305 270.118 242.721C270.118 224.137 259.005 208.441 245.883 208.441C232.761 208.441 221.648 224.137 221.648 242.721ZM376.097 242.721C376.097 208.754 399.202 181.129 427.58 181.129C455.959 181.129 479.063 208.754 479.063 242.721C479.063 276.687 455.959 304.312 427.58 304.312C399.202 304.312 376.097 276.687 376.097 242.721ZM403.408 242.721C403.408 261.305 414.521 277.001 427.643 277.001C440.765 277.001 451.878 261.305 451.878 242.721C451.878 224.137 440.765 208.441 427.643 208.441C414.521 208.441 403.408 224.137 403.408 242.721ZM427.643 257.663C435.868 257.663 442.586 251.008 442.586 242.783C442.586 234.559 435.931 227.778 427.706 227.778C419.481 227.778 412.7 234.433 412.7 242.721C412.7 242.721 412.7 242.721 412.7 242.783C412.7 250.945 419.356 257.663 427.643 257.663ZM601.555 543.896C623.906 543.896 639.791 533.035 639.665 512.818C639.665 493.606 626.481 485.758 610.471 481.049L593.142 475.775C583.85 472.95 578.702 469.372 578.702 463.47C578.702 457.443 583.725 453.613 592.326 453.613C601.932 453.613 610.219 458.51 622.525 472.197C624.095 474.08 626.104 474.457 628.364 473.201L630.687 471.946C633.136 470.502 633.387 468.681 632.382 466.483L621.646 444.886C620.516 442.437 619.512 440.993 616.749 440.993H615.179C612.04 440.993 611.287 442.563 607.583 442.563C603.125 442.563 597.977 440.868 590.819 440.868C569.033 440.868 555.472 451.918 555.472 469.497C555.472 485.13 566.898 493.543 581.088 498.252L599.295 504.28C609.34 507.733 614.928 511.562 614.928 519.159C614.928 526.882 609.215 530.9 599.295 530.9C586.424 530.9 574.558 523.303 563.634 508.109C561.75 505.661 560.055 505.284 557.481 506.414L553.902 508.109C551.579 509.239 551.202 511.374 552.332 514.011L564.638 540.066C565.768 542.641 567.526 543.645 569.347 543.645H571.23C574.37 543.645 576.693 541.322 579.832 541.322C585.043 541.322 590.254 543.896 601.555 543.896ZM687.005 542.515C688.888 542.641 690.458 541.197 690.583 539.313C690.583 539.188 690.583 539.062 690.583 538.936V534.918C690.583 532.784 689.579 531.653 687.57 530.9L685.435 530.209C682.735 529.205 681.731 527.761 681.731 524.747V473.892C681.731 469.56 679.031 468.43 675.013 469.56L653.415 476.027C651.531 476.403 650.15 478.099 650.276 480.045V483.624C650.276 485.758 651.155 486.637 653.415 487.328C658.312 488.772 659.254 490.781 659.254 494.799V524.747C659.254 527.886 658.249 529.205 655.361 530.209L653.227 530.9C651.217 531.591 650.213 532.784 650.213 534.918V538.936C650.213 541.071 651.657 542.515 653.917 542.515H687.005ZM669.237 462.026C677.964 462.026 683.802 457.129 683.802 449.846C683.802 442.563 677.964 437.854 669.237 437.854C660.51 437.854 654.608 442.563 654.608 449.846C654.608 457.129 660.51 462.026 669.237 462.026ZM725.805 544.085C739.806 544.085 746.963 536.927 746.963 529.205C746.963 526.756 745.708 525.312 743.51 525.312C740.057 525.312 739.053 528.451 733.653 528.451C729.949 528.451 728.379 526.756 728.379 522.989V486.26C728.316 485.319 729.07 484.565 729.949 484.565C730.012 484.565 730.012 484.565 730.074 484.565H742.129C744.452 484.565 745.833 483.121 745.833 480.861V474.583C745.833 472.322 744.389 471.004 742.129 471.004H730.263C729.321 471.067 728.568 470.313 728.568 469.434C728.568 469.372 728.568 469.372 728.568 469.309V459.891C728.568 456.626 726.872 454.868 723.984 454.868C721.41 454.868 719.715 455.873 717.518 457.882C711.93 463.03 705.903 468.493 699.185 473.076C696.862 474.52 696.045 475.775 696.045 477.973V480.987C696.045 483.435 697.489 484.691 699.75 484.691H704.207C705.149 484.628 705.903 485.381 705.903 486.26V486.323V526.003C705.903 537.932 713.185 544.085 725.805 544.085ZM781.306 544.085C795.307 544.085 802.527 536.927 802.527 529.205C802.527 526.756 801.209 525.312 799.074 525.312C795.621 525.312 794.617 528.451 789.217 528.451C785.513 528.451 783.943 526.756 783.943 522.989V486.26C783.88 485.319 784.634 484.565 785.513 484.565C785.576 484.565 785.576 484.565 785.638 484.565H797.693C800.016 484.565 801.397 483.121 801.397 480.861V474.583C801.397 472.322 799.953 471.004 797.693 471.004H785.827C784.885 471.067 784.132 470.313 784.132 469.434C784.132 469.372 784.132 469.372 784.132 469.309V459.891C784.132 456.626 782.436 454.868 779.548 454.868C776.974 454.868 775.279 455.873 773.082 457.882C767.494 463.03 761.466 468.493 754.749 473.076C752.488 474.52 751.609 475.775 751.609 477.973V480.987C751.609 483.435 753.053 484.691 755.314 484.691H759.771C760.713 484.628 761.466 485.381 761.466 486.26C761.466 486.323 761.466 486.323 761.466 486.386V526.066C761.466 537.932 768.749 544.085 781.306 544.085ZM877.68 519.285C875.357 517.715 872.657 518.845 870.836 520.603C866.504 524.245 861.042 526.254 855.392 526.191C846.1 526.191 838.628 521.922 834.61 515.141C834.045 514.137 834.171 513.132 835.301 512.693L874.227 498.503C876.801 497.499 877.68 495.929 876.927 493.229C872.908 478.036 861.733 469.183 845.158 469.183C823.811 469.183 809.245 484.816 809.245 506.665C809.245 528.514 824.879 544.022 847.355 544.022C865.123 544.022 874.98 535.86 878.685 526.128C880.129 522.612 879.689 520.729 877.68 519.285ZM843.588 481.803C848.297 481.803 852.441 484.377 854.324 489.651C854.889 490.906 854.324 491.785 853.194 492.225L831.722 500.826C830.404 501.391 829.713 500.826 829.713 499.822V498.943C829.713 487.956 835.74 481.803 843.588 481.803ZM925.208 542.515C927.091 542.641 928.661 541.197 928.786 539.313C928.786 539.188 928.786 539.062 928.786 538.936V534.918C928.786 532.595 927.782 531.339 925.773 530.9L922.194 530.021C919.306 529.33 918.49 527.761 918.49 524.747V495.866C918.49 490.593 920.75 488.018 924.956 488.018C928.221 488.018 930.67 490.027 934.437 495.05C936.132 497.185 937.325 498.064 939.146 498.064C941.594 498.064 943.164 496.62 943.415 494.046L945.55 475.462C945.989 471.883 943.98 469.748 939.836 469.748C932.239 469.748 925.522 473.201 920.499 478.036C918.929 479.48 917.485 478.915 917.485 477.345V474.08C917.485 469.748 914.911 468.618 910.893 469.748L890.111 475.901C887.977 476.466 886.972 477.91 886.972 479.919V483.498C886.972 485.633 887.851 486.512 890.111 487.202C895.008 488.646 895.95 490.655 895.95 494.674V524.873C895.95 528.012 894.946 529.33 892.058 530.335L889.923 531.026C887.914 531.716 886.909 532.909 886.909 535.044V539.062C886.909 541.197 888.353 542.641 890.613 542.641L925.208 542.515ZM988.18 544.085C1005.76 544.085 1016.81 535.797 1016.68 520.729C1016.68 507.544 1008.65 501.391 995.212 497.813L984.601 494.925C976.314 492.664 972.735 490.467 972.735 486.449C972.735 482.87 975.309 480.422 981.023 480.422C987.615 480.422 994.459 484.565 1003.37 493.167C1004.76 494.611 1007.02 494.862 1008.65 493.732L1010.09 492.853C1011.79 491.974 1012.23 490.279 1011.22 488.27L1003.62 472.385C1002.75 470.69 1001.74 469.811 999.921 469.811C998.1 469.811 996.468 470.816 993.203 470.816C988.745 470.816 984.476 469.56 979.328 469.56C962.753 469.56 953.272 477.596 953.272 490.593C953.272 503.463 961.685 509.177 973.865 512.818L984.727 516.083C992.575 518.406 996.028 521.106 996.028 525.375C996.028 529.644 992.889 532.093 987.176 532.093C978.449 532.093 969.408 526.631 961.12 516.648C959.551 514.639 957.667 514.388 955.846 515.392L953.272 516.836C951.263 517.966 950.572 519.976 951.703 522.11L960.743 540.569C961.622 542.264 963.066 543.582 964.887 543.582C967.775 543.582 968.905 541.887 972.484 541.887C976.063 541.887 980.458 544.085 988.18 544.085ZM620.516 285.477C622.839 285.477 624.095 284.033 624.095 281.898V277.754C624.095 275.306 623.404 274.176 621.207 273.61L616.058 272.355C612.919 271.476 612.04 269.906 612.04 266.767V203.481C612.04 199.462 613.61 197.328 617.063 197.328H617.502C622.965 197.328 629.557 204.171 638.096 220.809C639.226 222.944 640.795 223.258 643.118 222.379L647.137 220.809C649.146 219.93 649.585 218.36 649.02 216.1L640.356 185.587C639.665 182.887 638.221 182.134 636.212 182.134H634.956C633.387 182.134 632.382 182.699 630.938 183.704C629.494 184.708 627.736 185.273 625.915 185.273H573.805C571.984 185.273 570.226 184.708 568.782 183.704C567.212 182.699 566.333 182.134 564.764 182.134H563.508C561.499 182.134 560.055 182.825 559.364 185.587L550.763 216.1C550.072 218.36 550.637 219.993 552.646 220.809L556.665 222.379C558.988 223.069 560.557 222.944 561.687 220.809C570.1 204.171 576.818 197.328 582.28 197.328H582.846C586.11 197.328 587.743 199.588 587.743 203.481V266.767C587.743 269.906 586.864 271.476 583.725 272.355L578.576 273.61C576.442 274.176 575.563 275.306 575.563 277.754V281.898C575.563 284.033 576.818 285.477 579.267 285.477H620.516ZM691.964 285.477C693.848 285.602 695.418 284.158 695.543 282.275C695.543 282.149 695.543 282.024 695.543 281.898V277.88C695.543 275.62 694.539 274.301 692.529 273.862L688.951 272.983C686.125 272.292 685.247 270.722 685.247 267.709V238.891C685.247 233.617 687.57 230.98 691.713 230.98C694.978 230.98 697.427 232.989 701.131 238.012C702.826 240.147 704.019 241.026 705.84 241.026C708.288 241.026 709.858 239.581 710.109 237.007L712.244 218.423C712.683 214.845 710.674 212.71 706.53 212.71C698.933 212.71 692.216 216.163 687.193 220.997C685.623 222.441 684.179 221.876 684.179 220.244V216.916C684.179 212.647 681.605 211.454 677.587 212.647L656.868 218.8C654.733 219.365 653.729 220.809 653.729 222.818V226.397C653.729 228.531 654.608 229.41 656.868 230.101C661.765 231.545 662.707 233.554 662.707 237.572V267.772C662.707 270.911 661.702 272.229 658.814 273.234L656.68 273.924C654.671 274.615 653.666 275.808 653.666 277.943V281.961C653.666 284.095 655.11 285.539 657.37 285.539L691.964 285.477ZM748.407 287.109C756.255 287.109 762.973 285.1 767.87 281.27L770.445 279.261C771.575 278.382 772.454 279.01 772.768 280.391L773.082 281.71C773.772 284.409 775.091 285.602 777.79 285.602H799.577C801.837 285.602 803.281 284.158 803.281 281.898V278.068C803.281 275.934 802.151 274.615 800.142 274.05L798.133 273.359C795.244 272.355 794.24 270.911 794.24 267.897V216.791C794.24 212.647 791.54 211.517 787.648 212.647L765.861 219.114C763.727 219.804 762.848 221.123 762.848 223.132V226.711C762.848 228.845 763.727 229.724 765.987 230.415C770.696 231.733 771.7 233.68 771.7 237.698V263.188C771.7 265.197 771.261 266.453 769.252 267.646C765.422 269.843 761.09 271.099 756.632 271.225C752.174 271.225 750.479 268.651 750.479 263.377V216.791C750.479 212.647 747.78 211.517 743.887 212.647L722.164 219.114C719.841 219.804 719.024 221.123 719.024 223.132V226.711C719.024 228.845 719.903 229.724 722.164 230.415C727.061 231.733 728.003 233.68 728.003 237.698V265.072C728.065 279.073 734.093 287.109 748.407 287.109ZM844.718 287.109C862.298 287.109 873.348 278.822 873.222 263.753C873.222 250.569 865.186 244.416 851.75 240.837L841.14 237.949C832.852 235.626 829.273 233.491 829.273 229.536C829.273 225.957 831.847 223.509 837.561 223.509C844.153 223.509 850.997 227.652 859.912 236.254C861.293 237.698 863.554 237.949 865.186 236.819L866.63 235.94C868.325 235.061 868.765 233.366 867.76 231.357L860.163 215.472C859.284 213.777 858.28 212.898 856.459 212.898C854.638 212.898 853.006 213.903 849.741 213.903C845.283 213.903 841.014 212.647 835.866 212.647C819.291 212.647 809.81 220.683 809.81 233.68C809.81 246.551 818.223 252.264 830.404 255.843L841.265 259.107C849.113 261.368 852.566 264.13 852.566 268.399C852.566 272.669 849.427 275.117 843.714 275.117C834.987 275.117 825.946 269.655 817.658 259.672C816.089 257.663 814.205 257.412 812.384 258.417L809.81 259.861C807.801 260.991 807.111 263 808.241 265.135L817.282 283.593C818.161 285.288 819.605 286.607 821.425 286.607C824.313 286.607 825.444 284.912 829.022 284.912C832.601 284.912 836.933 287.109 844.718 287.109ZM906.247 287.109C920.248 287.109 927.405 279.952 927.405 272.229C927.405 269.781 926.149 268.337 923.952 268.337C920.499 268.337 919.494 271.476 914.095 271.476C910.391 271.476 908.821 269.781 908.821 266.014V229.222C908.758 228.28 909.512 227.527 910.391 227.527C910.453 227.527 910.453 227.527 910.516 227.527H922.508C924.831 227.527 926.212 226.083 926.212 223.823V217.544C926.212 215.221 924.768 213.966 922.508 213.966H910.642C909.7 214.028 908.947 213.275 908.947 212.396C908.947 212.333 908.947 212.333 908.947 212.27V202.853C908.947 199.588 907.251 197.83 904.363 197.83C901.789 197.83 900.094 198.835 897.896 200.844C892.309 205.992 886.281 211.454 879.563 216.037C877.24 217.481 876.424 218.737 876.424 220.935V223.823C876.424 226.271 877.868 227.527 880.129 227.527H884.586C885.528 227.464 886.281 228.218 886.281 229.097C886.281 229.159 886.281 229.159 886.281 229.222V268.839C886.281 280.956 893.564 287.109 906.247 287.109ZM999.481 262.309C997.158 260.74 994.458 261.87 992.638 263.628C988.306 267.269 982.843 269.278 977.193 269.216C967.901 269.216 960.43 264.946 956.411 258.166C955.846 257.161 955.972 256.156 957.165 255.717L996.091 241.528C998.665 240.523 999.544 238.954 998.791 236.254C994.772 221.06 983.597 212.208 967.022 212.208C945.675 212.208 931.109 227.841 931.109 249.69C931.109 271.539 946.68 287.046 969.219 287.046C986.987 287.046 996.844 278.884 1000.55 269.153C1001.87 265.637 1001.43 263.753 999.481 262.309ZM965.452 224.827C970.161 224.827 974.305 227.401 976.188 232.675C976.753 233.994 976.188 234.81 975.058 235.249L953.586 243.851C952.33 244.416 951.577 243.851 951.577 242.846V241.967C951.514 230.98 957.479 224.827 965.452 224.827ZM1038.16 287.109C1045.56 287.109 1051.03 284.535 1055.8 280.517C1056.8 279.638 1057.81 279.638 1058.25 281.082L1058.56 282.086C1059.25 284.221 1060.7 285.539 1063.02 285.539H1084.93C1087.07 285.539 1088.51 284.095 1088.51 281.835V278.005C1088.51 275.871 1087.5 274.552 1085.5 273.987L1083.36 273.297C1080.47 272.292 1079.66 270.722 1079.66 267.834V182.573C1079.66 178.304 1076.77 177.3 1072.94 178.43L1050.9 184.708C1048.77 185.399 1047.76 186.717 1047.76 188.852V192.305C1047.76 194.44 1048.45 195.444 1050.9 196.009C1056.49 197.453 1057.18 199.588 1057.18 203.481V212.208C1057.18 213.212 1056.43 213.777 1055.3 213.463C1051.78 212.773 1048.26 212.459 1044.69 212.459C1024.78 212.459 1009.15 227.213 1009.15 251.259C1009.02 275.745 1022.33 287.109 1038.16 287.109ZM1048.7 273.359C1039.41 273.359 1032.51 263.188 1032.51 248.183C1032.51 234.308 1039.22 225.141 1049.08 225.141C1050.65 225.078 1052.22 225.329 1053.66 225.832C1055.55 226.271 1056.93 227.715 1056.93 230.541V267.646C1056.93 269.906 1056.05 271.099 1054.48 271.915C1052.78 272.857 1050.78 273.359 1048.7 273.359ZM1023.21 469.748V452.231H1029.87V449.908H1013.86V452.231H1020.51V469.748H1023.21ZM1035.27 469.748H1037.91V451.98L1044.18 469.748H1046.76L1053.29 451.855V469.748H1055.99V449.908H1051.47L1045.75 466.232L1040.17 449.908H1035.33L1035.27 469.748ZM594.649 414.749C596.972 414.749 598.228 413.305 598.228 411.171V407.027C598.228 404.578 597.349 403.762 595.34 402.883L592.075 401.753C589.187 400.748 588.182 399.179 588.182 396.04V369.984C588.119 369.042 588.873 368.289 589.752 368.289C589.815 368.289 589.815 368.289 589.877 368.289H624.974C625.915 368.226 626.669 368.98 626.669 369.859C626.669 369.921 626.669 369.921 626.669 369.984V396.04C626.669 399.179 625.664 400.748 622.651 401.753L619.512 402.883C617.502 403.762 616.623 404.578 616.623 407.027V411.171C616.623 413.305 617.942 414.749 620.202 414.749H657.433C659.882 414.749 661.137 413.305 661.137 411.171V407.027C661.137 404.578 660.321 403.762 658.124 402.883L654.985 401.753C651.971 400.748 650.966 399.179 650.966 396.04V333.318C650.966 330.179 651.971 328.609 654.985 327.605L658.124 326.475C660.258 325.596 661.137 324.78 661.137 322.331V318.187C661.137 316.053 659.882 314.609 657.433 314.609H620.202C617.942 314.609 616.623 316.053 616.623 318.187V322.331C616.623 324.78 617.502 325.596 619.512 326.475L622.651 327.605C625.664 328.609 626.669 330.179 626.669 333.318V353.472C626.732 354.414 625.978 355.167 625.099 355.167C625.036 355.167 625.036 355.167 624.974 355.167H589.877C588.936 355.23 588.182 354.477 588.182 353.598C588.182 353.535 588.182 353.535 588.182 353.472V333.318C588.182 330.179 589.187 328.609 592.075 327.605L595.34 326.475C597.349 325.596 598.228 324.78 598.228 322.331V318.187C598.228 316.053 596.972 314.609 594.649 314.609H557.418C555.095 314.609 553.714 316.053 553.714 318.187V322.331C553.714 324.78 554.593 325.596 556.727 326.475L559.867 327.605C562.88 328.609 563.885 330.179 563.885 333.318V396.04C563.885 399.179 562.88 400.748 559.867 401.753L556.727 402.883C554.593 403.762 553.714 404.578 553.714 407.027V411.171C553.714 413.305 555.158 414.749 557.418 414.749H594.649ZM702.889 416.319C725.24 416.319 740.685 400.686 740.685 378.962C740.685 357.239 725.24 341.48 702.889 341.48C680.538 341.48 665.093 357.176 665.093 378.962C665.093 400.56 680.601 416.319 702.889 416.319ZM706.781 401.879C696.297 401.879 687.193 387.564 687.193 371.365C687.193 361.508 691.902 355.921 699.059 355.921C709.481 355.921 718.648 370.235 718.648 386.434C718.648 396.291 714.064 401.879 706.781 401.879ZM774.149 416.319C781.997 416.319 788.778 414.31 793.612 410.417L796.186 408.408C797.316 407.529 798.195 408.094 798.509 409.538L798.823 410.794C799.514 413.494 800.832 414.624 803.532 414.624H825.318C827.641 414.624 829.022 413.18 829.022 410.919V407.152C829.022 405.018 827.892 403.699 825.883 403.134L823.874 402.444C820.986 401.439 819.981 399.995 819.981 396.981V346.063C819.981 341.92 817.282 340.79 813.389 341.92L791.603 348.386C789.468 349.077 788.589 350.396 788.589 352.405V355.983C788.589 358.118 789.468 358.997 791.729 359.688C796.437 361.006 797.442 362.952 797.442 366.971V392.461C797.442 394.47 797.002 395.726 794.993 396.919C791.163 399.116 786.831 400.372 782.374 400.497C777.916 400.497 776.221 397.923 776.221 392.649V346.126C776.221 341.982 773.521 340.852 769.628 341.982L747.968 348.324C745.645 349.014 744.829 350.333 744.829 352.342V355.921C744.829 358.055 745.708 358.934 747.968 359.625C752.865 360.943 753.807 362.89 753.807 366.908V394.219C753.807 408.283 759.834 416.319 774.149 416.319ZM870.46 416.319C888.039 416.319 899.089 408.031 898.964 392.963C898.964 379.779 890.927 373.626 877.492 370.047L866.881 367.159C858.594 364.899 855.015 362.701 855.015 358.683C855.015 355.104 857.589 352.656 863.302 352.656C869.895 352.656 876.738 356.8 885.654 365.401C887.035 366.845 889.295 367.096 890.927 365.966L892.371 365.087C894.067 364.208 894.506 362.513 893.502 360.504L885.905 344.619C885.026 342.924 884.021 342.045 882.2 342.045C880.38 342.045 878.747 343.05 875.483 343.05C871.025 343.05 866.756 341.731 861.607 341.731C845.032 341.731 835.552 349.768 835.552 362.764C835.552 375.635 843.965 381.348 856.145 384.99L867.007 388.254C874.855 390.515 878.308 393.277 878.308 397.546C878.308 401.816 875.169 404.264 869.455 404.264C860.728 404.264 851.687 398.802 843.4 388.819C841.83 386.81 839.947 386.559 838.126 387.501L835.552 388.945C833.543 390.075 832.852 392.084 833.982 394.219L843.023 412.677C843.902 414.373 845.283 415.691 847.167 415.691C850.055 415.691 851.185 413.996 854.764 413.996C858.342 413.996 862.737 416.319 870.46 416.319ZM976.063 391.582C973.74 390.012 971.04 391.142 969.219 392.838C964.887 396.479 959.425 398.488 953.774 398.425C944.482 398.425 937.011 394.156 932.993 387.375C932.428 386.371 932.553 385.366 933.683 384.927L972.61 370.738C975.184 369.733 976.063 368.163 975.309 365.464C971.291 350.27 960.116 341.417 943.541 341.417C922.194 341.417 907.628 357.051 907.628 378.9C907.628 400.748 923.199 416.256 945.675 416.256C963.443 416.256 973.3 408.094 977.005 398.363C978.511 394.847 978.072 393.026 976.063 391.582ZM942.034 354.037C946.743 354.037 950.886 356.611 952.77 361.885C953.335 363.141 952.77 364.02 951.64 364.459L930.168 373.061C928.849 373.626 928.158 373.061 928.158 372.056V371.177C928.158 360.19 934.123 354.037 942.034 354.037Z" fill="#00A69B"/>
</g>
<defs>
<clipPath id="clip0_9_21868">
<rect width="1254" height="722" fill="white"/>
</clipPath>
</defs>
</svg>
