<svg width="1710" height="405" viewBox="0 0 1710 405" fill="none" xmlns="http://www.w3.org/2000/svg">
<rect width="1710" height="405" fill="white"/>
<path d="M254.253 142.666C255.939 142.665 257.588 142.164 258.989 141.226C260.391 140.288 261.483 138.956 262.128 137.397C262.772 135.838 262.94 134.124 262.61 132.47C262.279 130.816 261.466 129.297 260.273 128.105C259.08 126.913 257.56 126.102 255.905 125.774C254.251 125.446 252.537 125.616 250.979 126.263C249.421 126.909 248.09 128.003 247.154 129.406C246.218 130.809 245.719 132.458 245.72 134.144C245.72 135.264 245.942 136.373 246.371 137.407C246.8 138.441 247.429 139.381 248.221 140.172C249.014 140.964 249.954 141.591 250.989 142.019C252.024 142.447 253.133 142.667 254.253 142.666Z" fill="#00A69B"/>
<path d="M150.516 169.273C166.718 169.273 179.902 153.511 179.902 134.139C179.902 114.767 166.718 99 150.516 99C134.315 99 121.13 114.767 121.13 134.139C121.13 153.511 134.309 169.273 150.516 169.273ZM150.516 114.574C158.009 114.574 164.328 123.536 164.328 134.139C164.328 144.742 158.009 153.704 150.516 153.704C143.024 153.704 136.704 144.742 136.704 134.139C136.704 123.536 143.024 114.574 150.516 114.574Z" fill="#00A69B"/>
<path d="M254.253 169.273C270.46 169.273 283.644 153.511 283.644 134.139C283.644 114.767 270.46 99 254.253 99C238.046 99 224.872 114.767 224.872 134.139C224.872 153.511 238.051 169.273 254.253 169.273ZM254.253 114.574C261.745 114.574 268.071 123.536 268.071 134.139C268.071 144.742 261.745 153.704 254.253 153.704C246.76 153.704 240.44 144.742 240.44 134.139C240.44 123.536 246.766 114.574 254.253 114.574Z" fill="#00A69B"/>
<path d="M297.185 222.699L207.512 144.141C206.093 142.896 204.269 142.209 202.381 142.209C200.493 142.209 198.67 142.896 197.251 144.141L107.589 222.699C106.063 224.067 105.138 225.981 105.014 228.027C104.89 230.072 105.577 232.084 106.926 233.626C108.275 235.169 110.178 236.118 112.222 236.267C114.266 236.416 116.286 235.754 117.845 234.425L133.876 220.387V284.081C133.883 289.686 136.114 295.06 140.08 299.022C144.045 302.985 149.421 305.212 155.026 305.215H249.764C255.366 305.207 260.737 302.978 264.698 299.016C268.659 295.054 270.886 289.683 270.892 284.081V220.376L286.923 234.425C288.477 235.785 290.507 236.473 292.568 236.337C294.628 236.201 296.55 235.251 297.911 233.698C299.272 232.144 299.96 230.114 299.824 228.053C299.687 225.993 298.738 224.071 297.185 222.71V222.699ZM255.346 284.081C255.346 285.556 254.76 286.971 253.718 288.014C252.675 289.058 251.261 289.645 249.786 289.646H210.149V266.47L235.472 240.469L235.632 240.299C240.496 234.991 243.184 228.048 243.163 220.849C243.163 205.077 230.501 192.223 214.933 192.223C210.568 192.238 206.266 193.271 202.37 195.239C198.47 193.279 194.167 192.256 189.802 192.25C174.239 192.25 161.583 205.077 161.583 220.877C161.567 228.074 164.255 235.016 169.114 240.326L169.279 240.497L194.603 266.497V289.674H155.026C153.552 289.669 152.14 289.081 151.098 288.038C150.056 286.995 149.469 285.582 149.466 284.108V206.734L202.37 160.365L255.313 206.734L255.346 284.081ZM202.37 252.151L180.526 229.701C178.346 227.269 177.143 224.115 177.151 220.849C177.151 213.659 182.827 207.818 189.813 207.818C192.616 207.816 195.335 208.772 197.52 210.527C198.897 211.623 200.605 212.22 202.365 212.22C204.125 212.22 205.832 211.623 207.209 210.527C209.395 208.774 212.114 207.821 214.916 207.824C221.902 207.824 227.578 213.665 227.578 220.855C227.593 224.12 226.395 227.275 224.215 229.707L202.37 252.151Z" fill="#00A69B"/>
<path d="M150.515 142.666C152.201 142.666 153.85 142.166 155.252 141.229C156.655 140.292 157.748 138.96 158.393 137.402C159.038 135.844 159.207 134.129 158.878 132.475C158.549 130.821 157.737 129.302 156.544 128.109C155.352 126.916 153.832 126.104 152.178 125.775C150.524 125.446 148.81 125.615 147.251 126.26C145.693 126.906 144.361 127.999 143.424 129.401C142.487 130.803 141.987 132.452 141.987 134.139C141.99 136.399 142.89 138.567 144.488 140.165C146.087 141.764 148.254 142.663 150.515 142.666Z" fill="#00A69B"/>
<path d="M1270.06 178.058C1277.7 178.058 1282.83 173.803 1282.83 167.417C1282.83 161.031 1277.7 156.896 1270.06 156.896C1262.43 156.896 1257.29 161.025 1257.29 167.417C1257.29 173.808 1262.42 178.058 1270.06 178.058Z" fill="#00A69B"/>
<path d="M592.048 209.372L582.772 206.9C575.505 204.896 572.373 203.014 572.373 199.507C572.373 196.375 574.63 194.25 579.639 194.25C585.398 194.25 591.409 197.883 599.171 205.392C599.763 206.006 600.55 206.393 601.397 206.485C602.244 206.578 603.097 206.37 603.807 205.898L605.056 205.144C606.559 204.39 606.934 202.887 606.058 201.136L599.419 187.236C598.67 185.739 597.768 184.979 596.166 184.979C594.564 184.979 593.165 185.86 590.286 185.86C586.394 185.86 582.645 184.759 578.131 184.759C563.609 184.759 555.345 191.772 555.345 203.173C555.345 214.442 562.728 219.441 573.369 222.579L582.887 225.452C589.78 227.456 592.797 229.857 592.797 233.6C592.797 237.343 590.044 239.479 585.034 239.479C577.399 239.479 569.505 234.723 562.243 225.959C560.867 224.208 559.237 223.95 557.608 224.83L555.356 226.086C553.606 227.082 552.973 228.838 553.975 230.715L561.852 246.818C562.601 248.315 563.851 249.444 565.48 249.444C567.98 249.444 568.987 247.946 572.086 247.946C575.186 247.946 579.105 249.824 585.849 249.824C601.263 249.824 610.892 242.557 610.771 229.411C610.848 217.91 603.818 212.499 592.048 209.372Z" fill="#00A69B"/>
<path d="M546.89 238.308L545.134 237.675C542.629 236.8 541.754 235.55 541.754 232.913V188.322C541.754 184.688 539.37 183.692 535.995 184.688L516.953 190.32C515.076 190.948 514.333 192.076 514.333 193.827V196.992C514.333 198.87 515.076 199.624 517.085 200.246C521.22 201.38 522.1 203.136 522.1 206.637V228.922C522.1 230.672 521.721 231.801 519.97 232.803C516.618 234.746 512.833 235.821 508.96 235.93C505.106 235.93 503.576 233.678 503.576 229.043V188.338C503.576 184.705 501.198 183.708 497.818 184.705L478.781 190.337C476.777 190.964 476.028 192.093 476.028 193.843V196.992C476.028 198.87 476.777 199.624 478.781 200.246C483.036 201.38 483.917 203.136 483.917 206.637V230.573C483.917 242.844 489.174 249.841 501.693 249.841C508.585 249.841 514.47 248.091 518.72 244.705L520.983 242.949C521.985 242.2 522.734 242.707 522.987 243.951L523.229 245.079C523.862 247.457 524.985 248.459 527.369 248.459H546.383C547.18 248.524 547.97 248.27 548.58 247.755C549.191 247.239 549.572 246.503 549.642 245.707C549.659 245.549 549.659 245.391 549.642 245.233V241.853C549.642 239.932 548.641 238.831 546.89 238.308Z" fill="#00A69B"/>
<path d="M655.233 233.419C652.221 233.419 651.379 236.171 646.59 236.171C643.331 236.171 641.96 234.668 641.96 231.409V199.226C641.947 198.843 642.085 198.469 642.346 198.188C642.607 197.906 642.969 197.739 643.353 197.724H653.978C655.976 197.724 657.237 196.474 657.237 194.47V188.965C657.237 186.967 655.976 185.838 653.978 185.838H643.584C643.394 185.845 643.205 185.815 643.028 185.75C642.85 185.684 642.687 185.584 642.548 185.455C642.409 185.326 642.296 185.171 642.217 184.999C642.138 184.826 642.094 184.64 642.087 184.451V176.072C642.087 173.193 640.578 171.668 638.073 171.668C635.822 171.668 634.319 172.549 632.442 174.294C627.559 178.803 622.29 183.564 616.411 187.567C614.407 188.816 613.658 189.95 613.658 191.828V194.454C613.658 196.584 614.908 197.707 616.912 197.707H620.765C620.956 197.699 621.146 197.729 621.325 197.794C621.503 197.86 621.667 197.961 621.807 198.09C621.947 198.22 622.059 198.376 622.139 198.549C622.218 198.722 622.262 198.909 622.268 199.1C622.274 199.136 622.274 199.173 622.268 199.21V233.892C622.268 244.407 628.665 249.796 639.681 249.796C651.952 249.796 658.211 243.532 658.211 236.771C658.233 234.668 657.088 233.419 655.233 233.419Z" fill="#00A69B"/>
<path d="M407.209 161.037C406.587 158.658 405.326 158.025 403.575 158.025H402.474C401.098 158.025 400.228 158.532 398.973 159.407C397.684 160.312 396.144 160.793 394.569 160.783H348.987C347.412 160.792 345.873 160.311 344.583 159.407C343.212 158.532 342.458 158.025 341.076 158.025H339.975C338.224 158.025 336.969 158.658 336.342 161.037L328.822 187.709C328.194 189.713 328.695 191.089 330.446 191.843L333.958 193.219C335.956 193.842 337.338 193.72 338.362 191.843C345.75 177.31 351.629 171.304 356.391 171.304H356.892C359.777 171.304 361.153 173.308 361.153 176.693V232.041C361.153 234.794 360.399 236.17 357.641 236.924L353.132 238.025C351.255 238.532 350.506 239.528 350.506 241.659V245.292C350.506 247.164 351.607 248.419 353.76 248.419H389.824C391.828 248.419 392.956 247.164 392.956 245.292V241.659C392.956 239.528 392.329 238.532 390.451 238.025L385.943 236.924C383.19 236.17 382.436 234.794 382.436 232.041V176.693C382.436 173.186 383.818 171.304 386.84 171.304H387.214C391.971 171.304 397.729 177.31 405.243 191.843C406.251 193.72 407.627 193.968 409.648 193.219L413.154 191.843C414.91 191.089 415.285 189.713 414.806 187.709L407.209 161.037Z" fill="#00A69B"/>
<path d="M465.061 184.704C458.455 184.704 452.542 187.71 448.154 191.965C446.778 193.221 445.529 192.72 445.529 191.343V188.464C445.529 184.704 443.271 183.708 439.77 184.704L421.603 190.088C419.721 190.589 418.851 191.844 418.851 193.595V196.727C418.851 198.599 419.6 199.359 421.603 199.981C425.859 201.236 426.734 202.987 426.734 206.493V232.918C426.734 235.67 425.859 236.804 423.354 237.68L421.471 238.307C419.715 238.924 418.84 239.931 418.84 241.809V245.315C418.84 247.187 420.095 248.442 422.099 248.442H452.3C453.08 248.491 453.848 248.228 454.436 247.713C455.024 247.197 455.384 246.47 455.438 245.69C455.449 245.572 455.449 245.455 455.438 245.337V241.831C455.438 239.827 454.557 238.698 452.801 238.329L449.674 237.57C447.164 236.948 446.415 235.571 446.415 232.934V207.622C446.415 202.987 448.419 200.73 452.052 200.73C454.937 200.73 457.062 202.486 460.31 206.873C461.813 208.745 462.815 209.499 464.439 209.499C466.575 209.499 467.951 208.244 468.199 205.992L470.081 189.714C470.467 186.581 468.694 184.704 465.061 184.704Z" fill="#00A69B"/>
<path d="M1380.96 233.413C1377.96 233.413 1377.08 236.166 1372.31 236.166C1369.06 236.166 1367.68 234.657 1367.68 231.404V199.226C1367.67 198.841 1367.81 198.467 1368.07 198.184C1368.33 197.901 1368.7 197.734 1369.08 197.718H1379.71C1381.71 197.718 1382.96 196.468 1382.96 194.459V188.954C1382.96 186.95 1381.71 185.822 1379.71 185.822H1369.31C1369.12 185.831 1368.93 185.803 1368.75 185.738C1368.58 185.674 1368.41 185.575 1368.27 185.446C1368.13 185.318 1368.02 185.162 1367.94 184.99C1367.86 184.817 1367.81 184.63 1367.81 184.44C1367.8 184.403 1367.8 184.366 1367.81 184.33V176.072C1367.81 173.198 1366.31 171.668 1363.8 171.668C1361.55 171.668 1360.05 172.543 1358.17 174.299C1353.29 178.803 1348.03 183.564 1342.14 187.572C1340.13 188.827 1339.39 189.95 1339.39 191.828V194.454C1339.39 196.584 1340.64 197.713 1342.64 197.713H1346.49C1346.69 197.704 1346.88 197.734 1347.05 197.8C1347.23 197.866 1347.4 197.966 1347.54 198.096C1347.68 198.225 1347.79 198.381 1347.87 198.554C1347.95 198.728 1347.99 198.915 1348 199.105C1348 199.144 1348 199.183 1348 199.221V233.903C1348 244.423 1354.38 249.807 1365.4 249.807C1377.68 249.807 1383.94 243.543 1383.94 236.782C1383.97 234.657 1382.84 233.413 1380.96 233.413Z" fill="#00A69B"/>
<path d="M1449.71 228.15C1447.7 226.769 1445.3 227.77 1443.7 229.279C1439.92 232.479 1435.12 234.211 1430.16 234.156C1422.03 234.156 1415.52 230.402 1412 224.517C1411.49 223.642 1411.62 222.761 1412.62 222.392L1446.68 209.989C1448.93 209.114 1449.69 207.737 1449.06 205.359C1445.56 192.086 1435.79 184.324 1421.26 184.324C1402.61 184.324 1389.83 197.971 1389.83 217.129C1389.83 236.287 1403.49 249.84 1423.16 249.84C1438.68 249.84 1447.32 242.684 1450.58 234.184C1451.84 231.029 1451.48 229.4 1449.71 228.15ZM1407.75 211.118V210.363C1407.75 200.718 1413.02 195.34 1419.9 195.34C1424.03 195.34 1427.67 197.597 1429.29 202.227C1429.8 203.355 1429.29 204.104 1428.29 204.484L1409.51 211.993C1408.38 212.494 1407.75 211.993 1407.75 211.118Z" fill="#00A69B"/>
<path d="M1332.37 233.413C1329.37 233.413 1328.52 236.166 1323.73 236.166C1320.47 236.166 1319.1 234.657 1319.1 231.404V199.226C1319.08 198.841 1319.22 198.467 1319.48 198.184C1319.75 197.901 1320.11 197.734 1320.49 197.718H1331.12C1333.12 197.718 1334.37 196.468 1334.37 194.459V188.954C1334.37 186.95 1333.12 185.822 1331.12 185.822H1320.73C1320.34 185.837 1319.97 185.7 1319.69 185.441C1319.41 185.182 1319.24 184.822 1319.22 184.44V176.072C1319.22 173.198 1317.72 171.668 1315.22 171.668C1312.96 171.668 1311.46 172.543 1309.58 174.299C1304.69 178.803 1299.44 183.564 1293.55 187.572C1291.55 188.827 1290.8 189.95 1290.8 191.828V194.454C1290.8 196.584 1292.06 197.713 1294.06 197.713H1297.95C1298.14 197.706 1298.33 197.737 1298.51 197.805C1298.68 197.872 1298.85 197.974 1298.99 198.105C1299.13 198.236 1299.24 198.394 1299.32 198.568C1299.4 198.743 1299.44 198.931 1299.44 199.122C1299.45 199.155 1299.45 199.188 1299.44 199.221V233.903C1299.44 244.423 1305.83 249.807 1316.86 249.807C1329.12 249.807 1335.38 243.543 1335.38 236.782C1335.37 234.657 1334.25 233.413 1332.37 233.413Z" fill="#00A69B"/>
<path d="M1504.05 184.692C1497.42 184.692 1491.53 187.697 1487.14 191.958C1485.77 193.208 1484.51 192.707 1484.51 191.336V188.451C1484.51 184.692 1482.27 183.695 1478.76 184.692L1460.59 190.081C1458.72 190.582 1457.84 191.832 1457.84 193.588V196.72C1457.84 198.592 1458.59 199.346 1460.59 199.974C1464.85 201.229 1465.72 202.979 1465.72 206.486V232.911C1465.72 235.663 1464.85 236.764 1462.35 237.667L1460.47 238.3C1458.72 238.922 1457.84 239.952 1457.84 241.801V245.308C1457.84 247.185 1459.09 248.441 1461.09 248.441H1491.27C1492.05 248.489 1492.82 248.226 1493.41 247.711C1493.99 247.195 1494.35 246.468 1494.4 245.688C1494.42 245.571 1494.42 245.453 1494.4 245.336V241.801C1494.4 239.798 1493.53 238.674 1491.77 238.3L1488.64 237.54C1486.14 236.918 1485.39 235.542 1485.39 232.911V207.587C1485.39 202.957 1487.39 200.695 1491.02 200.695C1493.9 200.695 1496.03 202.451 1499.28 206.839C1500.79 208.716 1501.79 209.464 1503.42 209.464C1505.54 209.464 1506.92 208.215 1507.17 205.963L1509.05 189.679C1509.44 186.574 1507.68 184.692 1504.05 184.692Z" fill="#00A69B"/>
<path d="M1286.1 238.278L1284.21 237.645C1281.84 236.77 1280.96 235.52 1280.96 232.889V188.451C1280.96 184.692 1278.58 183.695 1275.07 184.692L1256.17 190.334C1255.36 190.481 1254.63 190.918 1254.13 191.563C1253.62 192.208 1253.36 193.016 1253.41 193.835V196.99C1253.41 198.867 1254.17 199.621 1256.17 200.249C1260.42 201.499 1261.3 203.255 1261.3 206.756V232.927C1261.3 235.68 1260.42 236.781 1257.92 237.684L1256.05 238.278C1254.3 238.9 1253.42 239.902 1253.42 241.779V245.286C1253.42 247.163 1254.67 248.419 1256.68 248.419H1285.6C1286.38 248.467 1287.15 248.204 1287.74 247.689C1288.32 247.173 1288.68 246.446 1288.73 245.666C1288.74 245.545 1288.74 245.424 1288.73 245.303V241.796C1288.72 239.93 1287.85 238.917 1286.1 238.278Z" fill="#00A69B"/>
<path d="M1601.04 166.986L1596.02 181.278L1591.11 166.986H1586.86V184.333H1589.19V168.814L1594.67 184.333H1596.96L1602.64 168.709V184.333H1605V166.986H1601.04Z" fill="#00A69B"/>
<path d="M1552.52 209.362L1543.25 206.862C1535.99 204.859 1532.86 202.981 1532.86 199.475C1532.86 196.342 1535.11 194.217 1540.12 194.217C1545.88 194.217 1551.89 197.845 1559.66 205.359C1560.25 205.972 1561.03 206.358 1561.88 206.449C1562.73 206.541 1563.58 206.332 1564.29 205.86L1565.54 205.106C1567.04 204.358 1567.42 202.855 1566.54 201.104L1559.94 187.204C1559.19 185.701 1558.29 184.947 1556.68 184.947C1555.08 184.947 1553.68 185.822 1550.8 185.822C1546.92 185.822 1543.17 184.693 1538.65 184.693C1524.13 184.693 1515.86 191.707 1515.86 203.108C1515.86 214.377 1523.25 219.381 1533.89 222.519L1543.41 225.393C1550.3 227.396 1553.32 229.797 1553.32 233.535C1553.32 237.273 1550.57 239.42 1545.56 239.42C1537.92 239.42 1530.03 234.658 1522.77 225.894C1521.39 224.143 1519.76 223.895 1518.13 224.792L1515.88 226.042C1514.12 227.044 1513.5 228.795 1514.5 230.677L1522.39 246.829C1523.14 248.332 1524.4 249.461 1526.01 249.461C1528.52 249.461 1529.53 247.958 1532.65 247.958C1535.78 247.958 1539.67 249.835 1546.42 249.835C1561.83 249.835 1571.46 242.568 1571.34 229.422C1571.3 217.911 1564.29 212.494 1552.52 209.362Z" fill="#00A69B"/>
<path d="M1568.11 169.029H1573.92V184.333H1576.3V169.029H1582.12V166.986H1568.11V169.029Z" fill="#00A69B"/>
<path d="M721.3 228.15C719.291 226.779 716.896 227.781 715.289 229.284C711.514 232.489 706.709 234.223 701.757 234.167C693.621 234.167 687.108 230.412 683.59 224.527C683.089 223.652 683.216 222.771 684.218 222.397L718.272 209.999C720.53 209.124 721.284 207.748 720.656 205.364C717.166 192.091 707.4 184.329 692.872 184.329C674.215 184.329 661.443 197.976 661.443 217.134C661.443 236.292 675.091 249.84 694.749 249.84C710.274 249.84 718.917 242.683 722.17 234.183C723.425 231.029 723.051 229.41 721.3 228.15ZM679.346 211.128V210.374C679.346 200.729 684.603 195.345 691.501 195.345C695.63 195.345 699.258 197.596 700.86 202.237C701.361 203.338 700.86 204.114 699.858 204.489L681.075 211.998C679.974 212.499 679.346 211.998 679.346 211.128Z" fill="#00A69B"/>
<path d="M901.973 160.778H869.421C867.412 160.778 866.289 162.033 866.289 163.905V167.538C866.289 169.674 867.038 170.423 868.788 171.172L871.541 172.179C874.172 173.054 875.053 174.425 875.053 177.178V194.838C875.068 195.221 874.93 195.595 874.67 195.876C874.41 196.158 874.049 196.325 873.666 196.341H842.87C842.68 196.348 842.49 196.318 842.312 196.252C842.133 196.186 841.97 196.085 841.83 195.956C841.69 195.827 841.578 195.671 841.498 195.498C841.419 195.325 841.374 195.138 841.367 194.948V177.172C841.367 174.42 842.237 173.049 844.748 172.174L847.627 171.166C849.377 170.417 850.132 169.669 850.132 167.533V163.899C850.132 162.028 849.003 160.772 846.999 160.772H814.442C812.444 160.772 811.188 162.028 811.188 163.899V167.533C811.188 169.669 811.937 170.417 813.82 171.166L816.572 172.174C819.198 173.049 820.079 174.42 820.079 177.172V232.025C820.079 234.777 819.198 236.159 816.572 237.035L813.82 238.036C811.937 238.791 811.188 239.539 811.188 241.664V245.298C811.188 247.175 812.444 248.43 814.442 248.43H847.021C849.025 248.43 850.153 247.175 850.153 245.298V241.664C850.153 239.539 849.399 238.791 847.649 238.036L844.77 237.035C842.259 236.159 841.389 234.777 841.389 232.025V209.234C841.376 208.85 841.515 208.477 841.776 208.195C842.037 207.914 842.399 207.747 842.782 207.731H873.572C873.763 207.72 873.953 207.747 874.133 207.81C874.313 207.873 874.479 207.971 874.621 208.098C874.762 208.226 874.878 208.38 874.959 208.552C875.041 208.724 875.088 208.911 875.097 209.102C875.103 209.138 875.103 209.175 875.097 209.212V232.003C875.097 234.755 874.216 236.137 871.585 237.013L868.832 238.014C867.082 238.769 866.333 239.517 866.333 241.642V245.276C866.333 247.153 867.434 248.408 869.465 248.408H902.017C904.148 248.408 905.271 247.153 905.271 245.276V241.642C905.271 239.517 904.527 238.769 902.645 238.014L899.892 237.013C897.261 236.137 896.385 234.755 896.385 232.003V177.172C896.385 174.42 897.261 173.049 899.892 172.174L902.645 171.166C904.527 170.417 905.271 169.669 905.271 167.533V163.899C905.227 162.033 904.103 160.778 901.973 160.778Z" fill="#00A69B"/>
<path d="M941.705 184.329C922.168 184.329 908.675 198.092 908.675 217.134C908.675 236.044 922.195 249.818 941.705 249.818C961.215 249.818 974.736 236.171 974.736 217.134C974.736 198.097 961.232 184.329 941.705 184.329ZM945.086 237.178C935.942 237.178 927.932 224.654 927.932 210.506C927.932 201.863 932.066 196.98 938.32 196.98C947.469 196.98 955.474 209.498 955.474 223.652C955.474 232.278 951.46 237.178 945.074 237.178H945.086Z" fill="#00A69B"/>
<path d="M796.429 238.306L794.558 237.672C792.047 236.797 791.304 235.415 791.304 232.911V158.41C791.304 154.65 788.794 153.769 785.414 154.777L766.146 160.282C764.269 160.909 763.393 162.038 763.393 163.91V166.921C763.393 168.798 764.021 169.673 766.146 170.174C771.029 171.43 771.651 173.307 771.651 176.692V184.328C771.651 185.203 771.029 185.71 769.999 185.429C766.949 184.835 763.848 184.542 760.74 184.554C743.333 184.554 729.686 197.447 729.686 218.487C729.686 239.907 741.329 249.8 755.103 249.8C761.61 249.8 766.372 247.543 770.517 244.036C771.392 243.288 772.273 243.288 772.642 244.537L772.895 245.418C773.528 247.29 774.772 248.418 776.782 248.418H795.939C797.817 248.418 799.066 247.163 799.066 245.165V241.785C799.061 239.929 798.191 238.828 796.429 238.306ZM771.656 232.8C771.656 234.804 770.913 235.806 769.531 236.56C767.954 237.403 766.189 237.833 764.401 237.81C756.259 237.81 750.247 228.919 750.247 215.79C750.247 203.645 756.132 195.63 764.77 195.63C766.135 195.582 767.496 195.793 768.783 196.252C770.434 196.632 771.656 197.904 771.656 200.392V232.8Z" fill="#00A69B"/>
<path d="M1180.63 228.15C1178.62 226.769 1176.22 227.77 1174.62 229.279C1170.84 232.479 1166.04 234.211 1161.09 234.156C1152.95 234.156 1146.45 230.402 1142.92 224.517C1142.42 223.642 1142.54 222.761 1143.55 222.392L1177.61 209.989C1179.86 209.114 1180.61 207.737 1179.99 205.359C1176.48 192.086 1166.71 184.324 1152.19 184.324C1133.53 184.324 1120.76 197.971 1120.76 217.129C1120.76 236.287 1134.44 249.84 1154.1 249.84C1169.63 249.84 1178.27 242.684 1181.53 234.184C1182.78 231.029 1182.4 229.4 1180.63 228.15ZM1138.67 211.118V210.363C1138.67 200.718 1143.94 195.34 1150.82 195.34C1154.96 195.34 1158.59 197.597 1160.21 202.227C1160.72 203.355 1160.21 204.104 1159.22 204.484L1140.44 211.993C1139.34 212.494 1138.7 211.993 1138.7 211.118H1138.67Z" fill="#00A69B"/>
<path d="M1049.21 238.279L1047.46 237.646C1044.95 236.77 1044.08 235.521 1044.08 232.889V188.298C1044.08 184.659 1041.7 183.663 1038.32 184.659L1019.28 190.302C1017.41 190.924 1016.65 192.052 1016.65 193.803V196.99C1016.65 198.868 1017.41 199.622 1019.4 200.249C1023.53 201.35 1024.41 203.129 1024.41 206.63V228.92C1024.41 230.676 1024.04 231.805 1022.28 232.774C1018.93 234.716 1015.15 235.791 1011.27 235.9C1007.42 235.9 1005.89 233.654 1005.89 229.014V188.331C1005.89 184.692 1003.51 183.696 1000.13 184.692L981.099 190.335C979.095 190.957 978.347 192.085 978.347 193.836V196.99C978.347 198.868 979.101 199.622 981.099 200.249C985.36 201.35 986.23 203.129 986.23 206.63V230.572C986.23 242.837 991.487 249.839 1004.01 249.839C1010.9 249.839 1016.78 248.083 1021.04 244.703L1023.3 242.952C1024.3 242.204 1025.05 242.699 1025.3 243.949L1025.55 245.077C1026.17 247.461 1027.3 248.463 1029.68 248.463H1048.71C1049.51 248.527 1050.3 248.274 1050.91 247.758C1051.52 247.243 1051.9 246.507 1051.97 245.711C1051.99 245.551 1051.99 245.391 1051.97 245.232V241.802C1051.97 239.93 1050.96 238.796 1049.21 238.279Z" fill="#00A69B"/>
<path d="M1226.74 209.362L1217.47 206.862C1210.21 204.859 1207.08 202.981 1207.08 199.475C1207.08 196.342 1209.33 194.217 1214.34 194.217C1220.1 194.217 1226.11 197.845 1233.88 205.359C1234.47 205.972 1235.26 206.358 1236.1 206.45C1236.95 206.541 1237.8 206.333 1238.51 205.86L1239.76 205.106C1241.26 204.358 1241.64 202.855 1240.76 201.104L1234.12 187.204C1233.37 185.701 1232.47 184.947 1230.87 184.947C1229.27 184.947 1227.86 185.822 1224.98 185.822C1221.13 185.822 1217.34 184.693 1212.87 184.693C1198.34 184.693 1190.07 191.707 1190.07 203.108C1190.07 214.377 1197.46 219.381 1208.11 222.519L1217.62 225.393C1224.51 227.396 1227.53 229.797 1227.53 233.535C1227.53 237.273 1224.78 239.42 1219.77 239.42C1212.13 239.42 1204.24 234.658 1196.98 225.894C1195.59 224.143 1193.97 223.895 1192.35 224.792L1190.09 226.042C1188.34 227.044 1187.72 228.795 1188.71 230.677L1196.6 246.829C1197.34 248.332 1198.6 249.461 1200.23 249.461C1202.73 249.461 1203.73 247.958 1206.83 247.958C1209.94 247.958 1213.85 249.835 1220.6 249.835C1236.01 249.835 1245.64 242.568 1245.52 229.422C1245.52 217.911 1238.51 212.494 1226.74 209.362Z" fill="#00A69B"/>
<path d="M1094.37 209.362L1085.1 206.862C1077.84 204.859 1074.71 202.981 1074.71 199.475C1074.71 196.342 1076.97 194.217 1081.97 194.217C1087.74 194.217 1093.74 197.845 1101.51 205.359C1102.1 205.972 1102.89 206.358 1103.73 206.449C1104.58 206.541 1105.43 206.332 1106.14 205.86L1107.39 205.106C1108.9 204.358 1109.27 202.855 1108.4 201.104L1101.76 187.204C1101.01 185.701 1100.11 184.947 1098.5 184.947C1096.9 184.947 1095.5 185.822 1092.62 185.822C1088.73 185.822 1084.98 184.693 1080.48 184.693C1065.95 184.693 1057.68 191.707 1057.68 203.108C1057.68 214.377 1065.07 219.381 1075.72 222.519L1085.23 225.393C1092.12 227.396 1095.14 229.797 1095.14 233.535C1095.14 237.273 1092.39 239.42 1087.37 239.42C1079.74 239.42 1071.84 234.658 1064.58 225.894C1063.2 224.143 1061.57 223.895 1059.95 224.792L1057.69 226.042C1055.94 227.044 1055.31 228.795 1056.31 230.677L1064.2 246.829C1064.96 248.332 1066.21 249.461 1067.83 249.461C1070.34 249.461 1071.34 247.958 1074.47 247.958C1077.6 247.958 1081.49 249.835 1088.23 249.835C1103.65 249.835 1113.27 242.568 1113.15 229.422C1113.15 217.911 1106.14 212.494 1094.37 209.362Z" fill="#00A69B"/>
<path d="M297.185 222.699L207.512 144.141C206.093 142.896 204.269 142.209 202.381 142.209C200.493 142.209 198.67 142.896 197.251 144.141L107.589 222.699C106.063 224.067 105.138 225.981 105.014 228.027C104.89 230.072 105.577 232.084 106.926 233.626C108.275 235.169 110.178 236.118 112.222 236.267C114.266 236.416 116.286 235.754 117.845 234.425L133.876 220.387V284.081C133.883 289.686 136.114 295.06 140.08 299.022C144.045 302.985 149.421 305.212 155.026 305.215H249.764C255.366 305.207 260.737 302.978 264.698 299.016C268.659 295.054 270.886 289.683 270.892 284.081V220.376L286.923 234.425C288.477 235.785 290.507 236.473 292.568 236.337C294.628 236.201 296.55 235.251 297.911 233.698C299.272 232.144 299.96 230.114 299.824 228.053C299.687 225.993 298.738 224.071 297.185 222.71V222.699ZM255.346 284.081C255.346 285.556 254.76 286.971 253.718 288.014C252.675 289.058 251.261 289.645 249.786 289.646H210.149V266.47L235.472 240.469L235.632 240.299C240.496 234.991 243.184 228.048 243.163 220.849C243.163 205.077 230.501 192.223 214.933 192.223C210.568 192.238 206.266 193.271 202.37 195.239C198.47 193.279 194.167 192.256 189.802 192.25C174.239 192.25 161.583 205.077 161.583 220.877C161.567 228.074 164.255 235.016 169.114 240.326L169.279 240.497L194.603 266.497V289.674H155.026C153.552 289.669 152.14 289.081 151.098 288.038C150.056 286.995 149.469 285.582 149.466 284.108V206.734L202.37 160.365L255.313 206.734L255.346 284.081ZM202.37 252.151L180.526 229.701C178.346 227.269 177.143 224.115 177.151 220.849C177.151 213.659 182.827 207.818 189.813 207.818C192.616 207.816 195.335 208.772 197.52 210.527C198.897 211.623 200.605 212.22 202.365 212.22C204.125 212.22 205.832 211.623 207.209 210.527C209.395 208.774 212.114 207.821 214.916 207.824C221.902 207.824 227.578 213.665 227.578 220.855C227.593 224.12 226.395 227.275 224.215 229.707L202.37 252.151Z" fill="#00A69B"/>
</svg>
