<svg width="1532" height="264" viewBox="0 0 1532 264" fill="none" xmlns="http://www.w3.org/2000/svg">
<path d="M165.253 72.6661C166.939 72.665 168.588 72.1638 169.989 71.2259C171.391 70.288 172.483 68.9555 173.128 67.3969C173.772 65.8383 173.94 64.1237 173.61 62.4697C173.279 60.8158 172.466 59.2969 171.273 58.1051C170.08 56.9132 168.56 56.1021 166.905 55.7741C165.251 55.4461 163.537 55.6161 161.979 56.2625C160.421 56.909 159.09 58.0028 158.154 59.4057C157.218 60.8087 156.719 62.4577 156.72 64.1442C156.72 65.2641 156.942 66.3728 157.371 67.4071C157.8 68.4414 158.429 69.3811 159.221 70.1724C160.014 70.9637 160.954 71.5912 161.989 72.0191C163.024 72.447 164.133 72.6668 165.253 72.6661Z" fill="#006263"/>
<path d="M61.5161 99.2726C77.7176 99.2726 90.9023 83.5115 90.9023 64.139C90.9023 44.7666 77.7176 29 61.5161 29C45.3146 29 32.1299 44.7666 32.1299 64.139C32.1299 83.5115 45.3091 99.2726 61.5161 99.2726ZM61.5161 44.5739C69.0085 44.5739 75.3284 53.5362 75.3284 64.139C75.3284 74.7419 69.0085 83.7042 61.5161 83.7042C54.0237 83.7042 47.7038 74.7419 47.7038 64.139C47.7038 53.5362 54.0237 44.5739 61.5161 44.5739Z" fill="#006263"/>
<path d="M165.253 99.2726C181.46 99.2726 194.644 83.5115 194.644 64.139C194.644 44.7666 181.46 29 165.253 29C149.046 29 135.872 44.7666 135.872 64.139C135.872 83.5115 149.051 99.2726 165.253 99.2726ZM165.253 44.5739C172.745 44.5739 179.071 53.5362 179.071 64.139C179.071 74.7419 172.745 83.7042 165.253 83.7042C157.76 83.7042 151.44 74.7419 151.44 64.139C151.44 53.5362 157.766 44.5739 165.253 44.5739Z" fill="#006263"/>
<path d="M208.185 152.699L118.512 74.1413C117.093 72.8959 115.269 72.2092 113.381 72.2092C111.493 72.2092 109.67 72.8959 108.251 74.1413L18.589 152.699C17.0634 154.067 16.1383 155.981 16.0143 158.027C15.8903 160.072 16.5772 162.084 17.9263 163.627C19.2755 165.169 21.1781 166.118 23.2218 166.267C25.2656 166.417 27.2859 165.755 28.845 164.425L44.8759 150.387V214.081C44.8832 219.687 47.1144 225.06 51.0798 229.023C55.0452 232.985 60.4207 235.212 66.0265 235.215H160.764C166.366 235.208 171.737 232.978 175.698 229.016C179.659 225.054 181.886 219.683 181.892 214.081V150.376L197.923 164.425C199.477 165.786 201.507 166.474 203.568 166.337C205.628 166.201 207.55 165.252 208.911 163.698C210.272 162.145 210.96 160.114 210.824 158.054C210.687 155.993 209.738 154.071 208.185 152.71V152.699ZM166.346 214.081C166.346 215.556 165.76 216.971 164.718 218.014C163.675 219.058 162.261 219.645 160.786 219.646H121.149V196.47L146.472 170.469L146.632 170.299C151.496 164.991 154.184 158.048 154.163 150.849C154.163 135.077 141.501 122.223 125.933 122.223C121.568 122.238 117.266 123.271 113.37 125.24C109.47 123.28 105.167 122.256 100.802 122.25C85.2392 122.25 72.583 135.077 72.583 150.877C72.5674 158.075 75.2551 165.016 80.114 170.326L80.2792 170.497L105.603 196.498V219.674H66.0265C64.5522 219.67 63.1397 219.082 62.0977 218.039C61.0558 216.996 60.4692 215.583 60.4663 214.108V136.734L113.37 90.3648L166.313 136.734L166.346 214.081ZM113.37 182.151L91.5261 159.701C89.3456 157.269 88.1434 154.116 88.1514 150.849C88.1514 143.66 93.8272 137.819 100.813 137.819C103.616 137.816 106.335 138.772 108.52 140.527C109.897 141.623 111.605 142.22 113.365 142.22C115.125 142.22 116.832 141.623 118.209 140.527C120.395 138.775 123.114 137.821 125.916 137.824C132.902 137.824 138.578 143.665 138.578 150.855C138.593 154.121 137.395 157.275 135.215 159.707L113.37 182.151Z" fill="#006263"/>
<path d="M61.5147 72.6661C63.2013 72.6661 64.8499 72.166 66.2523 71.229C67.6546 70.292 68.7476 68.9602 69.393 67.402C70.0384 65.8438 70.2073 64.1293 69.8782 62.4751C69.5492 60.821 68.7371 59.3015 67.5445 58.1089C66.3519 56.9164 64.8325 56.1042 63.1783 55.7752C61.5242 55.4462 59.8096 55.615 58.2514 56.2604C56.6932 56.9059 55.3614 57.9988 54.4244 59.4012C53.4874 60.8035 52.9873 62.4522 52.9873 64.1387C52.9902 66.3994 53.8896 68.5667 55.4881 70.1653C57.0867 71.7639 59.254 72.6632 61.5147 72.6661Z" fill="#006263"/>
<path d="M1181.06 108.058C1188.7 108.058 1193.83 103.803 1193.83 97.417C1193.83 91.0311 1188.7 86.8967 1181.06 86.8967C1173.43 86.8967 1168.28 91.0256 1168.28 97.417C1168.28 103.808 1173.42 108.058 1181.06 108.058Z" fill="#006263"/>
<path d="M503.047 139.372L493.771 136.901C486.505 134.897 483.372 133.014 483.372 129.507C483.372 126.375 485.629 124.25 490.639 124.25C496.397 124.25 502.409 127.883 510.171 135.392C510.762 136.006 511.55 136.393 512.397 136.485C513.244 136.578 514.097 136.37 514.806 135.899L516.056 135.144C517.559 134.39 517.933 132.887 517.058 131.137L510.419 117.236C509.67 115.739 508.767 114.979 507.165 114.979C505.563 114.979 504.165 115.86 501.286 115.86C497.394 115.86 493.645 114.759 489.13 114.759C474.608 114.759 466.345 121.773 466.345 133.174C466.345 144.443 473.727 149.441 484.369 152.579L493.887 155.453C500.779 157.457 503.796 159.857 503.796 163.6C503.796 167.344 501.044 169.48 496.034 169.48C488.398 169.48 480.504 164.723 473.243 155.959C471.867 154.209 470.237 153.95 468.607 154.831L466.356 156.086C464.605 157.082 463.972 158.838 464.974 160.716L472.852 176.818C473.601 178.315 474.85 179.444 476.48 179.444C478.979 179.444 479.987 177.947 483.086 177.947C486.185 177.947 490.105 179.824 496.849 179.824C512.263 179.824 521.891 172.557 521.77 159.411C521.847 147.911 514.817 142.499 503.047 139.372Z" fill="#006263"/>
<path d="M457.89 168.308L456.134 167.675C453.629 166.799 452.754 165.55 452.754 162.913V118.322C452.754 114.688 450.37 113.692 446.995 114.688L427.953 120.32C426.076 120.947 425.333 122.076 425.333 123.827V126.992C425.333 128.869 426.076 129.623 428.085 130.246C432.22 131.38 433.1 133.136 433.1 136.637V158.922C433.1 160.672 432.721 161.801 430.97 162.803C427.618 164.746 423.833 165.82 419.96 165.93C416.106 165.93 414.576 163.678 414.576 159.043V118.338C414.576 114.705 412.198 113.708 408.818 114.705L389.781 120.336C387.777 120.964 387.028 122.092 387.028 123.843V126.992C387.028 128.869 387.777 129.623 389.781 130.246C394.036 131.38 394.917 133.136 394.917 136.637V160.573C394.917 172.844 400.174 179.841 412.693 179.841C419.585 179.841 425.47 178.09 429.72 174.705L431.983 172.949C432.985 172.2 433.734 172.706 433.987 173.95L434.229 175.079C434.862 177.457 435.985 178.459 438.369 178.459H457.383C458.18 178.523 458.97 178.27 459.58 177.754C460.191 177.239 460.572 176.503 460.642 175.707C460.659 175.549 460.659 175.391 460.642 175.233V171.853C460.642 169.932 459.641 168.831 457.89 168.308Z" fill="#006263"/>
<path d="M566.233 163.419C563.221 163.419 562.379 166.171 557.59 166.171C554.331 166.171 552.96 164.668 552.96 161.409V129.226C552.947 128.843 553.085 128.469 553.346 128.188C553.607 127.906 553.969 127.739 554.353 127.724H564.978C566.976 127.724 568.237 126.474 568.237 124.47V118.965C568.237 116.967 566.976 115.838 564.978 115.838H554.584C554.394 115.845 554.205 115.815 554.028 115.75C553.85 115.684 553.687 115.584 553.548 115.455C553.409 115.326 553.296 115.171 553.217 114.999C553.138 114.826 553.094 114.64 553.087 114.451V106.072C553.087 103.193 551.578 101.668 549.073 101.668C546.822 101.668 545.319 102.549 543.442 104.294C538.559 108.803 533.29 113.564 527.411 117.567C525.407 118.816 524.658 119.95 524.658 121.828V124.454C524.658 126.584 525.908 127.707 527.912 127.707H531.765C531.956 127.699 532.146 127.729 532.325 127.794C532.503 127.86 532.667 127.961 532.807 128.09C532.947 128.22 533.059 128.376 533.139 128.549C533.218 128.722 533.262 128.909 533.268 129.1C533.274 129.136 533.274 129.173 533.268 129.21V163.892C533.268 174.407 539.665 179.796 550.681 179.796C562.952 179.796 569.211 173.532 569.211 166.771C569.233 164.668 568.088 163.419 566.233 163.419Z" fill="#006263"/>
<path d="M318.209 91.0364C317.587 88.6582 316.326 88.0251 314.575 88.0251H313.474C312.098 88.0251 311.228 88.5316 309.973 89.4069C308.684 90.3122 307.144 90.7932 305.569 90.7832H259.987C258.412 90.7918 256.873 90.3108 255.583 89.4069C254.212 88.5316 253.458 88.0251 252.076 88.0251H250.975C249.224 88.0251 247.969 88.6582 247.342 91.0364L239.822 117.709C239.194 119.712 239.695 121.089 241.446 121.843L244.958 123.219C246.956 123.841 248.338 123.72 249.362 121.843C256.75 107.309 262.629 101.303 267.391 101.303H267.892C270.777 101.303 272.153 103.307 272.153 106.693V162.041C272.153 164.794 271.399 166.17 268.641 166.924L264.132 168.025C262.255 168.532 261.506 169.528 261.506 171.659V175.292C261.506 177.164 262.607 178.419 264.76 178.419H300.824C302.828 178.419 303.956 177.164 303.956 175.292V171.659C303.956 169.528 303.329 168.532 301.451 168.025L296.943 166.924C294.19 166.17 293.436 164.794 293.436 162.041V106.693C293.436 103.186 294.818 101.303 297.84 101.303H298.214C302.971 101.303 308.729 107.309 316.243 121.843C317.251 123.72 318.627 123.968 320.648 123.219L324.154 121.843C325.91 121.089 326.285 119.712 325.806 117.709L318.209 91.0364Z" fill="#006263"/>
<path d="M376.061 114.704C369.455 114.704 363.542 117.71 359.154 121.965C357.778 123.221 356.529 122.72 356.529 121.343V118.464C356.529 114.704 354.271 113.708 350.77 114.704L332.603 120.088C330.721 120.589 329.851 121.844 329.851 123.595V126.727C329.851 128.599 330.6 129.359 332.603 129.981C336.859 131.236 337.734 132.987 337.734 136.493V162.918C337.734 165.67 336.859 166.804 334.354 167.68L332.471 168.307C330.715 168.924 329.84 169.931 329.84 171.809V175.315C329.84 177.187 331.095 178.442 333.099 178.442H363.3C364.08 178.491 364.848 178.228 365.436 177.713C366.024 177.197 366.384 176.47 366.438 175.69C366.449 175.572 366.449 175.455 366.438 175.337V171.831C366.438 169.827 365.557 168.698 363.801 168.329L360.674 167.57C358.164 166.948 357.415 165.571 357.415 162.934V137.622C357.415 132.987 359.419 130.73 363.052 130.73C365.937 130.73 368.062 132.486 371.31 136.873C372.813 138.745 373.815 139.499 375.439 139.499C377.575 139.499 378.951 138.244 379.199 135.992L381.081 119.714C381.467 116.581 379.694 114.704 376.061 114.704Z" fill="#006263"/>
<path d="M1291.96 163.413C1288.96 163.413 1288.08 166.166 1283.31 166.166C1280.06 166.166 1278.68 164.657 1278.68 161.404V129.226C1278.67 128.841 1278.81 128.467 1279.07 128.184C1279.33 127.901 1279.7 127.734 1280.08 127.718H1290.71C1292.71 127.718 1293.96 126.468 1293.96 124.459V118.954C1293.96 116.95 1292.71 115.822 1290.71 115.822H1280.31C1280.12 115.831 1279.93 115.803 1279.75 115.738C1279.58 115.674 1279.41 115.575 1279.27 115.446C1279.13 115.318 1279.02 115.162 1278.94 114.99C1278.86 114.817 1278.81 114.63 1278.81 114.44C1278.8 114.403 1278.8 114.366 1278.81 114.33V106.072C1278.81 103.198 1277.31 101.668 1274.8 101.668C1272.55 101.668 1271.05 102.543 1269.17 104.299C1264.29 108.803 1259.03 113.564 1253.14 117.572C1251.13 118.827 1250.39 119.95 1250.39 121.828V124.454C1250.39 126.584 1251.64 127.713 1253.64 127.713H1257.49C1257.69 127.704 1257.88 127.734 1258.05 127.8C1258.23 127.866 1258.4 127.966 1258.54 128.096C1258.68 128.225 1258.79 128.381 1258.87 128.554C1258.95 128.728 1258.99 128.915 1259 129.105C1259 129.144 1259 129.183 1259 129.221V163.903C1259 174.423 1265.38 179.807 1276.4 179.807C1288.68 179.807 1294.94 173.543 1294.94 166.782C1294.97 164.657 1293.84 163.413 1291.96 163.413Z" fill="#006263"/>
<path d="M1360.71 158.15C1358.7 156.768 1356.3 157.77 1354.7 159.279C1350.92 162.479 1346.12 164.211 1341.16 164.156C1333.03 164.156 1326.52 160.402 1323 154.517C1322.49 153.641 1322.62 152.761 1323.62 152.392L1357.68 139.989C1359.93 139.113 1360.69 137.737 1360.06 135.359C1356.56 122.086 1346.79 114.324 1332.26 114.324C1313.61 114.324 1300.83 127.971 1300.83 147.129C1300.83 166.287 1314.49 179.84 1334.16 179.84C1349.68 179.84 1358.32 172.684 1361.58 164.184C1362.84 161.029 1362.48 159.4 1360.71 158.15ZM1318.75 141.117V140.363C1318.75 130.718 1324.02 125.34 1330.9 125.34C1335.03 125.34 1338.67 127.597 1340.29 132.227C1340.8 133.355 1340.29 134.104 1339.29 134.484L1320.51 141.993C1319.38 142.494 1318.75 141.993 1318.75 141.117Z" fill="#006263"/>
<path d="M1243.37 163.413C1240.37 163.413 1239.52 166.166 1234.73 166.166C1231.47 166.166 1230.1 164.657 1230.1 161.404V129.226C1230.08 128.841 1230.22 128.467 1230.48 128.184C1230.75 127.901 1231.11 127.734 1231.49 127.718H1242.12C1244.12 127.718 1245.37 126.468 1245.37 124.459V118.954C1245.37 116.95 1244.12 115.822 1242.12 115.822H1231.73C1231.34 115.837 1230.97 115.7 1230.69 115.441C1230.41 115.182 1230.24 114.822 1230.22 114.44V106.072C1230.22 103.198 1228.72 101.668 1226.22 101.668C1223.96 101.668 1222.46 102.543 1220.58 104.299C1215.69 108.803 1210.44 113.564 1204.55 117.572C1202.55 118.827 1201.8 119.95 1201.8 121.828V124.454C1201.8 126.584 1203.06 127.713 1205.06 127.713H1208.95C1209.14 127.706 1209.33 127.737 1209.51 127.805C1209.68 127.872 1209.85 127.974 1209.99 128.105C1210.13 128.236 1210.24 128.394 1210.32 128.568C1210.4 128.743 1210.44 128.931 1210.44 129.122C1210.45 129.155 1210.45 129.188 1210.44 129.221V163.903C1210.44 174.423 1216.83 179.807 1227.86 179.807C1240.12 179.807 1246.38 173.543 1246.38 166.782C1246.37 164.657 1245.25 163.413 1243.37 163.413Z" fill="#006263"/>
<path d="M1415.05 114.692C1408.42 114.692 1402.53 117.697 1398.14 121.958C1396.77 123.208 1395.51 122.707 1395.51 121.336V118.451C1395.51 114.692 1393.27 113.695 1389.76 114.692L1371.59 120.081C1369.71 120.582 1368.84 121.832 1368.84 123.588V126.72C1368.84 128.592 1369.59 129.346 1371.59 129.974C1375.85 131.229 1376.72 132.979 1376.72 136.486V162.911C1376.72 165.663 1375.85 166.764 1373.35 167.667L1371.47 168.3C1369.71 168.922 1368.84 169.952 1368.84 171.801V175.308C1368.84 177.185 1370.09 178.441 1372.09 178.441H1402.27C1403.05 178.489 1403.82 178.226 1404.41 177.711C1404.99 177.195 1405.35 176.468 1405.4 175.688C1405.42 175.571 1405.42 175.453 1405.4 175.336V171.801C1405.4 169.798 1404.53 168.674 1402.77 168.3L1399.64 167.54C1397.14 166.918 1396.39 165.542 1396.39 162.911V137.587C1396.39 132.957 1398.39 130.695 1402.02 130.695C1404.9 130.695 1407.03 132.451 1410.28 136.839C1411.79 138.716 1412.79 139.464 1414.42 139.464C1416.54 139.464 1417.92 138.215 1418.17 135.963L1420.05 119.679C1420.44 116.574 1418.68 114.692 1415.05 114.692Z" fill="#006263"/>
<path d="M1197.1 168.278L1195.21 167.645C1192.84 166.77 1191.96 165.52 1191.96 162.889V118.451C1191.96 114.692 1189.58 113.695 1186.07 114.692L1167.17 120.334C1166.36 120.481 1165.63 120.918 1165.13 121.563C1164.62 122.208 1164.36 123.016 1164.41 123.835V126.99C1164.41 128.867 1165.17 129.621 1167.17 130.249C1171.42 131.499 1172.3 133.255 1172.3 136.756V162.927C1172.3 165.68 1171.42 166.781 1168.92 167.684L1167.05 168.278C1165.3 168.9 1164.42 169.902 1164.42 171.779V175.286C1164.42 177.163 1165.67 178.419 1167.68 178.419H1196.6C1197.38 178.467 1198.15 178.204 1198.74 177.689C1199.32 177.173 1199.68 176.446 1199.73 175.666C1199.74 175.545 1199.74 175.424 1199.73 175.303V171.796C1199.72 169.93 1198.85 168.917 1197.1 168.278Z" fill="#006263"/>
<path d="M1512.04 96.9863L1507.02 111.278L1502.11 96.9863H1497.85V114.333H1500.19V98.814L1505.67 114.333H1507.96L1513.64 98.7094V114.333H1516V96.9863H1512.04Z" fill="#006263"/>
<path d="M1463.52 139.362L1454.25 136.862C1446.99 134.859 1443.86 132.981 1443.86 129.475C1443.86 126.342 1446.11 124.217 1451.12 124.217C1456.88 124.217 1462.89 127.845 1470.66 135.359C1471.25 135.972 1472.03 136.358 1472.88 136.449C1473.73 136.541 1474.58 136.332 1475.29 135.86L1476.54 135.106C1478.04 134.358 1478.42 132.855 1477.54 131.104L1470.94 117.204C1470.19 115.701 1469.29 114.947 1467.68 114.947C1466.08 114.947 1464.68 115.822 1461.8 115.822C1457.92 115.822 1454.17 114.693 1449.65 114.693C1435.13 114.693 1426.86 121.707 1426.86 133.108C1426.86 144.377 1434.25 149.381 1444.89 152.519L1454.41 155.393C1461.3 157.396 1464.32 159.797 1464.32 163.535C1464.32 167.273 1461.57 169.42 1456.56 169.42C1448.92 169.42 1441.03 164.658 1433.77 155.894C1432.39 154.143 1430.76 153.895 1429.13 154.792L1426.88 156.042C1425.12 157.044 1424.5 158.795 1425.5 160.677L1433.39 176.829C1434.14 178.332 1435.4 179.461 1437.01 179.461C1439.53 179.461 1440.53 177.958 1443.65 177.958C1446.78 177.958 1450.67 179.835 1457.42 179.835C1472.83 179.835 1482.46 172.568 1482.34 159.422C1482.31 147.911 1475.29 142.494 1463.52 139.362Z" fill="#006263"/>
<path d="M1479.11 99.0287H1484.92V114.333H1487.3V99.0287H1493.12V96.9863H1479.11V99.0287Z" fill="#006263"/>
<path d="M632.3 158.15C630.291 156.779 627.896 157.781 626.289 159.284C622.514 162.489 617.709 164.223 612.757 164.167C604.621 164.167 598.108 160.412 594.59 154.527C594.089 153.652 594.216 152.771 595.218 152.397L629.272 139.999C631.53 139.124 632.284 137.748 631.656 135.364C628.166 122.091 618.4 114.329 603.872 114.329C585.215 114.329 572.443 127.976 572.443 147.134C572.443 166.292 586.091 179.84 605.749 179.84C621.274 179.84 629.917 172.683 633.17 164.183C634.425 161.029 634.051 159.41 632.3 158.15ZM590.346 141.128V140.374C590.346 130.729 595.603 125.345 602.501 125.345C606.63 125.345 610.258 127.596 611.86 132.237C612.361 133.338 611.86 134.114 610.858 134.489L592.075 141.998C590.974 142.499 590.346 141.998 590.346 141.128Z" fill="#006263"/>
<path d="M812.973 90.7782H780.421C778.412 90.7782 777.289 92.0334 777.289 93.9051V97.5385C777.289 99.6744 778.038 100.423 779.788 101.172L782.541 102.179C785.172 103.055 786.053 104.425 786.053 107.178V124.838C786.068 125.221 785.93 125.595 785.67 125.877C785.41 126.158 785.049 126.325 784.666 126.341H753.87C753.68 126.349 753.49 126.318 753.312 126.252C753.133 126.186 752.97 126.086 752.83 125.956C752.69 125.827 752.578 125.671 752.498 125.498C752.419 125.325 752.374 125.139 752.367 124.948V107.172C752.367 104.42 753.237 103.049 755.748 102.174L758.627 101.166C760.377 100.418 761.132 99.6689 761.132 97.533V93.8996C761.132 92.0279 760.003 90.7727 757.999 90.7727H725.442C723.444 90.7727 722.188 92.0279 722.188 93.8996V97.533C722.188 99.6689 722.937 100.418 724.82 101.166L727.572 102.174C730.198 103.049 731.079 104.42 731.079 107.172V162.025C731.079 164.778 730.198 166.16 727.572 167.035L724.82 168.037C722.937 168.791 722.188 169.54 722.188 171.665V175.298C722.188 177.175 723.444 178.43 725.442 178.43H758.021C760.025 178.43 761.153 177.175 761.153 175.298V171.665C761.153 169.54 760.399 168.791 758.649 168.037L755.77 167.035C753.259 166.16 752.389 164.778 752.389 162.025V139.234C752.376 138.85 752.515 138.477 752.776 138.195C753.037 137.914 753.399 137.747 753.782 137.731H784.572C784.763 137.72 784.953 137.747 785.133 137.81C785.313 137.873 785.479 137.971 785.621 138.098C785.762 138.226 785.878 138.38 785.959 138.552C786.041 138.725 786.088 138.911 786.097 139.102C786.103 139.138 786.103 139.176 786.097 139.212V162.003C786.097 164.756 785.216 166.137 782.585 167.013L779.832 168.015C778.082 168.769 777.333 169.518 777.333 171.643V175.276C777.333 177.153 778.434 178.408 780.465 178.408H813.017C815.148 178.408 816.271 177.153 816.271 175.276V171.643C816.271 169.518 815.527 168.769 813.645 168.015L810.892 167.013C808.261 166.137 807.385 164.756 807.385 162.003V107.172C807.385 104.42 808.261 103.049 810.892 102.174L813.645 101.166C815.527 100.418 816.271 99.6689 816.271 97.533V93.8996C816.227 92.0334 815.103 90.7782 812.973 90.7782Z" fill="#006263"/>
<path d="M852.705 114.329C833.168 114.329 819.675 128.092 819.675 147.134C819.675 166.044 833.195 179.818 852.705 179.818C872.215 179.818 885.736 166.171 885.736 147.134C885.736 128.097 872.232 114.329 852.705 114.329ZM856.086 167.178C846.942 167.178 838.932 154.654 838.932 140.506C838.932 131.863 843.066 126.98 849.32 126.98C858.469 126.98 866.474 139.498 866.474 153.652C866.474 162.278 862.46 167.178 856.074 167.178H856.086Z" fill="#006263"/>
<path d="M707.429 168.306L705.558 167.673C703.047 166.797 702.304 165.416 702.304 162.911V88.4103C702.304 84.6503 699.794 83.7695 696.414 84.7769L677.146 90.282C675.269 90.9096 674.393 92.0381 674.393 93.9099V96.9212C674.393 98.7984 675.021 99.6737 677.146 100.175C682.029 101.43 682.651 103.307 682.651 106.693V114.328C682.651 115.204 682.029 115.71 680.999 115.429C677.949 114.835 674.848 114.542 671.74 114.554C654.333 114.554 640.686 127.447 640.686 148.487C640.686 169.908 652.329 179.8 666.103 179.8C672.61 179.8 677.372 177.543 681.517 174.037C682.392 173.288 683.273 173.288 683.642 174.538L683.895 175.418C684.528 177.29 685.772 178.419 687.782 178.419H706.939C708.817 178.419 710.066 177.163 710.066 175.165V171.785C710.061 169.93 709.191 168.829 707.429 168.306ZM682.656 162.801C682.656 164.805 681.913 165.806 680.531 166.561C678.954 167.403 677.189 167.833 675.401 167.81C667.259 167.81 661.247 158.92 661.247 145.79C661.247 133.646 667.132 125.63 675.77 125.63C677.135 125.582 678.496 125.793 679.783 126.252C681.434 126.632 682.656 127.904 682.656 130.392V162.801Z" fill="#006263"/>
<path d="M1091.63 158.15C1089.62 156.768 1087.22 157.77 1085.62 159.279C1081.84 162.479 1077.04 164.211 1072.09 164.156C1063.95 164.156 1057.45 160.402 1053.92 154.517C1053.42 153.641 1053.54 152.761 1054.55 152.392L1088.61 139.989C1090.86 139.113 1091.61 137.737 1090.99 135.359C1087.48 122.086 1077.71 114.324 1063.19 114.324C1044.53 114.324 1031.76 127.971 1031.76 147.129C1031.76 166.287 1045.44 179.84 1065.1 179.84C1080.63 179.84 1089.27 172.684 1092.53 164.184C1093.78 161.029 1093.4 159.4 1091.63 158.15ZM1049.67 141.117V140.363C1049.67 130.718 1054.94 125.34 1061.82 125.34C1065.96 125.34 1069.59 127.597 1071.21 132.227C1071.72 133.355 1071.21 134.104 1070.22 134.484L1051.44 141.993C1050.34 142.494 1049.7 141.993 1049.7 141.117H1049.67Z" fill="#006263"/>
<path d="M960.208 168.279L958.458 167.646C955.953 166.77 955.077 165.521 955.077 162.889V118.298C955.077 114.659 952.699 113.663 949.319 114.659L930.283 120.302C928.405 120.924 927.651 122.052 927.651 123.803V126.99C927.651 128.868 928.405 129.622 930.404 130.249C934.532 131.35 935.413 133.129 935.413 136.63V158.92C935.413 160.676 935.039 161.805 933.283 162.774C929.93 164.716 926.146 165.791 922.273 165.9C918.419 165.9 916.894 163.654 916.894 159.014V118.331C916.894 114.692 914.51 113.696 911.13 114.692L892.099 120.335C890.095 120.957 889.347 122.085 889.347 123.836V126.99C889.347 128.868 890.101 129.622 892.099 130.249C896.36 131.35 897.23 133.129 897.23 136.63V160.572C897.23 172.837 902.487 179.839 915.011 179.839C921.898 179.839 927.783 178.083 932.039 174.703L934.296 172.952C935.298 172.204 936.046 172.699 936.3 173.949L936.547 175.077C937.169 177.461 938.298 178.463 940.682 178.463H959.713C960.509 178.527 961.299 178.274 961.909 177.758C962.52 177.243 962.902 176.507 962.972 175.711C962.988 175.551 962.988 175.391 962.972 175.232V171.802C962.966 169.93 961.964 168.796 960.208 168.279Z" fill="#006263"/>
<path d="M1137.74 139.362L1128.47 136.862C1121.21 134.859 1118.08 132.981 1118.08 129.475C1118.08 126.342 1120.33 124.217 1125.34 124.217C1131.1 124.217 1137.11 127.845 1144.88 135.359C1145.47 135.972 1146.26 136.358 1147.1 136.45C1147.95 136.541 1148.8 136.333 1149.51 135.86L1150.76 135.106C1152.26 134.358 1152.64 132.855 1151.76 131.104L1145.12 117.204C1144.38 115.701 1143.47 114.947 1141.87 114.947C1140.27 114.947 1138.86 115.822 1135.98 115.822C1132.13 115.822 1128.34 114.693 1123.87 114.693C1109.34 114.693 1101.07 121.707 1101.07 133.108C1101.07 144.377 1108.47 149.381 1119.11 152.519L1128.63 155.393C1135.51 157.396 1138.53 159.797 1138.53 163.535C1138.53 167.273 1135.78 169.42 1130.77 169.42C1123.13 169.42 1115.24 164.658 1107.98 155.894C1106.59 154.143 1104.98 153.895 1103.35 154.792L1101.09 156.042C1099.34 157.044 1098.72 158.795 1099.71 160.677L1107.6 176.829C1108.34 178.332 1109.6 179.461 1111.23 179.461C1113.73 179.461 1114.73 177.958 1117.84 177.958C1120.94 177.958 1124.85 179.835 1131.6 179.835C1147.01 179.835 1156.64 172.568 1156.52 159.422C1156.52 147.911 1149.51 142.494 1137.74 139.362Z" fill="#006263"/>
<path d="M1005.37 139.362L996.104 136.862C988.843 134.859 985.711 132.981 985.711 129.475C985.711 126.342 987.968 124.217 992.972 124.217C998.736 124.217 1004.74 127.845 1012.51 135.359C1013.1 135.972 1013.89 136.358 1014.73 136.449C1015.58 136.541 1016.43 136.332 1017.14 135.86L1018.39 135.106C1019.9 134.358 1020.27 132.855 1019.4 131.104L1012.76 117.204C1012.01 115.701 1011.11 114.947 1009.5 114.947C1007.9 114.947 1006.5 115.822 1003.62 115.822C999.732 115.822 995.983 114.693 991.48 114.693C976.947 114.693 968.683 121.707 968.683 133.108C968.683 144.377 976.066 149.381 986.718 152.519L996.231 155.393C1003.12 157.396 1006.14 159.797 1006.14 163.535C1006.14 167.273 1003.39 169.42 998.367 169.42C990.737 169.42 982.843 164.658 975.581 155.894C974.2 154.143 972.57 153.895 970.946 154.792L968.694 156.042C966.938 157.044 966.311 158.795 967.313 160.677L975.201 176.829C975.956 178.332 977.211 179.461 978.835 179.461C981.34 179.461 982.342 177.958 985.469 177.958C988.595 177.958 992.488 179.835 999.231 179.835C1014.65 179.835 1024.27 172.568 1024.15 159.422C1024.15 147.911 1017.14 142.494 1005.37 139.362Z" fill="#006263"/>
</svg>
